SplineFontDB: 3.0
FontName: KleiExtBld
FullName: Klei Extra Bold
FamilyName: Klei
Weight: ExtBold
Copyright: Copyright (c) 2015-2018, Joseph Steck, Rocketroom, LLC. All rights reserved.
UComments: "For my beloved Alisa +ACIA-Clay+ACIA Steck+AAoA-2015-02-14: Created with FontForge (http://fontforge.org)"
Version: 001.000
ItalicAngle: 0
UnderlinePosition: -100
UnderlineWidth: 50
Ascent: 768
Descent: 232
InvalidEm: 0
LayerCount: 2
Layer: 0 0 "Back" 1
Layer: 1 0 "Fore" 0
PreferredKerning: 4
XUID: [1021 610 -1734517455 9502657]
FSType: 0
OS2Version: 3
OS2_WeightWidthSlopeOnly: 0
OS2_UseTypoMetrics: 1
CreationTime: 1424325067
ModificationTime: 1557693021
PfmFamily: 17
TTFWeight: 400
TTFWidth: 5
LineGap: 90
VLineGap: 0
Panose: 2 0 5 3 0 0 0 0 0 0
OS2TypoAscent: 0
OS2TypoAOffset: 1
OS2TypoDescent: 0
OS2TypoDOffset: 1
OS2TypoLinegap: 90
OS2WinAscent: 0
OS2WinAOffset: 1
OS2WinDescent: 0
OS2WinDOffset: 1
HheadAscent: 0
HheadAOffset: 1
HheadDescent: 0
HheadDOffset: 1
OS2Vendor: 'PfEd'
OS2CodePages: 20000001.00000000
OS2UnicodeRanges: 00000005.00000000.00000000.00000000
Lookup: 4 0 1 "'liga' Standard Ligatures in Latin lookup 0" { "'liga' ffi"  "'liga' ffl"  "'liga' fi"  "'liga' ff"  "'liga' fl"  } ['liga' ('DFLT' <'dflt' > 'latn' <'dflt' > ) ]

StartChar: s
Encoding: 115 115 0
GlifName: s
Width: 484
VWidth: 0
Flags: W
HStem: -10 48.4434<157.99 260.163> 467.515 38.2139<256.362 329.592>
VStem: 36.0039 90.873<72.2136 122.209> 62.6777 170.483<351.28 427.954> 276.924 171.791<76.409 162.479>
LayerCount: 2
Fore
SplineSet
126.876953125 150.182617188 m 0xe8
 132.624023438 114.026367188 136.008789062 38.443359375 212.234375 38.443359375 c 0
 262.083984375 38.443359375 276.923828125 73.7119140625 276.923828125 112.604492188 c 0
 276.923828125 149.173828125 240.74609375 186.133789062 187.701171875 217.471679688 c 0
 141.2578125 245.05859375 62.677734375 301.298828125 62.677734375 370.005859375 c 0
 62.677734375 449.794921875 175.826171875 505.728515625 281.946289062 505.728515625 c 0
 342.383789062 505.728515625 426.122070312 491.63671875 426.122070312 464 c 0
 426.122070312 449.447265625 416.079101562 383.336914062 386 383.336914062 c 0
 350.2421875 383.336914062 346.823242188 467.514648438 291.384765625 467.514648438 c 0
 257.303710938 467.514648438 233.161132812 422.017578125 233.161132812 399.092773438 c 0xd8
 233.161132812 352.291992188 293.629882812 318.19921875 336.734375 291.750976562 c 0
 389.958007812 255.188476562 448.71484375 222.923828125 448.71484375 143.517578125 c 0
 448.71484375 40.83203125 319.262695312 -10 219.517578125 -10 c 0
 99.216796875 -10 36.00390625 49.1689453125 36.00390625 83 c 0
 36.00390625 104.434570312 85.2587890625 161.54296875 113 161.54296875 c 0
 118.674804688 161.54296875 126.1875 154.5234375 126.876953125 150.182617188 c 0xe8
EndSplineSet
EndChar

StartChar: W
Encoding: 87 87 1
GlifName: W_
Width: 1097
VWidth: 0
Flags: W
HStem: -9.8291 21G<413.83 422.127 708.723 717.094> 701 29<66 72.9062 328.05 417.376 640.048 705.726 789.969 829 889 930.02 1077.09 1084>
LayerCount: 2
Fore
SplineSet
375 701 m 1
 363.947265625 700.91796875 l 2
 342.000976562 700.83203125 317.865234375 686.48046875 317.865234375 665 c 0
 317.865234375 660.379882812 318.519116237 658.492906234 321.34375 651.508789062 c 2
 472 279 l 1
 538.100585938 404.892578125 l 1
 431 665 l 2
 420.806640625 688.91796875 404.997070312 700.73046875 387.604492188 700.91796875 c 2
 375 701 l 1
700.729492188 486 m 1
 700.729492188 486 748.013671875 354.264648438 774 288 c 1
 827 398 907.716888049 564.184786558 934.3984375 640.553710938 c 0
 937 648 939 661.157226562 939 668 c 0
 939 686.315429688 915.984375 700.686523438 896.057617188 700.91796875 c 2
 889 701 l 1
 889 701 885.391601562 707.552734375 885.391601562 716.3046875 c 0
 885.391601562 724.3046875 889 730 889 730 c 1
 1084 730 l 1
 1084 730 1087.39160156 724.056640625 1087.39160156 715.3046875 c 0
 1087.39160156 707.3046875 1084 701 1084 701 c 1
 1077.09375 700.486328125 l 2
 1046.22851562 698.481445312 1039.42871094 683.634765625 1027 656 c 2
 1027 656 766.282226562 77.9091796875 743.326171875 23.2705078125 c 0
 738.583007812 12.5498046875 735.118164062 5.0390625 735.08203125 4.9599609375 c 0
 731.247070312 -3.486328125 721.215820312 -9.8291015625 712.97265625 -9.8291015625 c 0
 704.473632812 -9.8291015625 695.587890625 -2.28515625 692.559570312 4.734375 c 0
 689.620117188 11.5458984375 652.369140625 149.615234375 588.975585938 316.579101562 c 1
 448.33203125 25.564453125 l 2
 443.650390625 14.7744140625 440.131835938 7 440.114257812 6.9609375 c 0
 436.280273438 -1.486328125 426.249023438 -7.8291015625 418.004882812 -7.8291015625 c 0
 409.654296875 -7.8291015625 400.509765625 -0.4833984375 397.530273438 6.880859375 c 0
 392.506835938 19.0654296875 194.9921875 475.73046875 124.155273438 646.700195312 c 2
 117.2578125 662.9453125 l 2
 106.12890625 689.716796875 101 698 72.90625 700.486328125 c 2
 66 701 l 1
 66 701 61.3916015625 707.552734375 61.3916015625 716.3046875 c 0
 61.3916015625 724.3046875 66 730 66 730 c 1
 312.333333333 730 582.666992188 730 829 730 c 1
 829 730 833.391601562 725.056640625 833.391601562 716.3046875 c 0
 833.391601562 708.3046875 830 701 830 701 c 1
 822.39453125 700.91796875 l 2
 793.993164062 700.611328125 788.587890625 687.194335938 776.766601562 662.130859375 c 2
 700.729492188 486 l 1
674.337890625 703.078125 m 1
 651 703.078125 630.383789062 681.961914062 630.383789062 664.7421875 c 0
 630.383789062 658.15234375 632.2265625 652.80859375 636.639648438 641.235351562 c 0
 642.284179688 626.435546875 668.359375 548.015625 668.359375 548.015625 c 1
 668.359375 548.015625 699.690429688 622.9375 705.342773438 635.955078125 c 0
 713.16796875 653.37109375 714.875 657.577148438 714.875 666 c 0
 714.875 683.32421875 693 703.078125 674.337890625 703.078125 c 1
EndSplineSet
EndChar

StartChar: A
Encoding: 65 65 2
GlifName: A_
Width: 885
VWidth: 0
Flags: W
HStem: 0 34<50 91.9043 184.207 222 521 563.991 782.025 822> 295 63<303.264 452.952> 715.309 20G<476.423 495.734>
LayerCount: 2
Fore
SplineSet
825 17 m 1052,0,-1
822 0 m 5,1,-1
 521 0 l 5,2,-1
 521 0 517 8.248046875 517 17 c 4,5,-1
 517 25 521 34 521 34 c 5,8,-1
 528 34 l 6,9,-1
 550 34 570.481445312 48.97265625 570.481445312 70.3544921875 c 4,12,-1
 570.481445312 75.466796875 570.161132812 81.0751953125 567.525390625 87.3125 c 4,15,-1
 479.860351562 295 l 5,16,-1
 278.412109375 295 l 4,17,-1
 277.286132812 295 277.26171875 294.868164062 277.26171875 294.868164062 c 5,20,-1
 277.069335938 294.694335938 276.337890625 293.592773438 275.287109375 291.204101562 c 4,23,-1
 189.447265625 92.07421875 l 5,24,-1
 183.5625 78.875 181.4765625 69.7001953125 181.4765625 63.5302734375 c 4,27,-1
 181.4765625 45.1162109375 195 34 215 34 c 6,30,-1
 222 34 l 5,31,-1
 222 34 226 25.751953125 226 17 c 4,34,-1
 226 9 222 0 222 0 c 5,37,-1
 50 0 l 5,38,-1
 50 0 46 8.248046875 46 17 c 4,41,-1
 46 25 50 34 50 34 c 5,44,-1
 57 34 l 6,45,-1
 88.5341796875 34 94.841796875 54.5791015625 107.588867188 81.1318359375 c 5,48,-1
 380.123046875 708.659179688 l 5,49,-1
 381.51953125 709.752929688 l 4,50,-1
 395.3671875 720.599609375 465.040039062 718.686523438 476.422851562 728.493164062 c 4,53,-1
 487.178710938 735.30859375 l 5,54,-1
 775.399414062 61.5390625 l 5,55,-1
 782.770507812 46.6083984375 796 34 815 34 c 6,58,-1
 822 34 l 5,59,-1
 822 34 825 25.751953125 825 17 c 4,62,-1
 825 9 822 0 822 0 c 5,1,-1
379 532 m 5,65,-1
 303.263671875 358 l 5,66,-1
 452.952148438 358 l 5,67,-1
 379 532 l 5,65,-1
EndSplineSet
EndChar

StartChar: O
Encoding: 79 79 3
GlifName: O_
Width: 848
VWidth: 0
Flags: W
HStem: -10 54.667<352.091 510.357> 680.77 53.0391<343.55 494.154>
VStem: 35 198.326<213.91 493.103> 617.246 196.326<234.988 501.033>
LayerCount: 2
Fore
SplineSet
421.301757812 733.80859375 m 0
 639.639648438 733.80859375 813.572265625 617.61328125 813.572265625 360.783203125 c 0
 813.572265625 113.736328125 607.115234375 -10 423.245117188 -10 c 0
 284.432617188 -10 35 43.6591796875 35 351.94921875 c 0
 35 609.623046875 207.1015625 733.80859375 421.301757812 733.80859375 c 0
413.975585938 680.76953125 m 0
 270.1484375 680.76953125 233.326171875 462.103515625 233.326171875 384.29296875 c 0
 233.326171875 83.96484375 366.994140625 44.6669921875 431.186523438 44.6669921875 c 0
 530.84375 44.6669921875 617.24609375 124.952148438 617.24609375 376.696289062 c 0
 617.24609375 529.615234375 559.345703125 680.76953125 413.975585938 680.76953125 c 0
EndSplineSet
EndChar

StartChar: V
Encoding: 86 86 4
GlifName: V_
Width: 769
VWidth: 0
Flags: W
HStem: -8 21G<412.191 422.559> 697 33<60 100.46 330.972 375 593 637.146 738.589 779>
LayerCount: 2
Fore
SplineSet
780 697 m 5
 772 697 l 6
 743 697 738.611328125 681.818359375 724.309570312 654.627929688 c 5
 443.109375 24.9521484375 l 5
 437.922851562 13.1201171875 434.834960938 6.26953125 434.82421875 6.2451171875 c 4
 434.739257812 6.0546875 l 5
 434.643554688 5.869140625 l 4
 433.177734375 3.025390625 428.1796875 -8 416.9375 -8 c 4
 407.444335938 -8 400.720703125 -0.759765625 397.908203125 6.5146484375 c 4
 303.951171875 228.434570312 201.31640625 435.224609375 110 661.551757812 c 4
 100.251953125 685.711914062 93 697 67 697 c 6
 60 697 l 5
 60 697 55.3916015625 705.552734375 55.3916015625 714.3046875 c 4
 55.3916015625 722.3046875 60 730 60 730 c 5
 375.5 730 l 5
 375.5 730 378.391601562 723.056640625 378.391601562 714.3046875 c 4
 378.391601562 706.3046875 375 697 375 697 c 5
 368.28125 697 l 6
 346 697 323.228515625 679.776367188 323.228515625 665.515625 c 4
 323.228515625 661.904296875 323.848632812 655.177734375 326.659179688 648.181640625 c 5
 476 295 l 5
 635.53125 641.7109375 l 5
 641.44921875 655.484375 643.591796875 659.051757812 643.591796875 665.165039062 c 4
 643.591796875 681.606445312 621 697 599.90625 697 c 6
 593 697 l 5
 593 697 588.391601562 705.552734375 588.391601562 714.3046875 c 4
 588.391601562 722.3046875 593 730 593 730 c 5
 779 730 l 5
 779 730 783.391601562 723.056640625 783.391601562 714.3046875 c 4
 783.391601562 706.3046875 780 697 780 697 c 5
EndSplineSet
EndChar

StartChar: H
Encoding: 72 72 5
GlifName: H_
Width: 857
VWidth: 0
Flags: W
HStem: 0.304688 33<64 110.199 328.474 355.006 499.392 526.922 763.998 791.397> 371.211 56.3809<302.739 551.748> 697.305 33<64 109.795 327.526 355.006 499.392 526.924 764.359 791.397>
VStem: 119.115 183.334<37.5867 371.398 427.407 692.806> 551.749 186.566<36.6813 371.32 429.427 693.563>
LayerCount: 2
Fore
SplineSet
355.005859375 730.3046875 m 5
 355.005859375 730.3046875 359 722.751953125 359 714 c 4
 359 706 355.005859375 697 355.005859375 697 c 5
 344.200195312 696.2109375 336.721679688 695.915039062 327.075195312 694.004882812 c 4
 310.77734375 690.77734375 302.815429688 672.241210938 302.815429688 662.263671875 c 4
 302.815429688 607.204101562 302.659179688 567.138671875 302.659179688 512.098632812 c 4
 302.659179688 484.515625 302.696289062 454.692382812 302.811523438 429.390625 c 4
 302.825195312 428.17578125 306.256835938 427.77734375 308.540039062 427.591796875 c 4
 357.720703125 427.038085938 359.282226562 426.358398438 423.822265625 426.358398438 c 4
 491.629882812 426.358398438 493.234375 427.104492188 547.215820312 427.674804688 c 5
 550 427.674804688 551.749023438 429.426757812 551.749023438 429.426757812 c 5
 551.749023438 662.553710938 l 5
 551.63671875 672.53125 543.654296875 691.646484375 527.374023438 694.8671875 c 4
 517.724609375 696.776367188 511.247070312 697.072265625 499.391601562 697.3046875 c 5
 499.391601562 697.3046875 495.391601562 705.552734375 495.391601562 714.3046875 c 4
 495.391601562 722.3046875 499.391601562 730.3046875 499.391601562 730.3046875 c 5
 791.397460938 730.609375 l 5
 791.397460938 730.609375 795.391601562 723.056640625 795.391601562 714.3046875 c 4
 795.391601562 706.3046875 791.397460938 697.3046875 791.397460938 697.3046875 c 5
 781.028320312 696.96484375 773.555664062 696.669921875 763.908203125 694.750976562 c 4
 747.732421875 691.536132812 738.728515625 673.510742188 738.314453125 663.084960938 c 5
 736.284179688 571.07421875 735.447265625 492.666992188 735.447265625 400.322265625 c 4
 735.447265625 284.805664062 736.655273438 183.88671875 738.315429688 68.3232421875 c 5
 738.733398438 58.853515625 747.748046875 38.78515625 763.546875 35.6494140625 c 4
 773.197265625 33.734375 780.66796875 33.4345703125 791.397460938 33.609375 c 5
 791.397460938 33.609375 795.391601562 26.056640625 795.391601562 17.3046875 c 4
 795.391601562 9.3046875 791.397460938 0.3046875 791.397460938 0.3046875 c 5
 499.391601562 0.3046875 l 5
 499.391601562 0.3046875 495.391601562 8.552734375 495.391601562 17.3046875 c 4
 495.391601562 25.3046875 499.391601562 33.3046875 499.391601562 33.3046875 c 5
 510.248046875 33.447265625 517.727539062 33.7451171875 527.373046875 35.6630859375 c 4
 543.286132812 38.8271484375 551.506835938 57.7685546875 551.749023438 66.853515625 c 5
 551.749023438 369.379882812 l 6
 551.749023438 370.588867188 549.405273438 370.875 546.532226562 371.12890625 c 4
 492.712890625 371.696289062 490.694335938 372.446289062 423.822265625 372.446289062 c 4
 359.983398438 372.446289062 358.958007812 371.770507812 309.189453125 371.2109375 c 4
 306.693359375 371.046875 302.848632812 370.740234375 302.810546875 369.341796875 c 4
 302.5390625 334.002929688 302.44921875 295.5546875 302.44921875 260.05078125 c 4
 302.44921875 189.86328125 302.803710938 137.08984375 302.806640625 67.0869140625 c 5
 303.594726562 57.2919921875 312.659179688 38.7138671875 328.024414062 35.6630859375 c 4
 337.673828125 33.7470703125 344.15234375 33.751953125 355.005859375 33.3046875 c 5
 355.005859375 33.3046875 359 25.751953125 359 17 c 4
 359 9 355.005859375 0 355.005859375 0 c 5
 64 0 l 1
 64 0 60 8.248046875 60 17 c 0
 60 25 64 33 64 33 c 1
 74.8544921875 33.4345703125 82.3349609375 33.73046875 91.98046875 35.6494140625 c 0
 108.217773438 38.876953125 116.240234375 58.724609375 116.240234375 68.5224609375 c 1
 117.908203125 185.28125 119.115234375 287.7734375 119.115234375 404.247070312 c 0
 119.115234375 494.900390625 118.270507812 571.295898438 116.2578125 661.846679688 c 1
 116.247070312 671.356445312 108.15234375 691.541015625 91.984375 694.750976562 c 0
 82.333984375 696.66796875 74.861328125 696.96484375 64 697 c 1
 64 697 60 705.248046875 60 714 c 0
 60 722 64 730 64 730 c 1
 355.005859375 730.3046875 l 5
EndSplineSet
EndChar

StartChar: m
Encoding: 109 109 6
GlifName: m
Width: 973
VWidth: 0
Flags: W
HStem: 0 32.6016<37 69.6071 250.327 283.077 373.32 405.922 582.685 615.441 707.186 739.794 904.553 937.309> 446.936 64.3193<278.879 375.54 614.301 712.678> 447.892 30.0195<39.4092 70.2404>
VStem: 73.2275 173.683<33.8901 428.811> 409.545 169.727<33.901 373.973> 743.413 157.728<33.9199 413.223>
LayerCount: 2
Fore
SplineSet
246.91015625 57.365234375 m 1xdc
 249.3046875 45.7275390625 260.771484375 32.8984375 276.169921875 32.701171875 c 2
 283.077148438 32.6123046875 l 1
 283.077148438 0 l 1
 37 0 l 1
 37 32.6015625 l 1
 43.9072265625 32.6904296875 l 2
 59.541015625 32.890625 71.0322265625 46.3447265625 73.2275390625 57.658203125 c 1
 73.2275390625 417.466796875 l 2
 73.2275390625 438.3203125 61.2158203125 447.891601562 44.4091796875 447.891601562 c 2
 39.4091796875 447.891601562 l 1
 39.4091796875 477.911132812 l 1xbc
 229.33203125 512.456054688 l 0
 231 513 233.4140625 513 234.380859375 513 c 0
 247.231445312 513 246.967773438 498.931640625 247.001953125 489.821289062 c 0
 247.001953125 482.668945312 246.999023438 473.956054688 246.997070312 467.791992188 c 1
 285.392578125 495.193359375 305.3046875 511.254882812 365.564453125 511.254882812 c 0
 428.514648438 511.254882812 478.709960938 487.41796875 512.08203125 431.501953125 c 1
 553.541015625 492.947265625 635.271484375 508.254882812 703.413085938 508.254882812 c 0
 801.147460938 508.254882812 901.208007812 455.98828125 901.208007812 346.090820312 c 0
 901.140625 57.470703125 l 1
 903.530273438 45.80859375 914.984375 32.96484375 930.401367188 32.767578125 c 2
 937.30859375 32.6787109375 l 1
 937.30859375 0 l 1
 707.185546875 0 l 1
 707.185546875 32.611328125 l 1
 714.092773438 32.69921875 l 2
 729.729492188 32.8994140625 741.220703125 46.3564453125 743.413085938 57.67578125 c 1
 743.413085938 336.447265625 l 0
 743.413085938 413.107421875 698.946289062 446.935546875 666.634765625 446.935546875 c 0
 637.698242188 446.935546875 602 427 577.830078125 374.26171875 c 1
 579.09375 368.043945312 579.33984375 365.352539062 579.33984375 359.859375 c 0
 579.271484375 57.380859375 l 1
 581.661132812 45.7294921875 593.125 32.896484375 608.534179688 32.69921875 c 2
 615.44140625 32.611328125 l 1
 615.44140625 0 l 1
 373.3203125 0 l 1
 373.3203125 32.6123046875 l 1
 380.227539062 32.701171875 l 2
 395.864257812 32.9013671875 407.340820312 46.3583984375 409.544921875 57.66796875 c 1
 409.544921875 333.264648438 l 0
 409.544921875 399.315429688 370.391601562 446.935546875 333.224609375 446.935546875 c 0
 301.184570312 446.935546875 284.319335938 441.344726562 246.989257812 415.392578125 c 1
 246.91015625 57.365234375 l 1xdc
EndSplineSet
EndChar

StartChar: w
Encoding: 119 119 7
GlifName: w
Width: 828
VWidth: 0
Flags: W
HStem: -11 21.6299G<245.311 257.432 552.879 560.375> 480 26.3516<27 49.7416 223.177 247.002 318.252 353.258 513.649 541.563 661.526 688.679 774.107 798.332>
LayerCount: 2
Fore
SplineSet
661.526367188 480.651367188 m 1
 661.526367188 506.12109375 l 1
 798.33203125 506.12109375 l 1
 798.33203125 480.696289062 l 1
 783 480.696289062 770.369140625 465.015625 766 453 c 0
 765.240234375 450.897460938 742.279296875 393.696289062 704.212890625 300.396484375 c 0
 651.237304688 170.556640625 585.958007812 13.8759765625 581.03515625 4.4052734375 c 0
 577.15234375 -3.2734375 563.9296875 -10.3701171875 556.8203125 -10.3701171875 c 0
 548.9375 -10.3701171875 534.573242188 -1.4072265625 531.635742188 6.369140625 c 0
 512.180664062 57.865234375 491.416619711 118.504783838 462 195 c 0
 455.798651861 211.126035929 417.73046875 301.206054688 412.151367188 315.887695312 c 1
 407.643554688 305.14453125 404.882414357 297.314813493 400.400390625 287.694335938 c 0
 337.875976562 153.48828125 279.087890625 12.62890625 275.749023438 4.0244140625 c 0
 272.276367188 -4.9267578125 263.165039062 -11 251.698242188 -11 c 0
 238.922851562 -11 229.442382812 -1.166015625 226.197265625 5.943359375 c 0
 204.397460938 52.41015625 182.49609375 125.672851562 123.879882812 282.265625 c 0
 88.1416015625 377.740234375 56.2314453125 451.4296875 56 452 c 0
 51.2373046875 463.18359375 48.2861328125 480.6328125 27 480.6328125 c 1
 27 506.3515625 l 1
 247.001953125 506.3515625 l 1
 247.001953125 480 l 1
 239.904296875 480 l 2
 224.7578125 480 221.736328125 465.548828125 221.736328125 457.467773438 c 0
 221.736328125 453.794921875 224.50390625 446.375 226 442 c 0
 226.0234375 441.926757812 237.907226562 407.51171875 267.528320312 326.5234375 c 0
 291.032226562 262.260742188 289.208007812 274.01171875 302 241 c 1
 319.25390625 277.48828125 327.971256082 301.415773227 337.455078125 321.674804688 c 0
 351.643266557 351.983150258 365.499023438 385.6875 374.186523438 408.70703125 c 1
 363.369140625 447.451171875 358.20703125 458.489257812 358 459 c 0
 352.288085938 472.333007812 339.826171875 480.29296875 318.251953125 480.29296875 c 1
 318.251953125 506.3515625 l 1
 541.563476562 506.3515625 l 1
 541.563476562 480 l 1
 535.46484375 480 l 2
 521.127929688 480 513.372070312 473.724609375 513.372070312 464.099609375 c 0
 513.372070312 460.21484375 515.309570312 453.784179688 517 449 c 0
 517.022460938 448.935546875 524.861328125 412.299804688 555.091796875 331.5234375 c 0
 574 281 578.435546875 269.41796875 591 237 c 1
 608.208007812 271.8046875 621.266601562 298.002929688 651.93359375 363.674804688 c 0
 682.291992188 428.686523438 684.962890625 443.875 685 444 c 0
 686.548828125 449.161132812 689.293945312 456.858398438 689.293945312 462.098632812 c 0
 689.293945312 473.619140625 680.8671875 480.349609375 664.618164062 480.559570312 c 2
 661.526367188 480.651367188 l 1
EndSplineSet
EndChar

StartChar: x
Encoding: 120 120 8
GlifName: x
Width: 650
VWidth: 0
Flags: W
HStem: 0.00195312 32.7432<44.0352 77.0051 182.887 213.201 361.796 391.931 572.179 602.893> 473.03 33.4844<70.1406 101.974 287.443 310.512 401.396 432.265 535.456 565>
LayerCount: 2
Fore
SplineSet
570.965820312 50.201171875 m 4
 575.821289062 45.0439453125 584.838867188 32.876953125 594.986328125 32.7451171875 c 6
 602.892578125 32.6552734375 l 5
 602.892578125 0.001953125 l 5
 361.795898438 -0.0439453125 l 5
 361.686523438 33.4248046875 l 5
 368.625 33.517578125 l 6
 381.626953125 33.69140625 391.938476562 39.802734375 391.938476562 47.9443359375 c 7
 391.938476562 55.1220703125 385.698242188 64.95703125 385 66 c 5
 385 66 346.401367188 119.7109375 292.208984375 197.208007812 c 5
 244.309570312 137.728515625 203.17578125 83.4677734375 192 69 c 5
 190.379882812 66.7578125 182.875976562 58.3759765625 182.875976562 49 c 4
 182.875976562 39.4541015625 198.010742188 33.6298828125 206.298828125 33.51953125 c 6
 213.20703125 33.427734375 l 5
 213.201171875 -0.0400390625 l 5
 44.03515625 -0.0400390625 l 5
 44 32.642578125 l 5
 50.9140625 32.732421875 l 6
 61.9033203125 32.875 73.4775390625 44.6494140625 77.39453125 49.4853515625 c 4
 81.9970703125 55.16796875 171.887695312 175.052734375 245.748046875 259.928710938 c 5
 189.181640625 338.1328125 106.10546875 451.234375 103.674804688 454.282226562 c 4
 97.888671875 461.538085938 89.337890625 473.663085938 77.0126953125 473.826171875 c 6
 70.140625 473.916992188 l 5
 70 506.514648438 l 5
 310.51171875 506.514648438 l 5
 310.51171875 473.12109375 l 5
 303.083984375 473.030273438 l 6
 290.4296875 472.875976562 287.440429688 462.287109375 287.440429688 456.509765625 c 4
 287.440429688 452.518554688 291.469726562 445.065429688 296 439 c 6
 296 439 306.557617188 422.254882812 356 353 c 5
 421.52734375 433.712890625 425.361328125 439.129882812 426 440 c 4
 429.55859375 444.849609375 432.271484375 452.908203125 432.271484375 457.201171875 c 4
 432.271484375 464.374023438 423.1484375 472.920898438 408.28125 473.119140625 c 6
 401.396484375 473.2109375 l 5
 401.301757812 506.512695312 l 5
 565 506.514648438 l 5
 565 473.991210938 l 5
 559.079101562 473.915039062 l 6
 545.9375 473.771484375 537.666992188 459.189453125 533 453 c 4
 531.532226562 451.053710938 469.419921875 372.23046875 401 289 c 5
 461.28515625 205.125 531.71484375 91.8916015625 570.965820312 50.201171875 c 4
EndSplineSet
EndChar

StartChar: X
Encoding: 88 88 9
GlifName: X_
Width: 869
VWidth: 0
Flags: W
HStem: 0 33<36 66.2157 209.028 237.98 501 546.793 791.808 824.98> 697 33<70 101.894 374.242 404.98 526 566.664 685.031 716.98>
LayerCount: 2
Fore
SplineSet
825 0 m 1
 501 0 l 1
 501 0 496.391601562 8.552734375 496.391601562 17.3046875 c 0
 496.391601562 25.3046875 501 33 501 33 c 1
 507.220703125 32.947265625 l 0
 515.126953125 33.0517578125 520.692382812 34.0869140625 527.7734375 36.2421875 c 0
 538.721679688 39.57421875 548.744140625 47.1279296875 548.744140625 56 c 0
 548.744140625 63.8818359375 538.290039062 79.4423828125 529.37109375 93.494140625 c 1
 382.186523438 303.346679688 l 5
 318.029296875 218.837890625 275.352539062 174.528320312 213.34375 91.2841796875 c 1
 198.067382812 70.7177734375 193.522460938 62.484375 193.522460938 57 c 0
 193.522460938 51.728515625 197.875 41.2705078125 208.727539062 37.2392578125 c 0
 215.12109375 34.8642578125 222.77734375 33.060546875 231.290039062 32.947265625 c 0
 237.98046875 33 l 1
 237.98046875 33 241.391601562 26.056640625 241.391601562 17.3046875 c 0
 241.391601562 9.3046875 238 0 238 0 c 1
 36 0 l 1
 36 0 31.3916015625 8.552734375 31.3916015625 17.3046875 c 0
 31.3916015625 25.3046875 36 33 36 33 c 1
 42.908203125 33.3837890625 l 0
 51.0537109375 33.4892578125 59.1953125 34.7568359375 66.5615234375 37.6201171875 c 0
 78.404296875 42.2236328125 89.220703125 59.73046875 101.001953125 75.78125 c 0
 332.53515625 378.979492188 l 1
 239.354492188 508.497070312 167.021484375 611.157226562 124.958984375 667.244140625 c 0
 116.551757812 678.453125 110.393554688 689.495117188 102.231445312 693.227539062 c 0
 95.08203125 696.497070312 84.748046875 696.368164062 76.65625 696.47265625 c 0
 70 697 l 1
 70 697 65.3916015625 705.552734375 65.3916015625 714.3046875 c 0
 65.3916015625 722.3046875 70 730 70 730 c 1
 404.98046875 730 l 1
 404.98046875 730 408.391601562 723.056640625 408.391601562 714.3046875 c 0
 408.391601562 706.3046875 405 697 405 697 c 1
 398.338867188 696.907226562 l 0
 390.420898438 696.80078125 380.61328125 696.180664062 373.926757812 693.61328125 c 0
 362.227539062 689.12109375 356.517578125 675.780273438 356.517578125 669 c 0
 356.517578125 663.786132812 359.166015625 656.740234375 368.38671875 643.025390625 c 0
 451 528 l 1
 547.420898438 647.278320312 l 1
 558.858398438 662.904296875 566.75390625 672.27734375 566.75390625 679.16796875 c 0
 566.75390625 690.96875 553 696 532.952148438 696.831054688 c 2
 526 697 l 1
 526 697 521.391601562 705.552734375 521.391601562 714.3046875 c 0
 521.391601562 722.3046875 526 730 526 730 c 1
 716.98046875 730 l 1
 716.98046875 730 720.391601562 723.056640625 720.391601562 714.3046875 c 0
 720.391601562 706.3046875 717 697 717 697 c 1
 709.336914062 697.397460938 l 0
 701.189453125 697.291015625 692.046875 696.02734375 684.684570312 693.163085938 c 0
 672.850585938 688.559570312 660.08984375 670.010742188 648.212890625 653.963867188 c 0
 499.146484375 460.11328125 l 1
 510.232421875 444.813476562 l 1
 607.262695312 308.626953125 723.477539062 124.62890625 767.741210938 65.6103515625 c 0
 776.146484375 54.4033203125 783.3046875 41.3662109375 791.469726562 38.6298828125 c 0
 798.598632812 36.240234375 810.817382812 33.48828125 818.900390625 33.3837890625 c 0
 824.98046875 33 l 1
 824.98046875 33 828.391601562 26.056640625 828.391601562 17.3046875 c 0
 828.391601562 9.3046875 825 0 825 0 c 1
EndSplineSet
EndChar

StartChar: d
Encoding: 100 100 10
GlifName: d
Width: 665
VWidth: 0
Flags: W
HStem: -10 48.8711<271.54 387.349> 477 36.166<271.298 374.531> 681.496 29.9609<370.559 403.366> 727.668 20G<566.227 568.621>
VStem: 37.001 173.022<137.284 373.657> 406.408 173.781<54.5447 71.2774 71.2822 446.779 490 680.912>
LayerCount: 2
Fore
SplineSet
616.931640625 61.9853515625 m 1
 621.404296875 21.4716796875 l 1
 591.944335938 8.1982421875 550.71875 -7.3994140625 511.309570312 -7.3994140625 c 0
 469.249023438 -7.3994140625 410.638671875 10.9306640625 407.728515625 24.4404296875 c 1
 373.119140625 2.3955078125 354.841796875 -10 303.903320312 -10 c 0
 162.6171875 -10 37.0009765625 64.349609375 37.0009765625 264.028320312 c 0
 37.0009765625 427.935546875 151.709960938 513.166015625 300.837890625 513.166015625 c 0
 354.849609375 513.166015625 365.999023438 505.953125 406.408203125 490 c 1
 406.408203125 650.149414062 l 2
 406.408203125 671.74609375 395.612304688 681.49609375 377.978515625 681.49609375 c 2
 370.55859375 681.49609375 l 1
 370.55859375 711.45703125 l 1
 562.541992188 747.041015625 l 0
 563.979492188 747.42578125 565.453125 747.66796875 567 747.66796875 c 0
 570.2421875 747.66796875 573.897460938 746.26171875 576.208984375 743.40234375 c 0
 580.469726562 738.134765625 580.25390625 731.629882812 580.28515625 723.424804688 c 0
 580.189453125 71.2822265625 l 1
 580.189453125 71.2822265625 580.467773438 64.7001953125 580.467773438 63.1064453125 c 0
 580.467773438 53.6728515625 l 1
 591.046875 55.91796875 606.627929688 58.923828125 616.931640625 61.9853515625 c 1
406.408203125 69.140625 m 1
 406.408203125 388.743164062 l 1
 392.79296875 449.66015625 375.598632812 477 313.897460938 477 c 0
 252.216796875 477 210.0234375 385.881835938 210.0234375 274.883789062 c 0
 210.0234375 132.408203125 256.676757812 38.87109375 322.037109375 38.87109375 c 0
 353.590820312 38.87109375 377.0703125 45.75390625 406.408203125 69.140625 c 1
EndSplineSet
EndChar

StartChar: f
Encoding: 102 102 11
GlifName: f
Width: 591
VWidth: 0
Flags: W
HStem: 0 32.7627<80.8809 113.801 299.244 332.004> 448.57 56.084<70.3311 117.104 296.303 414.29> 721.104 45.085<319.581 401.313>
VStem: 117.093 173.124<36.3612 452.249 504.654 646.272>
LayerCount: 2
Fore
SplineSet
379.24609375 766.188476562 m 4
 442.682617188 766.188476562 507 750 547.506835938 683.662109375 c 4
 550.2421875 679.182617188 553.280273438 669.145507812 553.280273438 664.142578125 c 4
 553.280273438 639.611328125 522.1953125 608.627929688 482.756835938 608.627929688 c 4
 394.78515625 608.627929688 430.370117188 721.103515625 368.694335938 721.103515625 c 4
 314.6015625 721.103515625 290.216796875 676.162109375 290.216796875 585.43359375 c 5
 290.71875 504.654296875 l 5
 379.596679688 504.654296875 l 4
 402.313476562 504.654296875 416.928710938 499.587890625 416.928710938 485.530273438 c 4
 416.928710938 478.765625 411.12890625 453.9140625 408.444335938 448.5703125 c 5
 402.682617188 448.5703125 l 4
 396.415039062 448.5703125 343.076171875 451.99609375 296.302734375 452.385742188 c 5
 295.833007812 57.48046875 l 5
 298.221679688 45.798828125 309.670898438 32.962890625 325.095703125 32.7626953125 c 6
 332.00390625 32.673828125 l 5
 332.00390625 0 l 5
 80.880859375 0 l 5
 80.880859375 32.66796875 l 5
 87.7880859375 32.7568359375 l 6
 103.43359375 32.95703125 114.913085938 46.423828125 117.107421875 57.7568359375 c 5
 117.107421875 452.249023438 l 5
 80.7880859375 451.396484375 77.0341796875 449.260742188 62 447.1015625 c 5
 70.3310546875 500.703125 l 5
 117.104492188 500.703125 l 5
 117.099609375 512.75390625 117.092773438 543.11328125 117.092773438 556 c 4
 117.092773438 704.11328125 254.974609375 766.188476562 379.24609375 766.188476562 c 4
EndSplineSet
EndChar

StartChar: j
Encoding: 106 106 12
GlifName: j
Width: 352
VWidth: 0
Flags: W
HStem: -153.523 79.9092<-13.2127 90.2825> 443.783 26.2842<78.7646 108.805> 485.725 20G<271.15 278.845> 549.884 188.725<128.38 251.254>
VStem: 93.2314 193.172<585.989 702.503> 112.586 173.697<-43.5209 443.398>
LayerCount: 2
Fore
SplineSet
189.81640625 549.883789062 m 4xf8
 136.475585938 549.883789062 93.2314453125 592.1328125 93.2314453125 644.245117188 c 4
 93.2314453125 696.358398438 136.474609375 738.608398438 189.81640625 738.608398438 c 4
 243.157226562 738.608398438 286.403320312 696.358398438 286.403320312 644.245117188 c 4
 286.403320312 592.1328125 243.157226562 549.883789062 189.81640625 549.883789062 c 4xf8
272 505.724609375 m 0
 285.689453125 505.724609375 286.344726562 493.1015625 286.3828125 483.030273438 c 2
 286.283203125 93.279296875 l 0
 286.236328125 78.7939453125 286.161132812 64.3193359375 286.161132812 49.869140625 c 0
 286.161132812 -3.158203125 283 -38 219.596679688 -91.70703125 c 0
 161.911132812 -140.571289062 73.771484375 -153.5234375 -6 -153.5234375 c 0
 -28.4501953125 -153.5234375 -58.2626953125 -148.948242188 -82.9755859375 -140.634765625 c 0
 -93.6005859375 -137.060546875 -104.956054688 -114.887695312 -104.956054688 -101 c 0
 -104.956054688 -72.0107421875 -60.59765625 -49.2392578125 -32 -49.2392578125 c 0
 3.1953125 -49.2392578125 18.0966796875 -73.6142578125 43 -73.6142578125 c 0
 51.0927734375 -73.6142578125 59.2718456517 -70.9351191252 69.5888671875 -66.7080078125 c 0
 111.294921875 -49.6201171875 112.5859375 -14.2802734375 112.5859375 52.640625 c 0
 112.5859375 412.813476562 l 2xf4
 112.5859375 432.999023438 102.368164062 443.783203125 85.7646484375 443.783203125 c 2
 78.7646484375 443.783203125 l 1
 78.7646484375 470.067382812 l 1
 267.543945312 505.04296875 l 0
 268.859375 505.4140625 270.30078125 505.724609375 272 505.724609375 c 0
EndSplineSet
EndChar

StartChar: g
Encoding: 103 103 13
GlifName: g
Width: 604
VWidth: 0
Flags: W
HStem: -242.607 40.6562<232.748 362.139> -2.86035 116.206<135.673 196.174> 407.532 96.9277<488.771 549.351> 453.089 46.9785<245.737 320.876>
VStem: 30.126 168.97<-171.93 -81.342> 60.7754 153.266<208.733 397.286> 358.938 154.392<192.138 402.869> 418.966 151.188<-138.967 -54.1339>
LayerCount: 2
Fore
SplineSet
290.616210938 -201.951171875 m 0xc9
 366.048828125 -201.951171875 418.965820312 -149.182617188 418.965820312 -99.951171875 c 4
 418.965820312 -50.3232421875 366.693359375 -29.3310546875 307.529296875 -26.4501953125 c 1
 303.594726562 -26.3134765625 278.295898438 -24.8359375 274.944335938 -24.599609375 c 1
 219.05859375 -42.5712890625 199.095703125 -80.953125 199.095703125 -120.655273438 c 0
 199.095703125 -167.890625 246.399414062 -201.951171875 290.616210938 -201.951171875 c 0xc9
214.041015625 319.599609375 m 0xd6
 214.041015625 216.461914062 253.436523438 152.16015625 299.3125 152.16015625 c 0
 341.978515625 152.16015625 358.9375 228.315429688 358.9375 298.330078125 c 0
 358.9375 390.123046875 325.4140625 453.088867188 275.643554688 453.088867188 c 3
 245.854492188 453.088867188 214.041015625 382.651367188 214.041015625 319.599609375 c 0xd6
513.329101562 296.172851562 m 0
 513.329101562 124.466796875 391.333984375 102.1328125 270.603515625 66.8349609375 c 0
 266.431640625 65.615234375 259.943359375 60.537109375 259.943359375 56.1103515625 c 0
 259.943359375 49.6767578125 270.943359375 45.69140625 275.627929688 44.9931640625 c 0
 289 43 302.854492188 40.9267578125 313.180664062 39.9267578125 c 1
 383.354492188 30.5283203125 l 2
 482.309570312 21.3359375 570.154296875 13.8310546875 570.154296875 -72.9111328125 c 0
 570.154296875 -186.103515625 405.875976562 -242.607421875 280.28125 -242.607421875 c 0
 174.596679688 -242.607421875 30.1259765625 -224.12890625 30.1259765625 -135.368164062 c 0xe9
 30.1259765625 -59.6240234375 127.888671875 -30.6728515625 197.305664062 -10.9765625 c 1
 173.075195312 -8.6064453125 154.796875 -5.912109375 139.759765625 -2.8603515625 c 0
 111.017578125 2.8134765625 74.78125 15.3935546875 74.78125 41.1318359375 c 0
 74.78125 79.8955078125 162.16796875 101.176757812 207.682617188 113.345703125 c 1
 134.35546875 128.987304688 60.775390625 184.803710938 60.775390625 312.190429688 c 0
 60.775390625 429.479492188 157.877929688 485.88671875 244.62109375 497.923828125 c 0
 258.176757812 499.8203125 272.2578125 500.067382812 285.607421875 500.067382812 c 0xd4
 327.247070312 500.067382812 397.791015625 489.750976562 432.404296875 466.489257812 c 1
 463.926757812 485.61328125 476.893554688 504.459960938 535.98828125 504.459960938 c 0
 552.154296875 504.459960938 564.459960938 491.39453125 564.459960938 476.147460938 c 0
 564.459960938 435.529296875 540.409179688 407.532226562 499.538085938 407.532226562 c 0xe4
 496.529296875 407.532226562 489.685546875 407.862304688 488.209960938 407.990234375 c 1
 506 385 513.329101562 352.01171875 513.329101562 296.172851562 c 0
EndSplineSet
EndChar

StartChar: q
Encoding: 113 113 14
GlifName: q
Width: 631
VWidth: 0
Flags: W
HStem: -232 33.4697<375.92 408.904 581.157 613.941> -13.1143 51.126<260.654 385.513> 470.217 41.5898<263.123 363.682>
VStem: 25.9961 165.548<139.478 376.397> 412.046 165.727<-197.235 20.7559 58.0765 402.296>
LayerCount: 2
Fore
SplineSet
191.543945312 274.395507812 m 4
 191.543945312 153.192382812 234.258789062 38.01171875 314.158203125 38.01171875 c 4
 341.51953125 38.01171875 380.02734375 46.3505859375 412.045898438 73.0859375 c 5
 412.1953125 399.908203125 l 4
 412.1953125 401.364257812 411.952148438 402.279296875 411.946289062 402.297851562 c 5
 380.58203125 435.724609375 352.83984375 470.216796875 311.676757812 470.216796875 c 4
 271.645507812 470.216796875 191.543945312 421.654296875 191.543945312 274.395507812 c 4
413.099609375 480 m 5
 557.751953125 508.21875 l 6
 560.831054688 509.123046875 562.984375 509.770507812 565 509.770507812 c 4
 577.668945312 509.770507812 577.869140625 494.7265625 577.869140625 485.615234375 c 4
 577.772460938 -173.32421875 l 5
 580.15234375 -185.255859375 591.452148438 -198.228515625 607.03515625 -198.438476562 c 6
 613.94140625 -198.530273438 l 5
 613.94140625 -232 l 5
 375.919921875 -232 l 5
 375.919921875 -198.530273438 l 5
 383.234375 -198.438476562 l 6
 399.55859375 -198.23046875 409.828125 -184.802734375 412.044921875 -173.016601562 c 5
 412.044921875 20.755859375 l 5
 374.60546875 4.0546875 348.174804688 -13.1142578125 301.327148438 -13.1142578125 c 4
 151.94140625 -13.1142578125 25.99609375 76.931640625 25.99609375 249.760742188 c 4
 25.99609375 438.352539062 131.598632812 511.806640625 295.149414062 511.806640625 c 4
 333.9609375 511.806640625 369.936523438 499.319335938 413.099609375 480 c 5
EndSplineSet
EndChar

StartChar: p
Encoding: 112 112 15
GlifName: p
Width: 639
VWidth: 0
Flags: W
HStem: -232 32.4697<33 65.6349 236.523 269.111> -12.7969 43.7861<271.232 367.342> 444.2 30.9619<35.4092 66.6729> 458.146 53.917<254.742 369.861>
VStem: 69.2266 163.728<-197.867 12 72.9826 436.729> 428.152 161.021<117.651 367.488>
LayerCount: 2
Fore
SplineSet
232.954101562 -174.317382812 m 1xdc
 235.370117188 -186.44140625 247.661132812 -199.233398438 263.77734375 -199.438476562 c 2
 269.111328125 -199.530273438 l 1
 269.111328125 -232 l 1
 33 -232 l 1
 33 -199.530273438 l 1
 39.90625 -199.438476562 l 2
 55.72265625 -199.224609375 67.0322265625 -185.611328125 69.2265625 -174.021484375 c 1
 69.2265625 413.516601562 l 2
 69.2265625 434.505859375 59.2646484375 444.200195312 42.4091796875 444.200195312 c 2
 35.4091796875 444.200195312 l 1
 35.4091796875 475.162109375 l 1xec
 215.307617188 512.74609375 l 0
 217.010742188 513.200195312 219.620117188 513.366210938 221 513.366210938 c 0
 232.767578125 513.366210938 233.01171875 493.946289062 233.048828125 484.129882812 c 0
 233.048828125 484.748046875 233.047851562 485.4140625 233.046875 486 c 1
 266.876953125 499.77734375 283.912109375 512.063476562 333.046875 512.063476562 c 0
 468.123046875 512.063476562 589.172851562 432.14453125 589.172851562 249.924804688 c 0
 589.172851562 64.689453125 504.995117188 -12.796875 335.932617188 -12.796875 c 0
 298.321289062 -12.796875 274.883789062 -7.6015625 232.982421875 12 c 1
 232.954101562 -174.317382812 l 1xdc
314.818359375 458.146484375 m 0xdc
 285.872070312 458.146484375 260.967773438 440.6640625 233.041015625 423.397460938 c 1
 232.997070312 118.895507812 l 1
 246.631835938 69.6025390625 281.729492188 30.9892578125 319.139648438 30.9892578125 c 0
 372.453125 30.9892578125 428.15234375 109.162109375 428.15234375 225.716796875 c 0
 428.15234375 380.362304688 383.609375 458.146484375 314.818359375 458.146484375 c 0xdc
EndSplineSet
EndChar

StartChar: o
Encoding: 111 111 16
GlifName: o
Width: 617
VWidth: 0
Flags: W
HStem: -10.3389 55.7676<261.706 365.201> 471.658 40.7676<257.539 352.473>
VStem: 34.9424 170.295<131.892 377.46> 412.789 170.292<123.84 366.87>
LayerCount: 2
Fore
SplineSet
313 -10.3388671875 m 0
 152.30859375 -10.3388671875 34.9423828125 62.8125 34.9423828125 253.924804688 c 0
 34.9423828125 439.155273438 142.747070312 512.42578125 303 512.42578125 c 0
 452.145507812 512.42578125 583.081054688 438.779296875 583.081054688 253.849609375 c 0
 583.081054688 57.7431640625 476.943359375 -10.3388671875 313 -10.3388671875 c 0
205.237304688 275.40234375 m 0
 205.237304688 134.356445312 236.274414062 45.4287109375 320.291992188 45.4287109375 c 0
 388.56640625 45.4287109375 412.7890625 153.397460938 412.7890625 235.68359375 c 0
 412.7890625 376.959960938 379.736328125 471.658203125 299.734375 471.658203125 c 0
 240.556640625 471.658203125 205.237304688 381.979492188 205.237304688 275.40234375 c 0
EndSplineSet
EndChar

StartChar: I
Encoding: 73 73 17
GlifName: I_
Width: 425
VWidth: 0
Flags: W
HStem: 0 33.3838<64 67.8564 320.748 365.006> 696.021 33.5889<64.3916 108.859 322.382 364.397>
VStem: 117.987 191.928<41.9191 686.375>
LayerCount: 2
Fore
SplineSet
364.397460938 729.609375 m 1
 364.397460938 729.609375 368.391601562 722.056640625 368.391601562 713.3046875 c 0
 368.391601562 705.3046875 364.397460938 696.3046875 364.397460938 696.3046875 c 1
 356.08984375 696.020507812 l 2
 345.296875 695.651367188 313.412109375 680.2578125 312.772460938 662.740234375 c 0
 310.743164062 568.51953125 309.915039062 487.962890625 309.915039062 393.458007812 c 0
 309.915039062 280.80078125 311.0859375 181.833007812 312.77734375 69.12109375 c 0
 313.463867188 50.5126953125 333 34 357.09375 33.3837890625 c 2
 365.005859375 33.3046875 l 1
 365.005859375 33.3046875 369 25.751953125 369 17 c 0
 369 9 365.005859375 0 365.005859375 0 c 1
 64 0 l 1
 64 0 60 8.248046875 60 17 c 0
 60 25 64 33 64 33 c 1
 67.8564453125 33.3837890625 l 2
 92 35 115.950195312 50.16015625 115.950195312 68.984375 c 0
 117.202148438 182.008789062 117.987304688 280.73828125 117.987304688 393.458007812 c 0
 117.987304688 487.686523438 117.454101562 567.719726562 116.194335938 661.885742188 c 0
 116.194335938 680.045898438 94.9296875 695.142578125 71.8603515625 696.020507812 c 2
 64.3916015625 696.3046875 l 1
 64.3916015625 696.3046875 60.3916015625 704.552734375 60.3916015625 713.3046875 c 0
 60.3916015625 721.3046875 64.3916015625 729.3046875 64.3916015625 729.3046875 c 1
 364.397460938 729.609375 l 1
EndSplineSet
EndChar

StartChar: y
Encoding: 121 121 18
GlifName: y
Width: 635
VWidth: 0
Flags: W
HStem: 474.334 32.1807<36 63.3379 253.093 283.244 441.229 475.388 594.643 604.852>
LayerCount: 2
Fore
SplineSet
390.26953125 59.275390625 m 4
 372.936523438 20.23828125 336.008789062 -31.015625 323.755859375 -50.484375 c 4
 300.959960938 -87.6337890625 187.93359375 -231.118164062 123 -231.118164062 c 4
 86.2421875 -231.118164062 73.431640625 -200.823242188 73.431640625 -191 c 4
 73.431640625 -182.70703125 74.681640625 -163.9375 77.443359375 -156.548828125 c 4
 98.427734375 -100.404296875 150 -135 188.79296875 -80.1494140625 c 4
 202.224609375 -61.158203125 229.712890625 -5.7900390625 237.224609375 13.826171875 c 5
 234.390625 21.6318359375 228.333007812 43.490234375 227.443359375 45.73046875 c 4
 227.443359375 45.73046875 183.482421875 154.24609375 139.879882812 271.165039062 c 4
 104.034179688 367.283203125 65.97265625 452.586914062 65.2568359375 454.302734375 c 4
 62.259765625 461.041992188 55.5751953125 475.557617188 36 475.557617188 c 5
 36 506.514648438 l 5
 283.244140625 506.514648438 l 5
 283.244140625 474.42578125 l 5
 277.337890625 474.333984375 l 6
 265.924804688 474.15625 253.083984375 465.70703125 253.083984375 458.431640625 c 4
 253.083984375 455.600585938 254.670898438 448.982421875 256.173828125 444.717773438 c 4
 256.173828125 444.717773438 286.081054688 375.416015625 317.083007812 294.42578125 c 4
 341.698242188 230.12109375 353.443359375 215.279296875 367 181 c 5
 383.333007812 218.76171875 390.334960938 225.991210938 419.6015625 293.577148438 c 4
 452.78515625 370.208984375 474.973632812 427.926757812 475 428 c 4
 476.934570312 433.091796875 479.03125 444.213867188 479.03125 447.51953125 c 4
 479.03125 456.127929688 468.591796875 474.201171875 449.135742188 474.461914062 c 6
 441.228515625 474.553710938 l 5
 441.228515625 506.85546875 l 5
 604.8515625 506.85546875 l 5
 604.8515625 474.928710938 l 5
 594.642578125 474.240234375 l 6
 582.325195312 473.409179688 573.322265625 457.216796875 570 448 c 4
 569.165039062 445.681640625 538.53125 382.899414062 499.733398438 289.6953125 c 4
 466.369140625 209.544921875 417.185546875 119.895507812 390.26953125 59.275390625 c 4
EndSplineSet
EndChar

StartChar: v
Encoding: 118 118 19
GlifName: v
Width: 624
VWidth: 0
Flags: W
HStem: -9 21G<276.122 286.843> 478.199 28.6562<38 61.6795 247.052 274.057 420.694 448.483 554.013 579.851>
LayerCount: 2
Fore
SplineSet
420.694335938 506.627929688 m 5
 579.850585938 506.627929688 l 5
 579.850585938 478 l 5
 572.966796875 478 l 6
 557.915039062 477.418945312 552.737304688 461.209960938 548 451 c 4
 546.8671875 448.0546875 519.959960938 402.569335938 469.7265625 310.036132812 c 4
 398.55859375 178.940429688 313.063476562 13.75390625 307.637695312 3.8037109375 c 4
 303.529296875 -3.7333984375 292.487304688 -9 281.19921875 -9 c 4
 271.044921875 -9 259.602539062 -4.6298828125 255.561523438 4.240234375 c 4
 250.393554688 15.599609375 244.40234375 29.994140625 240.512695312 40.294921875 c 5
 240.5 40.3291015625 183.625 171.684570312 135.879882812 291.984375 c 4
 97.3349609375 389.103515625 69.1142578125 446.709960938 69 447 c 4
 62.962890625 461.643554688 58.798828125 478.19921875 38 478.19921875 c 5
 38 506.85546875 l 5
 274.056640625 506.85546875 l 5
 274.056640625 478 l 5
 266.72265625 478 l 6
 250.685546875 478 245.541992188 463.692382812 245.541992188 456.1015625 c 4
 245.541992188 452.650390625 246.82421875 447.318359375 249 442 c 4
 249.026367188 441.935546875 254.856445312 418.701171875 285.466796875 337.702148438 c 4
 309.951171875 272.9140625 317.458007812 253.611328125 331 218 c 5
 351.776367188 254.663085938 363.661132812 273.038085938 398.29296875 338.853515625 c 4
 437.213867188 412.8203125 449.9609375 444.88671875 450 445 c 4
 450.979492188 447.82421875 451.452148438 450.403320312 451.452148438 452.729492188 c 4
 451.452148438 462.689453125 442.77734375 478 428.029296875 478 c 6
 420.694335938 478 l 5
 420.694335938 506.627929688 l 5
EndSplineSet
EndChar

StartChar: u
Encoding: 117 117 20
GlifName: u
Width: 640
VWidth: 0
Flags: W
HStem: -10 49.3203<257.034 370.707> 441.444 29.5303<35 64.012 361.711 390.162> 488.746 20G<218.204 225.326 545.307 552.316>
VStem: 68.7461 163.795<67.7501 440.44> 394.656 164.097<62.3328 441.043>
LayerCount: 2
Fore
SplineSet
595.180664062 62.919921875 m 1
 601.659179688 20.6796875 l 1
 571.0078125 7.318359375 543.0234375 -7.88671875 493.12890625 -7.88671875 c 0
 462.568359375 -7.88671875 414.978515625 13.021484375 414.690429688 23.3603515625 c 1
 368.588867188 -5.9443359375 351.377929688 -10 287.453125 -10 c 0
 165.715820312 -10 68.74609375 40.138671875 68.74609375 140.537109375 c 0
 68.8203125 406.057617188 l 2
 68.8203125 426.185546875 58.5810546875 440.958007812 42 440.958007812 c 2
 35 440.958007812 l 1
 35 470.37890625 l 1
 215.076171875 508.219726562 l 0
 216.154296875 508.477539062 217.407226562 508.74609375 219 508.74609375 c 0
 231.651367188 508.74609375 232.642578125 495.735351562 232.642578125 485.25390625 c 0
 232.541015625 156.024414062 l 0
 232.541015625 89.955078125 247.133789062 39.3203125 302.220703125 39.3203125 c 0
 330.069335938 39.3203125 362.081054688 50.283203125 394.65625 78.3720703125 c 1
 395.556640625 405.62109375 l 2
 395.55078125 425.86328125 383.243164062 441.444335938 369.129882812 441.444335938 c 2
 361.7109375 441.444335938 l 1
 361.7109375 470.974609375 l 1
 542.52734375 509.28125 l 0
 543.499023438 509.471679688 544.614257812 509.666015625 546 509.666015625 c 0
 558.6328125 509.666015625 558.813476562 496.971679688 558.813476562 486.193359375 c 0
 558.752929688 54.6181640625 l 1
 570.178710938 56.8701171875 584.380859375 59.814453125 595.180664062 62.919921875 c 1
EndSplineSet
EndChar

StartChar: n
Encoding: 110 110 21
GlifName: n
Width: 658
VWidth: 0
Flags: W
HStem: 0 32.5977<37 69.6083 249.449 283.077 383.32 416.199 585.951 618.441> 445.516 30.0195<39.4092 70.6653> 457.017 55.3193<268.391 385.084>
VStem: 73.2285 173.682<33.8882 435.024> 419.704 162.728<33.912 420.418>
LayerCount: 2
Fore
SplineSet
246.91015625 55.3642578125 m 1xb8
 249.303710938 43.7275390625 260.771484375 32.8984375 276.170898438 32.69921875 c 2
 283.077148438 32.609375 l 1
 283.077148438 0 l 1
 37 0 l 1
 37 32.59765625 l 1
 43.90625 32.6875 l 2
 59.5439453125 32.890625 71.033203125 46.341796875 73.228515625 57.662109375 c 1
 73.228515625 415.091796875 l 2
 73.228515625 435.943359375 63.2158203125 445.515625 46.4091796875 445.515625 c 2
 39.4091796875 445.515625 l 1
 39.4091796875 475.53515625 l 1xd8
 228.331054688 513.081054688 l 0
 228.829101562 513.208007812 230.845703125 514 234 514 c 0
 244.983398438 514 247.001953125 503.516601562 247.001953125 489.446289062 c 0
 247.001953125 483.801757812 247 483.819335938 246.998046875 478.392578125 c 1
 286.577148438 504.037109375 319.52734375 512.3359375 377.740234375 512.3359375 c 0
 485.374023438 512.3359375 582.499023438 459.078125 582.499023438 349.12890625 c 0
 582.431640625 56.75 l 1
 584.993164062 45.75390625 596.537109375 32.962890625 611.53515625 32.7685546875 c 2
 618.44140625 32.6787109375 l 1
 618.44140625 0 l 1
 383.3203125 0 l 1
 383.3203125 32.609375 l 1
 390.2265625 32.69921875 l 2
 406.3984375 32.9091796875 417.646484375 46.322265625 419.704101562 58.583984375 c 1
 419.704101562 338.345703125 l 0
 419.704101562 404.395507812 383.565429688 457.016601562 346.399414062 457.016601562 c 0
 315.225585938 457.016601562 286.084960938 448.833007812 246.990234375 421.680664062 c 1
 246.91015625 55.3642578125 l 1xb8
EndSplineSet
EndChar

StartChar: b
Encoding: 98 98 22
GlifName: b
Width: 649
VWidth: 0
Flags: W
HStem: -3.78906 37.8643<31 64.7714 291.996 378.821> 461.08 50.9219<261.045 378.8> 685.34 25.9609<33.4092 63.541> 727.506 20G<227.311 234.384>
VStem: 67.2266 173.787<83.0631 442.685 478.947 684.979> 437.152 175.021<121.102 371.467>
LayerCount: 2
Fore
SplineSet
241.048828125 721.268554688 m 4
 241.013671875 478.947265625 l 5
 274.85546875 499.849609375 306.89453125 512.001953125 356.046875 512.001953125 c 4
 504.333984375 512.001953125 612.172851562 430.873046875 612.172851562 244.9453125 c 4
 612.172851562 57.814453125 505.450195312 -10.15625 339.685546875 -10.15625 c 4
 299.075195312 -10.15625 272.140625 2.4794921875 230.078125 26.0859375 c 5
 208.944335938 6.98046875 94.23828125 -3.7890625 38 -3.7890625 c 4
 31 -3.7890625 l 5
 31 34.0751953125 l 5
 37.9072265625 34.1650390625 l 6
 53.5947265625 34.3681640625 65.0244140625 47.8720703125 67.2265625 59.265625 c 5
 67.2265625 653.993164062 l 6
 67.2265625 675.34765625 57.392578125 685.33984375 40.4091796875 685.33984375 c 6
 33.4091796875 685.33984375 l 5
 33.4091796875 711.30078125 l 5
 223.307617188 746.885742188 l 4
 225.01171875 747.33984375 226.62109375 747.505859375 228 747.505859375 c 4
 240.767578125 747.505859375 241.01171875 731.0859375 241.048828125 721.268554688 c 4
241.0078125 427.318359375 m 5
 240.961914062 134.934570312 l 5
 256.588867188 76.59375 283.68359375 39.927734375 342.139648438 39.927734375 c 4
 402.453125 39.927734375 437.15234375 122.1015625 437.15234375 228.655273438 c 4
 437.15234375 365.973632812 406.569335938 461.080078125 321.756835938 461.080078125 c 4
 291.067382812 461.080078125 270.500976562 449.389648438 241.0078125 427.318359375 c 5
EndSplineSet
EndChar

StartChar: h
Encoding: 104 104 23
GlifName: h
Width: 659
VWidth: 0
Flags: W
HStem: 0 32.8584<46 78.7885 259.341 292.342 381.862 414.856 584.986 618.001> 463.364 48.5703<278.092 394.32> 679.56 29.9609<48.498 79.5188> 725.729 20G<242.277 249.375>
VStem: 82.3184 173.722<34.1608 441.504 478.479 679.199> 418.131 163.728<33.9212 424.409>
LayerCount: 2
Fore
SplineSet
256.040039062 58.0869140625 m 1
 258.244140625 45.787109375 269.631835938 32.9013671875 285.434570312 32.6962890625 c 2
 292.341796875 32.6083984375 l 1
 292.341796875 0 l 1
 46 0 l 1
 46 32.8583984375 l 1
 52.9072265625 32.9482421875 l 2
 68.8857421875 33.15234375 80.24609375 46.71484375 82.318359375 58.55859375 c 1
 82.318359375 648.212890625 l 2
 82.318359375 669.565429688 72.482421875 679.559570312 55.498046875 679.559570312 c 2
 48.498046875 679.559570312 l 1
 48.498046875 709.520507812 l 1
 238.397460938 745.10546875 l 0
 239.999023438 745.532226562 241.553710938 745.728515625 243 745.728515625 c 0
 255.749023438 745.728515625 256.100585938 727.454101562 256.138671875 717.48828125 c 0
 256.103515625 478.478515625 l 1
 294.668945312 502.579101562 320.791015625 511.934570312 371.1640625 511.934570312 c 0
 468.80078125 511.934570312 581.92578125 458.676757812 581.92578125 348.729492188 c 0
 581.858398438 57.34765625 l 1
 584.28125 45.8037109375 595.748046875 32.966796875 611.09375 32.7705078125 c 2
 618.000976562 32.681640625 l 1
 618.000976562 0 l 1
 381.862304688 0 l 1
 381.862304688 32.6083984375 l 1
 388.76953125 32.6962890625 l 2
 404.533203125 32.900390625 415.989257812 46.375 418.130859375 57.892578125 c 1
 418.130859375 347.8984375 l 0
 418.130859375 413.997070312 403.48828125 463.364257812 341.2890625 463.364257812 c 0
 312.399414062 463.364257812 300.073242188 455.375 256.096679688 428.139648438 c 1
 256.040039062 58.0869140625 l 1
EndSplineSet
EndChar

StartChar: t
Encoding: 116 116 24
GlifName: t
Width: 400
VWidth: 0
Flags: W
HStem: -10.1855 44.3867<254.176 376.14> 463.534 46.2412<272.766 375.112>
VStem: 109.079 163.631<53.6606 459.698>
LayerCount: 2
Fore
SplineSet
374.120117188 39.2939453125 m 5
 381.470703125 1.6904296875 l 5
 361.877929688 -4.685546875 319.78515625 -10.185546875 279 -10.185546875 c 4
 229.3515625 -10.185546875 166.548828125 -0.42578125 142.071289062 24.0498046875 c 4
 111.166992188 54.9521484375 109.274414062 111.658203125 109.079101562 168.751953125 c 5
 109.0546875 266.174804688 108.96484375 343.619140625 108.940429688 439.131835938 c 4
 108.9375 454.5859375 104.327148438 457.9453125 95.2412109375 459.78515625 c 4
 91.4443359375 460.553710938 52.64453125 460.884765625 45.5458984375 462.159179688 c 4
 40.453125 463.073242188 36.0322265625 468.041992188 36.0322265625 478 c 4
 36.0322265625 484.313476562 49.5693359375 493.724609375 66 503 c 4
 109.3984375 527.499023438 180.250976562 545.137695312 215.7109375 577.012695312 c 4
 220.116210938 580.97265625 233.157226562 591.791015625 246 591.791015625 c 4
 261.192382812 591.791015625 272.775390625 578.823242188 272.775390625 563.875976562 c 4
 272.775390625 545.518554688 272.767578125 528.067382812 272.765625 509.775390625 c 5
 310.140625 510.083984375 333.079101562 510.66796875 345 510.66796875 c 4
 363.87890625 510.66796875 375.186523438 499.2890625 375.186523438 486 c 4
 375.186523438 480.48046875 371.032226562 466.474609375 368.577148438 462.6015625 c 5
 362 462.6015625 l 4
 353.803710938 462.6015625 327.081054688 463.534179688 287 463.534179688 c 4
 282.168945312 463.534179688 277.1640625 463.517578125 272.758789062 463.4921875 c 5
 272.75 409.466796875 272.71875 349.849609375 272.709960938 295.983398438 c 4
 272.709960938 163.771484375 l 4
 272.709960938 138.76171875 273.4296875 93.107421875 278.711914062 77.4365234375 c 4
 289.350585938 45.875 319.408203125 34.201171875 346 34.201171875 c 4
 354.25 34.201171875 365.436523438 36.814453125 374.120117188 39.2939453125 c 5
EndSplineSet
EndChar

StartChar: z
Encoding: 122 122 25
GlifName: z
Width: 588
VWidth: 0
Flags: W
HStem: -0.420898 75.2393<261.129 511.523> 440.105 61.4209<89.5091 94.3174 94.3591 340.795>
VStem: 58.29 29.2578<423.899 437.738>
LayerCount: 2
Fore
SplineSet
228.955078125 501.526367188 m 0
 318.823242188 501.526367188 534.904296875 504.078125 536.091796875 504.078125 c 3
 547.364257812 504.078125 551.434570312 495.0703125 551.434570312 488.69921875 c 0
 551.434570312 485.375976562 549.317382812 475.751953125 545.8125 471.73046875 c 0
 540.065429688 465.138671875 465.646484375 348.400390625 390.337890625 249.955078125 c 0
 329.77734375 170.7890625 286.870117188 106.635742188 261.12890625 75.5205078125 c 1
 291.045898438 75.0458984375 311.059570312 74.818359375 353.981445312 74.818359375 c 0
 422.787109375 74.818359375 450.102539062 75.4521484375 497.216796875 76.6826171875 c 0
 502.301757812 76.814453125 502.646484375 76.1513671875 505.860351562 80.453125 c 0
 508.251953125 83.654296875 511.525390625 90.513671875 511.525390625 90.513671875 c 1
 515.021484375 99.818359375 l 1
 543.544921875 88.93359375 l 1
 521.356445312 0.0107421875 l 1
 321.171875 -0.4208984375 l 1
 38.4462890625 -1.0771484375 l 2
 25.8984375 -1.0771484375 21 11.44140625 21 18.1982421875 c 3
 21 24.2216796875 27.1650390625 35.1357421875 32.0400390625 40.4619140625 c 0
 72.0146484375 84.1337890625 140.900390625 185.061523438 214.638671875 277.1015625 c 0
 272.952148438 349.887695312 315.657226562 407.381835938 340.794921875 440.004882812 c 1
 325.573242188 440.08203125 311.799804688 440.10546875 294.704101562 440.10546875 c 0
 197.383789062 440.10546875 128.244140625 439.046875 107.517578125 439.046875 c 0
 93.96484375 438.930664062 90.994140625 420.044921875 87.5478515625 413.811523438 c 1
 58.2900390625 427.071289062 l 1
 79.2890625 503.048828125 l 1
 94.3173828125 502.96484375 l 1
 94.3173828125 502.96484375 151.533203125 501.526367188 228.955078125 501.526367188 c 0
EndSplineSet
EndChar

StartChar: l
Encoding: 108 108 26
GlifName: l
Width: 330
VWidth: 0
Flags: W
HStem: 0 32.8799<40 72.6137 253.357 286.123> 700.916 29.9609<42.4092 73.4274>
VStem: 76.2266 173.728<34.1742 700.556>
LayerCount: 2
Fore
SplineSet
249.954101562 57.8564453125 m 5
 252.341796875 46.0966796875 263.740234375 33.2158203125 279.215820312 33.015625 c 6
 286.123046875 32.92578125 l 5
 286.123046875 0 l 5
 40 0 l 5
 40 32.8798828125 l 5
 46.9072265625 32.9697265625 l 6
 62.6025390625 33.169921875 74.0263671875 46.6796875 76.2265625 58.076171875 c 5
 76.2265625 669.5703125 l 6
 76.2265625 690.927734375 66.392578125 700.916015625 49.4091796875 700.916015625 c 6
 42.4091796875 700.916015625 l 5
 42.4091796875 730.876953125 l 5
 232.307617188 768.4609375 l 4
 234.010742188 768.915039062 235.620117188 769.081054688 237 769.081054688 c 4
 249.767578125 769.081054688 250.01171875 751.661132812 250.048828125 741.84375 c 4
 249.954101562 57.8564453125 l 5
EndSplineSet
EndChar

StartChar: r
Encoding: 114 114 27
GlifName: r
Width: 490
VWidth: 0
Flags: W
HStem: 0 32.6387<34 66.6122 247.542 279.856> 408.11 98.8027<292.633 384.327> 446.604 29.1934<36.4092 68.1339>
VStem: 70.2285 173.775<34.0191 389.03>
LayerCount: 2
Fore
SplineSet
371.397460938 506.913085938 m 7xd0
 397.255859375 506.913085938 467.734375 497.712890625 467.734375 458.06640625 c 4
 467.734375 407.977539062 430.57421875 359.288085938 391.485351562 359.288085938 c 4
 353.418945312 359.288085938 341.345703125 408.110351562 317.16015625 408.110351562 c 4xd0
 283.141601562 408.110351562 253.48046875 383.541992188 244.00390625 363.146484375 c 5
 243.932617188 57.2783203125 l 5
 246.409179688 46.2470703125 259.073242188 32.7783203125 271.783203125 32.638671875 c 6
 279.856445312 32.5498046875 l 5
 279.856445312 0 l 5
 34 0 l 5
 34 32.6865234375 l 5
 40.9072265625 32.775390625 l 6
 56.5634765625 32.9755859375 68.03515625 46.443359375 70.228515625 57.7919921875 c 5
 70.228515625 418.708984375 l 6
 70.228515625 438.83203125 59.9873046875 446.603515625 43.4091796875 446.603515625 c 6
 36.4091796875 446.603515625 l 5
 36.4091796875 475.796875 l 5xb0
 226.1875 512.67578125 l 4
 227.909179688 513.162109375 229.555664062 513.353515625 231 513.353515625 c 4
 243.767578125 513.353515625 244.02734375 498.857421875 244.02734375 489.084960938 c 4
 244.018554688 446.984375 l 5
 278.836914062 477.384765625 310.90234375 506.913085938 371.397460938 506.913085938 c 7xd0
EndSplineSet
EndChar

StartChar: k
Encoding: 107 107 28
GlifName: k
Width: 681
VWidth: 0
Flags: W
HStem: 0 33<51 83.8281 264.311 297 380 405.521 603.362 644> 473 33.5146<381.534 405.614 536.045 587> 688 19.3994<53 81.581> 725.612 20G<245.748 254.03>
VStem: 87 174<34.103 203.997 343.004 687.652>
LayerCount: 2
Fore
SplineSet
261 722 m 0
 261 363.862304688 l 2
 261.767578125 348.038085938 267.244140625 343 272 343 c 0
 277.452148438 343 288 351.171875 354.700195312 398.020507812 c 1
 404.340820312 432.2578125 405.620117188 447.010742188 405.620117188 457.697265625 c 3
 405.620117188 468.391601562 397.021484375 473 387.151367188 473 c 2
 381.534179688 473 l 1
 381.534179688 506.514648438 l 1
 587 506.514648438 l 1
 587 473 l 1
 580 473 l 0
 561.708984375 473 543.840820312 461.701171875 534.130859375 454.991210938 c 0
 495.360351562 428.19921875 476.963867188 388.684570312 382 318 c 1
 387.1953125 305.041015625 407.494140625 286.864257812 474.088867188 208.611328125 c 1
 546.600585938 117.443359375 572.53125 89.7177734375 586.599609375 70.3681640625 c 0
 602.1875 48.9287109375 614.114257812 33 637 33 c 2
 644 33 l 1
 644 0 l 1
 380 0 l 1
 380 33 l 1
 387 33 l 2
 395.229492188 33 406 42.134765625 406 53 c 0
 406 80.0859375 302.422851562 204 275 204 c 0
 270.990234375 204 263.262695312 200.358398438 261 199.315429688 c 1
 261 57.41796875 l 1
 264.05078125 46.33984375 274.318359375 33 290 33 c 2
 297 33 l 1
 297 0 l 1
 51 0 l 1
 51 33 l 1
 58 33 l 2
 74.74609375 33 85.31640625 47.171875 87 58.0673828125 c 1
 87 654 l 2
 87 678.494140625 78.3701171875 688 60 688 c 2
 53 688 l 1
 53 707.399414062 l 1
 232.081054688 742.733398438 l 1
 235.626953125 743.82421875 243.495117188 745.612304688 248 745.612304688 c 0
 260.059570312 745.612304688 261 734.622070312 261 722 c 0
EndSplineSet
EndChar

StartChar: e
Encoding: 101 101 29
GlifName: e
Width: 615
VWidth: 0
Flags: W
HStem: -10.7041 54.1553<315.77 464.905> 302.634 58.9072<253.44 423.457> 469.908 41.7734<294.834 388.595>
VStem: 40.9697 191.794<142.141 301.854>
LayerCount: 2
Fore
SplineSet
580.5625 301.552734375 m 5
 239.734375 302.633789062 l 5
 235.021484375 282.66796875 232.763671875 262.174804688 232.763671875 241.86328125 c 4
 232.763671875 138.287109375 301.469726562 43.451171875 372.584960938 43.451171875 c 4
 429.436523438 43.451171875 497.595703125 72.7529296875 547.427734375 117.305664062 c 5
 570.692382812 85.9365234375 l 5
 517.30859375 25.830078125 475.025390625 -10.7041015625 350.416992188 -10.7041015625 c 4
 168.186523438 -10.7041015625 40.9697265625 70.8994140625 40.9697265625 256.025390625 c 4
 40.9697265625 427.750976562 171.015625 511.681640625 343.467773438 511.681640625 c 4
 484.500976562 511.681640625 581.477539062 415.131835938 581.477539062 318.471679688 c 4
 581.477539062 311.51171875 581.016601562 308.26171875 580.5625 301.552734375 c 5
342.680664062 469.908203125 m 4
 292.543945312 469.908203125 257.934570312 411.553710938 251.829101562 368.622070312 c 5
 286.407226562 364.982421875 307.389648438 361.541015625 338.875 361.541015625 c 4
 371.442382812 361.541015625 396.196289062 362.75 424.794921875 364.7109375 c 5
 420.1484375 423.439453125 384.889648438 469.908203125 342.680664062 469.908203125 c 4
EndSplineSet
EndChar

StartChar: c
Encoding: 99 99 30
GlifName: c
Width: 582
VWidth: 0
Flags: W
HStem: -10 54<288.386 452.122> 478.075 34.7822<290.493 369.939>
VStem: 43.002 172.055<144.257 365.957>
LayerCount: 2
Fore
SplineSet
521.546875 115.926757812 m 1
 549.797851562 76.580078125 l 1
 490.96484375 19.06640625 429.288085938 -10 308.654296875 -10 c 0
 181.303710938 -10 43.001953125 61.6201171875 43.001953125 265.7109375 c 0
 43.001953125 359.693359375 100.870117188 512.857421875 324.243164062 512.857421875 c 0
 384.069335938 512.857421875 489.497070312 495.875 544.001953125 430.65625 c 0
 547.527116036 426.43815601 550.5234375 421.7109375 550.5234375 416 c 0
 550.5234375 388.041992188 501.751953125 353.485351562 479 353.485351562 c 0
 395.715820312 353.485351562 401.008789062 478.075195312 333.03125 478.075195312 c 0
 273.911132812 478.075195312 215.056640625 393.786132812 215.056640625 278.515625 c 0
 215.056640625 187.3203125 245.889648438 44 345 44 c 0
 421.58984375 44 467.043945312 60.6240234375 521.546875 115.926757812 c 1
EndSplineSet
EndChar

StartChar: a
Encoding: 97 97 31
GlifName: a
Width: 598
VWidth: 0
Flags: W
HStem: -10 65.042<179.674 318.293> 262.732 64.0234<293.479 346.028> 463.978 47.8223<240.898 328.685>
VStem: 37.8691 173.47<75.7028 176.93> 346.028 173.942<69.3107 262.732 319.372 426.314>
LayerCount: 2
Fore
SplineSet
556.56640625 62.171875 m 5
 559.754882812 20.90625 l 5
 529.377929688 7.666015625 475.05859375 -6.6083984375 439.348632812 -6.6083984375 c 4
 405.297851562 -6.6083984375 356.349609375 22.75390625 350.924804688 32.5 c 5
 303.120117188 2.7119140625 296.845703125 -10 230.068359375 -10 c 4
 129.280273438 -10 37.869140625 10.521484375 37.869140625 110.493164062 c 4
 37.869140625 230.020507812 220.114257812 288.721679688 351.1484375 326.755859375 c 5
 350.716796875 350.688476562 347.002929688 376.024414062 346.375976562 389.978515625 c 4
 344.088867188 440.875976562 322.2109375 463.977539062 282.133789062 463.977539062 c 4
 218.400390625 463.977539062 222.830078125 351.975585938 129 351.975585938 c 4
 100.567382812 351.975585938 67.7119140625 389.293945312 67.7119140625 416 c 4
 67.7119140625 421.852539062 71.8330078125 433.435546875 75.1865234375 437.13671875 c 4
 138.873046875 507.416992188 231.75390625 511.799804688 290.344726562 511.799804688 c 4
 449.546875 511.799804688 519.970703125 427.487304688 519.970703125 363.698242188 c 4
 519.970703125 53.8203125 l 5
 531.458007812 56.083984375 545.712890625 59.0498046875 556.56640625 62.171875 c 5
274.4296875 55.0419921875 m 4
 304.909179688 55.0419921875 314.189453125 60.3662109375 346.028320312 85.2919921875 c 5
 346.028320312 262.732421875 l 5
 243 230 211.338867188 184.32421875 211.338867188 135 c 4
 211.338867188 87.9248046875 241.458007812 55.0419921875 274.4296875 55.0419921875 c 4
EndSplineSet
EndChar

StartChar: i
Encoding: 105 105 32
GlifName: i
Width: 375
VWidth: 0
Flags: W
HStem: 0 32.7695<67 99.9227 280.346 313.101> 442.613 30.1875<69.4092 100.885> 489.353 20G<263.28 270.384> 549.884 188.725<119.38 242.254>
VStem: 84.2314 193.172<585.989 702.503> 103.229 173.799<33.9694 442.295>
LayerCount: 2
Fore
SplineSet
180.81640625 549.883789062 m 0xf8
 127.475585938 549.883789062 84.2314453125 592.1328125 84.2314453125 644.245117188 c 0
 84.2314453125 696.358398438 127.474609375 738.608398438 180.81640625 738.608398438 c 0
 234.157226562 738.608398438 277.403320312 696.358398438 277.403320312 644.245117188 c 0
 277.403320312 592.1328125 234.157226562 549.883789062 180.81640625 549.883789062 c 0xf8
276.932617188 57.4765625 m 5
 279.32421875 45.806640625 290.776367188 32.966796875 306.193359375 32.76953125 c 6
 313.100585938 32.6806640625 l 5
 313.100585938 0 l 5
 67 0 l 5
 67 32.6796875 l 5
 73.9072265625 32.7685546875 l 6
 89.5615234375 32.96875 101.034179688 46.4365234375 103.228515625 57.78125 c 5
 103.228515625 413.723632812 l 6
 103.228515625 433.84375 92.9853515625 442.61328125 76.4091796875 442.61328125 c 6
 69.4091796875 442.61328125 l 5
 69.4091796875 472.80078125 l 5
 259.1875 508.674804688 l 4
 260.912109375 509.162109375 262.559570312 509.352539062 264 509.352539062 c 4
 276.767578125 509.352539062 276.989257812 495.244140625 277.02734375 485.733398438 c 4xf4
 276.932617188 57.4765625 l 5
EndSplineSet
EndChar

StartChar: period
Encoding: 46 46 33
GlifName: period
Width: 268
VWidth: 0
Flags: W
HStem: -18 188.725<70.6408 193.514>
VStem: 35.4922 193.172<18.1047 134.619>
LayerCount: 2
Fore
SplineSet
132.077148438 -18 m 4
 78.736328125 -18 35.4921875 24.2490234375 35.4921875 76.361328125 c 4
 35.4921875 128.474609375 78.7353515625 170.724609375 132.077148438 170.724609375 c 4
 185.41796875 170.724609375 228.6640625 128.474609375 228.6640625 76.361328125 c 4
 228.6640625 24.2490234375 185.41796875 -18 132.077148438 -18 c 4
EndSplineSet
EndChar

StartChar: comma
Encoding: 44 44 34
GlifName: comma
Width: 233
VWidth: 0
Flags: W
HStem: -100.75 33.7686<28.5303 70.3011>
VStem: 31.4443 181.099<23.3723 124.163>
LayerCount: 2
Fore
SplineSet
31.4443359375 70.904296875 m 0
 31.4443359375 116.467773438 74.6640625 158.109375 123.106445312 158.109375 c 0
 173.540039062 158.109375 212.54296875 115.765625 212.54296875 75.126953125 c 0
 212.54296875 73.71875 l 2
 212.54296875 -57.7666015625 146.478515625 -100.75 28.5302734375 -100.75 c 1
 7.154296875 -66.9814453125 l 1
 38.4755859375 -66.9814453125 92.3046875 -56.1591796875 92.3046875 -20.5498046875 c 0
 92.3046875 -15.76171875 89.927734375 -11.1220703125 83.580078125 -5.1015625 c 1
 59.6865234375 16.28515625 31.4443359375 26.4638671875 31.4443359375 70.904296875 c 0
EndSplineSet
EndChar

StartChar: D
Encoding: 68 68 35
GlifName: D_
Width: 875
VWidth: 0
Flags: W
HStem: 0 45<323.237 478.98> 0 33<64 110.666> 680 50<324 473.822> 697 33<64 111>
VStem: 119 205<69.2806 679.626> 605 193<221.474 490.529>
LayerCount: 2
Fore
SplineSet
64 697 m 1x5c
 64 697 60 704 60 713 c 0
 60 721 64 730 64 730 c 1
 112 730 226 730 278 730 c 0
 334 731 364 731 418 731 c 0
 619 731 798 602 798 359 c 0
 798 120 639 -3 405 -3 c 0
 361 -3 320 0 263 0 c 2
 64 0 l 1
 64 0 60 8 60 17 c 0
 60 25 64 33 64 33 c 1
 71 33 l 0
 79 33 86 34 94 36 c 0
 110 39 116 59 116 68 c 1
 118 185 119 285 119 401 c 0
 119 493 118 570 116 663 c 1
 116 671 110 692 94 695 c 0
 84 697 75 697 64 697 c 1x5c
324 673 m 0
 324 660 l 2
 324 455 323 69 323 69 c 1
 323 69 325 46 333 45 c 0
 370 46 354 46 391 46 c 0
 547 46 605 193 605 353 c 0
 605 612 477 680 397 680 c 0
 387 680 375 680 355 680 c 0
 345 680 329 680 329 680 c 1xac
 325 680 324 676 324 673 c 0
EndSplineSet
EndChar

StartChar: N
Encoding: 78 78 36
GlifName: N_
Width: 881
VWidth: 0
Flags: W
HStem: -8.99023 21G<739.254 750.325> 0 32.9463<54 60.9062 212.637 256.397> 698 32<55 97.1491 619 626.299 777.91 821>
VStem: 106.24 95.5918<40.5294 547.279> 672.066 93.6855<308.81 689.706>
LayerCount: 2
Fore
SplineSet
54 0 m 1x78
 54 0 49.3916015625 8.552734375 49.3916015625 17.3046875 c 0
 49.3916015625 25.3046875 54 33 54 33 c 1
 60.90625 33.3837890625 l 2
 86 35 106.240234375 50.2265625 106.240234375 70.455078125 c 2
 107.873046875 398.75 l 1
 106.2578125 659.939453125 l 2
 105.995117188 679.90625 86 698 60.9091796875 698.022460938 c 2
 55 698 l 1
 55 698 50.3916015625 705.552734375 50.3916015625 714.3046875 c 0
 50.3916015625 722.3046875 55 730 55 730 c 1
 268.1328125 730 l 1
 672.06640625 308.809570312 l 1
 672.06640625 478.893554688 671.750976562 488.719726562 671.750976562 661.008789062 c 0
 671.750976562 679.828125 646.948242188 695.935546875 626.298828125 697.4609375 c 2
 619 698 l 1
 619 698 614.391601562 705.552734375 614.391601562 714.3046875 c 0
 614.391601562 722.3046875 619 730 619 730 c 1
 821 730 l 1
 821 730 824.391601562 723.056640625 824.391601562 714.3046875 c 0
 824.391601562 706.3046875 821 698 821 698 c 1
 813.979492188 698.015625 l 2
 791 698 769.54296875 680.438476562 768.361328125 662.905273438 c 0
 766.4765625 570.365234375 765.751953125 492.911132812 765.751953125 400.250976562 c 0
 765.751953125 269.145507812 767.233398438 145.0625 769 13.748046875 c 1
 769 0.728515625 756.650390625 -8.990234375 744 -8.990234375 c 0xb8
 734.508789062 -8.990234375 722.626953125 -4.626953125 720 -2 c 2
 714 5 l 0
 530.467773438 211.897460938 388.653320312 344.021484375 202.829101562 547.279296875 c 5
 202.790039062 497.42578125 201.778320312 450.641601562 201.778320312 402 c 4
 201.778320312 301.999023438 201.83203125 274.05859375 201.83203125 174 c 0
 201.83203125 138.436523438 202.825195312 104.422851562 203.806640625 69.123046875 c 0
 204.317382812 50.7568359375 225 34 249.038085938 32.9462890625 c 2
 256.397460938 32.609375 l 1
 256.397460938 32.609375 260.391601562 26.056640625 260.391601562 17.3046875 c 0
 260.391601562 9.3046875 257 0 257 0 c 1
 54 0 l 1x78
EndSplineSet
EndChar

StartChar: L
Encoding: 76 76 37
GlifName: L_
Width: 669
VWidth: 0
Flags: W
HStem: 0 33<56 100.252 314.722 485.027> 697 33<57 100.902 314.342 358>
VStem: 111.116 191.845<43.4365 689.019>
LayerCount: 2
Fore
SplineSet
358.046875 730 m 1
 358.046875 730 361.391601562 723.056640625 361.391601562 714.3046875 c 0
 361.391601562 706.3046875 358 697 358 697 c 1
 351.13671875 697.047851562 l 2
 334 697 306.100585938 682.981445312 305.82421875 661.887695312 c 0
 303.807617188 570.193359375 302.9609375 492.500976562 302.9609375 400.638671875 c 0
 304.662109375 286.883789062 303.890625 187.12109375 305.663085938 73.0849609375 c 1
 305.663085938 63.2802734375 311.515625 44.171875 328.51953125 42.279296875 c 0
 349.508789062 39.9423828125 359.854492188 39 380.623046875 39 c 1
 445.279296875 39.3427734375 445.366210938 39.9267578125 488.993164062 49.9990234375 c 0
 548.141601562 64.296875 573.015625 98.896484375 585.145507812 157.43359375 c 0
 586.23046875 162.670898438 l 1
 619.962890625 164.50390625 l 1
 601.201171875 0 l 1
 56 0 l 1
 56 0 51.3916015625 8.552734375 51.3916015625 17.3046875 c 0
 51.3916015625 25.3046875 56 33 56 33 c 1
 63.9248046875 33.3837890625 l 2
 89 35 109.241210938 50.7421875 109.241210938 71.5234375 c 0
 110.899414062 187.627929688 111.116210938 286.466796875 111.116210938 402.288085938 c 0
 111.116210938 493.94921875 110.30078125 569.908203125 109.244140625 662.470703125 c 0
 109.048828125 679.619140625 87 697 63.91015625 697.020507812 c 2
 57 697 l 1
 57 697 52.3916015625 705.552734375 52.3916015625 714.3046875 c 0
 52.3916015625 722.3046875 57 730 57 730 c 1
 358.046875 730 l 1
EndSplineSet
EndChar

StartChar: M
Encoding: 77 77 38
GlifName: M_
Width: 888
VWidth: 0
Flags: W
HStem: 0 33.9463<40 47.1846 184.2 228.397 559 604.102 805.053 850> 697 33<59 102.827 805.537 850>
VStem: 91.5234 84.5693<40.245 241.475> 111.536 82.6152<417.737 513.842> 613.732 180.876<41.3376 519.321>
LayerCount: 2
Fore
SplineSet
850.12890625 729.998046875 m 5xd8
 850.12890625 729.998046875 853.391601562 723.056640625 853.391601562 714.3046875 c 4
 853.391601562 706.3046875 850 697 850 697 c 5
 843.213867188 697.020507812 l 6
 820 697 798.00390625 681.323242188 797.907226562 662.873046875 c 4
 797.096679688 601.801757812 794.676757812 555.086914062 794.676757812 494.520507812 c 4
 794.676757812 451.72265625 794.608398438 409.123046875 794.608398438 366.6640625 c 4
 794.608398438 262.076171875 795.024414062 172.336914062 797.909179688 68.57421875 c 4
 798.294921875 50.1376953125 819.971679688 33.669921875 843.21875 33.3837890625 c 6
 850.131835938 33.298828125 l 5
 850.131835938 33.298828125 853.391601562 26.056640625 853.391601562 17.3046875 c 4
 853.391601562 9.3046875 850 0 850 0 c 5
 559 0 l 5
 559 0 554.391601562 8.552734375 554.391601562 17.3046875 c 4
 554.391601562 25.3046875 559 34 559 34 c 5
 566.98828125 33.9462890625 l 6
 591 34 611.047851562 50.873046875 611.333984375 69.6259765625 c 4
 612.313476562 133.846679688 613.724609375 184.041992188 613.724609375 248 c 4
 613.724609375 328.92578125 613.732421875 342.956054688 613.732421875 425 c 4
 613.732421875 456.795898438 613.666015625 488.654296875 613.495117188 519.321289062 c 5
 425.305664062 173.829101562 l 5
 422.087890625 167.670898438 412.383789062 153.276367188 401.993164062 153.276367188 c 4
 394.793945312 153.276367188 389.693359375 158.755859375 386.129882812 165.999023438 c 4
 386.129882812 165.999023438 243.4765625 410.631835938 194.151367188 513.841796875 c 5xd8
 176.092773438 69.0693359375 l 5
 177.827148438 50.4072265625 197.197265625 35.1064453125 221.377929688 33.9462890625 c 6
 228.397460938 33.609375 l 5
 228.397460938 33.609375 232.391601562 26.056640625 232.391601562 17.3046875 c 4
 232.391601562 9.3046875 229 0 229 0 c 5
 39 0 l 5
 39 0 34.3916015625 8.552734375 34.3916015625 17.3046875 c 4
 34.3916015625 25.3046875 40 34 40 34 c 5
 47.1845703125 34.3837890625 l 6
 72 36 90.7060546875 50.154296875 91.5234375 70.6875 c 4xe8
 99.6416015625 274.61328125 106.75 452.241210938 111.536132812 659.08203125 c 5
 111.538085938 659.361328125 111.538085938 659.7890625 111.538085938 660.078125 c 4
 111.538085938 679.17578125 90 697 66.1875 697.022460938 c 6
 59 697 l 5
 59 697 54.3916015625 705.552734375 54.3916015625 714.3046875 c 4
 54.3916015625 722.3046875 59 730 59 730 c 5
 294.640625 730 l 5
 454.70703125 420.252929688 l 5
 616.948242188 729.998046875 l 5
 850.12890625 729.998046875 l 5xd8
EndSplineSet
EndChar

StartChar: slash
Encoding: 47 47 39
GlifName: slash
Width: 448
VWidth: 0
Flags: W
LayerCount: 2
Fore
SplineSet
39.42578125 -93.5966796875 m 2
 141.358398438 185.219726562 213.290039062 416.998046875 285.259765625 673.888671875 c 0
 285.881835938 676.109375 l 1
 287.702148438 677.525390625 l 0
 306.461914062 692.116210938 339.727539062 703 354 703 c 0
 370.056640625 703 415 688.849609375 415 672 c 0
 415 670.795898438 l 1
 414.59765625 669.66015625 l 0
 327.23046875 423.265625 185.627929688 -39.1708984375 180.87109375 -54.478515625 c 1
 173.458007812 -108.025390625 77.9169921875 -91.408203125 48.4775390625 -102.546875 c 0
 34.1748046875 -107.958984375 l 1
 39.42578125 -93.5966796875 l 2
EndSplineSet
EndChar

StartChar: S
Encoding: 83 83 40
GlifName: S_
Width: 621
VWidth: 0
Flags: W
HStem: -9.56348 68.0068<226.281 357.862> 687.885 54.4453<311.845 440.987>
VStem: 86.5469 184.135<527.752 634.222> 399.308 181.501<116.219 239.402>
LayerCount: 2
Fore
SplineSet
149.043945312 208.3203125 m 1
 154.727539062 158.765625 204.362304688 58.443359375 292.37109375 58.443359375 c 0
 353.67578125 58.443359375 399.307617188 101.716796875 399.307617188 174.490234375 c 0
 399.307617188 248.498046875 325.27734375 295.260742188 237.2109375 345.998046875 c 0
 144.44921875 399.440429688 86.546875 475.96484375 86.546875 558.513671875 c 0
 86.546875 650.10546875 174.591796875 742.330078125 334.258789062 742.330078125 c 0
 423.71875 742.330078125 547.370117188 717.271484375 547.370117188 686 c 0
 547.370117188 669.71484375 525.745117188 585.8984375 504 585.8984375 c 0
 473.294921875 585.8984375 480.184570312 687.884765625 369.271484375 687.884765625 c 0
 313.01171875 687.884765625 270.681640625 633.635742188 270.681640625 584.477539062 c 0
 270.681640625 516.303710938 345.860351562 476.044921875 432.65234375 427.26953125 c 0
 538.294921875 366.634765625 580.80859375 304.59375 580.80859375 214.552734375 c 0
 580.80859375 66.5849609375 464.811523438 -9.5634765625 317.998046875 -9.5634765625 c 0
 165.95703125 -9.5634765625 58.001953125 74.9794921875 58.001953125 123 c 0
 58.001953125 148.665039062 110.67578125 219.002929688 136 219.002929688 c 0
 139.349609375 219.002929688 148.1015625 217.380859375 149.043945312 208.3203125 c 1
EndSplineSet
EndChar

StartChar: T
Encoding: 84 84 41
GlifName: T_
Width: 759
VWidth: 0
Flags: W
HStem: 0 33<239 271.833 496.06 539.397> 683.114 46.8857<129.06 274.363 487.92 659.18>
VStem: 58 35.9531<590.339 640.117> 293.023 192.003<40.2631 681.734> 676.169 32.7305<589.981 660.805>
LayerCount: 2
Fore
SplineSet
540 0 m 1
 239 0 l 1
 239 0 234.391601562 8.552734375 234.391601562 17.3046875 c 0
 234.391601562 25.3046875 239 33 239 33 c 1
 246.004882812 33.2841796875 l 0
 258.364257812 33.439453125 263.037109375 34.3623046875 272.26171875 39.314453125 c 0
 286.427734375 46.9189453125 290.024414062 59.048828125 290.142578125 68.0576171875 c 0
 291.5390625 132.842773438 293.0234375 264.541992188 293.0234375 329.220703125 c 3
 293.0234375 467.991210938 291.791015625 513.668945312 291.534179688 652.8984375 c 0
 291.534179688 668.685546875 285.635742188 680.237304688 274.63671875 681.815429688 c 0
 268.87890625 682.641601562 257.482421875 683.114257812 243.635742188 683.114257812 c 0
 208.80859375 683.114257812 192.4296875 680.118164062 163.298828125 675.104492188 c 0
 121.048828125 667.721679688 103.326171875 640.477539062 93.953125 590.315429688 c 1
 58 590.338867188 l 1
 77.2841796875 727.470703125 l 1
 77.3984375 727.880859375 l 0
 79.1357421875 734.109375 85.2607421875 735.953125 89.140625 735.953125 c 0
 97.06640625 735.953125 106.72265625 732.861328125 113.200195312 732.763671875 c 0
 150.03515625 732.20703125 267.833984375 730 394.189453125 730 c 1
 505.100585938 730.999023438 590.114257812 732.755859375 679.889648438 734.752929688 c 0
 683.140625 734.825195312 697.814453125 737.774414062 704.51171875 737.774414062 c 0
 709.46875 737.774414062 713.140625 737.12109375 713.140625 725.883789062 c 1
 708.899414062 589.981445312 l 1
 676.168945312 589.764648438 l 1
 676.016601562 625.19921875 668.038085938 669.8984375 637.67578125 677.145507812 c 0
 615.245117188 682.5 623.197265625 682.758789062 561.921875 682.758789062 c 0
 544.0859375 682.758789062 528.495117188 682.333984375 509.612304688 681.956054688 c 0
 494.529296875 681.654296875 487.94140625 670.017578125 487.821289062 659.188476562 c 0
 486.094726562 544.836914062 485.026367188 442.541992188 485.026367188 328.3828125 c 3
 485.026367188 236.970703125 485.85546875 159.717773438 487.881835938 68.46875 c 1
 488.006835938 58.91796875 496.037109375 43.744140625 512.155273438 37.546875 c 0
 519.245117188 34.8212890625 525.286132812 33.38671875 533.23046875 33.2841796875 c 0
 539.397460938 32.609375 l 1
 539.397460938 32.609375 543.391601562 26.056640625 543.391601562 17.3046875 c 0
 543.391601562 9.3046875 540 0 540 0 c 1
EndSplineSet
EndChar

StartChar: Q
Encoding: 81 81 42
GlifName: Q_
Width: 918
VWidth: 0
Flags: W
HStem: -153.864 65.2461<548.013 690.195> 683.77 49.0391<373.516 540.368>
VStem: 65 193.326<217.803 476.223> 662.246 191.326<236.119 486.426>
LayerCount: 2
Fore
SplineSet
448.982421875 683.76953125 m 0
 276.6640625 683.76953125 258.326171875 438.814453125 258.326171875 380.296875 c 0
 258.326171875 71.1904296875 411.54296875 33.6669921875 466.181640625 33.6669921875 c 0
 557.459960938 33.6669921875 662.24609375 118.610351562 662.24609375 372.69921875 c 0
 662.24609375 517.133789062 612.104492188 683.76953125 448.982421875 683.76953125 c 0
456.302734375 732.80859375 m 0
 657.23828125 732.80859375 853.572265625 605.609375 853.572265625 356.807617188 c 0
 853.572265625 136.9921875 670.59765625 6.9990234375 514.734375 -13.2607421875 c 1
 523.951171875 -60.3271484375 550.96484375 -88.6181640625 659.802734375 -88.6181640625 c 0
 667.591796875 -88.6181640625 675.706054688 -88.416015625 684.154296875 -88.0087890625 c 0
 690.1953125 -87.7177734375 l 1
 701.96875 -149.419921875 l 1
 693.759765625 -150.138671875 l 0
 665.8984375 -152.578125 639.796875 -153.864257812 615.475585938 -153.864257812 c 0
 480.456054688 -153.864257812 365.033203125 -103.8046875 352 0 c 5
 235.3359375 17.33984375 65.000000988 103.336467142 65 348.01953125 c 0
 64.999998992 597.638671875 259.485351562 732.80859375 456.302734375 732.80859375 c 0
EndSplineSet
EndChar

StartChar: P
Encoding: 80 80 43
GlifName: P_
Width: 678
VWidth: 0
Flags: W
HStem: 0 33<37 44.0381 330.249 337.397> 274.9 55.0996<310.253 406.808> 683.888 48.1123<286.637 391.67> 697 33<37 80.9552>
VStem: 91.2793 192.246<41.9696 683.234> 469.653 162.734<405.492 605.792>
LayerCount: 2
Fore
SplineSet
337.397460938 32.609375 m 1xec
 337.397460938 32.609375 341.391601562 26.056640625 341.391601562 17.3046875 c 0
 341.391601562 9.3046875 338 0 338 0 c 1
 37 0 l 1
 37 0 32.3916015625 8.552734375 32.3916015625 17.3046875 c 0
 32.3916015625 25.3046875 37 33 37 33 c 1
 44.0380859375 33.3837890625 l 2
 67 35 89.373046875 50.6103515625 89.373046875 67.806640625 c 0
 90.97265625 184.919921875 91.279296875 284.684570312 91.279296875 400.326171875 c 0
 91.279296875 487.400390625 89.494140625 568.247070312 89.494140625 655.176757812 c 0
 89.494140625 683.556640625 66 697 45.0419921875 697.021484375 c 2
 37 697 l 1
 37 697 32.3916015625 705.552734375 32.3916015625 714.3046875 c 0
 32.3916015625 722.3046875 37 730 37 730 c 1xdc
 347.758789062 732 l 0
 507.401367188 732 632.387695312 671.052734375 632.387695312 503.467773438 c 0
 632.387695312 347.451171875 500.828125 274.900390625 370.137695312 274.900390625 c 0
 357.390625 274.900390625 345.76953125 275.51171875 333.39453125 276.7109375 c 0
 319.357421875 278.071289062 309.200195312 291.041015625 309.200195312 304 c 0
 309.200195312 315.53125 328.0390625 330 342.346679688 330 c 0
 404.850585938 330 469.653320312 377.768554688 469.653320312 515.353515625 c 0
 469.653320312 651.674804688 372.022460938 683.887695312 320.8828125 683.887695312 c 0
 286.63671875 683.887695312 l 1
 284.458984375 584.973632812 283.525390625 494.219726562 283.525390625 395.96484375 c 0
 283.525390625 281.893554688 284.66015625 181.737304688 286.504882812 67.4375 c 0
 286.702148438 49.740234375 309 36 330.249023438 33.3505859375 c 2
 337.397460938 32.609375 l 1xec
EndSplineSet
EndChar

StartChar: R
Encoding: 82 82 44
GlifName: R_
Width: 783
VWidth: 0
Flags: W
HStem: 0 32.9463<54 60.9062 311.077 354.05 733.656 740> 311.006 61.9941<299.992 335.952> 683.888 50.1123<303.031 398.886> 697.022 33.082<54 98.8658>
VStem: 108.146 191.423<40.8886 313.342 373.257 683.659> 461.53 172.726<453.132 616.45>
LayerCount: 2
Fore
SplineSet
740 0 m 1xec
 577 0 l 0
 526.712890625 0 500.397460938 63.7802734375 488.153320312 77.4677734375 c 0
 488.153320312 77.4677734375 333.173828125 293.288085938 320.87109375 311.005859375 c 1
 315.340820312 311.038085938 309.541015625 311.081054688 299.9921875 313.341796875 c 1
 302.829101562 67.505859375 l 2
 303.01171875 49.7666015625 324.7421875 33.3134765625 348.143554688 32.9462890625 c 2
 354.049804688 32.853515625 l 1
 354.049804688 32.853515625 358.391601562 26.056640625 358.391601562 17.3046875 c 0
 358.391601562 9.3046875 355 0 355 0 c 1
 54 0 l 1
 54 0 49.3916015625 8.552734375 49.3916015625 17.3046875 c 0
 49.3916015625 25.3046875 54 33 54 33 c 1
 60.90625 33.3837890625 l 2
 85 35 106.046875 50.095703125 106.2421875 68.5673828125 c 0
 107.838867188 185.212890625 108.145507812 287.8125 108.145507812 404.251953125 c 0
 108.145507812 490.012695312 106.362304688 568.548828125 106.362304688 654.177734375 c 0
 106.362304688 679.557617188 91 697 61.91015625 697.022460938 c 2
 54 697 l 1
 54 697 49.3916015625 705.552734375 49.3916015625 714.3046875 c 0
 49.3916015625 722.3046875 54 730 54 730 c 1
 62.1318359375 730.33203125 l 0
 70.7490234375 730.172851562 78.3720703125 730.104492188 87 730.104492188 c 0xdc
 150.796875 730.104492188 274.837890625 734 340.265625 734 c 0
 501.657226562 734 634.255859375 676.373046875 634.255859375 534.771484375 c 0
 634.255859375 431.076171875 576.38671875 352.008789062 486.90234375 329.102539062 c 1
 574.209960938 207.06640625 643.452148438 117.7109375 683.497070312 64.310546875 c 0
 697.575195312 45.5380859375 706 36 733.65625 34.0830078125 c 2
 740.397460938 33.609375 l 1
 740.397460938 33.609375 744.391601562 27.056640625 744.391601562 18.3046875 c 0
 744.391601562 10.3046875 740 0 740 0 c 1xec
299.568359375 408.34375 m 0
 299.568359375 398.552734375 299.57421875 381.799804688 299.6015625 373.256835938 c 1
 309.293945312 373.109375 314.666992188 373 324 373 c 0
 388.598632812 373 461.530273438 443.59765625 461.530273438 531.491210938 c 0
 461.530273438 630.219726562 392.756835938 683.887695312 339 683.887695312 c 0
 303.03125 683.887695312 l 1xec
 302.1015625 585.006835938 299.568359375 506.33203125 299.568359375 408.34375 c 0
EndSplineSet
EndChar

StartChar: U
Encoding: 85 85 45
GlifName: U_
Width: 815
VWidth: 0
Flags: W
HStem: -10.665 46.667<375.344 521.837> 699 31<42 48.7666 309.231 352.92 556.244 598.918 733.412 776>
VStem: 95.7393 202.326<170.868 691.014> 608.919 115.013<157.104 643.656 643.757 692.126>
LayerCount: 2
Fore
SplineSet
556.244140625 699.018554688 m 1
 556.244140625 699.018554688 552 705.248046875 552 714 c 0
 552 722 556 730 556 730 c 1
 776 730 l 1
 776 730 779 722.751953125 779 714 c 0
 779 706 776 699 776 699 c 1
 768.83203125 698.88671875 l 2
 749.921875 698.587890625 723.278320312 682.53515625 723.21875 664.16796875 c 0
 723.1953125 656.831054688 723.185546875 643.747070312 723.185546875 643.747070312 c 1
 723.185546875 643.747070312 723.931640625 518.928710938 723.931640625 456.4609375 c 0
 723.931640625 374.99609375 723.5625 312.677734375 722.850585938 278.514648438 c 0
 717.90234375 40.923828125 566.0859375 -10.6650390625 443.6875 -10.6650390625 c 0
 289.334960938 -10.6650390625 96.482421875 41.8203125 95.7392578125 291.442382812 c 2
 94.6005859375 661.946289062 l 2
 94.6005859375 682.73046875 71 697 48.7666015625 698.534179688 c 2
 42 699 l 1
 42 699 37.3916015625 705.552734375 37.3916015625 714.3046875 c 0
 37.3916015625 722.3046875 42 730 42 730 c 1
 352.919921875 730.004882812 l 1
 352.919921875 730.004882812 356.391601562 723.056640625 356.391601562 714.3046875 c 0
 356.391601562 706.3046875 353 699 353 699 c 1
 346.012695312 698.716796875 l 2
 321 698 301.075195312 683.649414062 300.716796875 662.11328125 c 0
 299.469726562 587.142578125 298.065429688 324.372070312 298.065429688 318.538085938 c 4
 298.065429688 107.192382812 351.248046875 36.001953125 448.458007812 36.001953125 c 0
 533.2265625 36.001953125 608.918945312 99.0439453125 608.918945312 304.530273438 c 0
 608.918945312 334.883789062 608.603515625 634.013671875 608.603515625 664.04296875 c 0
 608.603515625 681.490234375 586.021484375 698.630859375 563.151367188 698.928710938 c 2
 556.244140625 699.018554688 l 1
EndSplineSet
EndChar

StartChar: J
Encoding: 74 74 46
GlifName: J_
Width: 428
VWidth: 0
Flags: W
HStem: -180.214 42.5156<-62 2.57163> 697.305 32.6953<61.3916 105.451 317.883 361.397>
VStem: 114.29 193.1<-38.5896 690.012>
LayerCount: 2
Fore
SplineSet
362.046875 730 m 1
 362.046875 730 365.391601562 722.056640625 365.391601562 713.3046875 c 0
 365.391601562 705.3046875 361.397460938 697.3046875 361.397460938 697.3046875 c 5
 354.131835938 696.911132812 l 6
 331 696 310.139648438 680.928710938 309.82421875 662.620117188 c 4
 308.787109375 602.201171875 307.389648438 522.18359375 307.389648438 424.700195312 c 0
 307.389648438 248.86328125 309.53125 61.7353515625 310.196289062 39.5791015625 c 0
 309.662109375 -103.026367188 138.578125 -174.78515625 -62 -180.213867188 c 1
 -62 -137.698242188 l 1
 66.2392578125 -109.787109375 111.51171875 -67.3896484375 112.859375 87.3212890625 c 0
 113.098632812 114.798828125 114.290039062 296.1015625 114.290039062 466.247070312 c 0
 114.290039062 545.038085938 114.1328125 606.58984375 113.290039062 661.6875 c 4
 112.9921875 681.1484375 93 696 68.564453125 696.931640625 c 6
 61.3916015625 697.3046875 l 5
 61.3916015625 697.3046875 57.3916015625 705.552734375 57.3916015625 714.3046875 c 0
 57.3916015625 722.3046875 61 730 61 730 c 1
 362.046875 730 l 1
EndSplineSet
EndChar

StartChar: plus
Encoding: 43 43 47
GlifName: plus
Width: 446
VWidth: 0
Flags: W
HStem: 249 98<79.8643 173.676 273.006 381.226>
VStem: 174 98<130.528 248.986 347.265 443.326>
LayerCount: 2
Fore
SplineSet
272 145 m 4
 272 130.977539062 233.142578125 127 224 127 c 4
 215.368164062 127 174 130.409179688 174 145 c 4
 174 247 l 4
 174 247.72265625 173.720703125 248.715820312 173.609375 249 c 5
 79.8642578125 249 l 5
 78.7861328125 249.359375 l 4
 66.7568359375 253.369140625 62 289.216796875 62 300 c 4
 62 309.826171875 66.8525390625 347 81 347 c 4
 172 347 l 4
 173.33984375 347 173.67578125 347.255859375 173.67578125 347.255859375 c 5
 173.790039062 347.450195312 174 348.248046875 174 349 c 4
 174 444.044921875 l 5
 178.786132812 445.640625 l 4
 188.055664062 448.73046875 216.813476562 454 226 454 c 4
 235.219726562 454 262.56640625 448.54296875 269.130859375 445.260742188 c 4
 273 443.326171875 l 5
 273 348 l 4
 273 347.5703125 273.005859375 347 273.005859375 347 c 5
 368 347 l 4
 382.67578125 347 384 303.130859375 384 295 c 4
 384 288.265625 382.497070312 249 368 249 c 4
 272 249 l 4
 272 145 l 4
EndSplineSet
Validated: 1
EndChar

StartChar: B
Encoding: 66 66 48
GlifName: B_
Width: 729
VWidth: 0
Flags: W
HStem: -1.66699 43.9814<302.706 417.157> 0 34<54 97.9129> 358.477 44.6455<302.383 385.401> 685.924 48.0762<299.207 394.385> 697 33.1514<54 97.7658>
VStem: 106.242 195.775<43.5793 356.292 404.178 685.391> 453.991 175.265<483.557 624.208> 487.078 182.734<115.246 272.442>
LayerCount: 2
Fore
SplineSet
126.559570312 0 m 1048,0,-1
54 0 m 1,1,-1
 54 0 50 8.248046875 50 17 c 0,4,-1
 50 25 54 34 54 34 c 1,7,-1
 76.8251953125 34.6328125 106.017578125 47.3896484375 106.2421875 68.5673828125 c 0,10,-1
 107.829101562 184.55859375 109.146484375 286.502929688 109.146484375 402.290039062 c 0,13,-1
 109.146484375 488.706054688 106.362304688 570.8984375 106.362304688 657.177734375 c 0,16,-1
 106.362304688 681.376953125 86.7333984375 696.686523438 54 697 c 1,19,-1
 54 697 50 704.248046875 50 713 c 0,22,-1
 50 721 54 730 54 730 c 1,25,-1
 57.58203125 730.119140625 63.0556640625 730.151367188 68.71484375 730.151367188 c 0,28,-1
 75.5341796875 730.151367188 82.6240234375 730.104492188 87 730.104492188 c 0,31,-1
 150.796875 730.104492188 306.94140625 734 374.408203125 734 c 0,34,-1
 525.888671875 734 629.255859375 658.194335938 629.255859375 549.553710938 c 0,37,-1
 629.255859375 472.431640625 547.366210938 416.331054688 466.270507812 391 c 1,40,-1
 553.724609375 374.106445312 669.8125 308.243164062 669.8125 188.741210938 c 0,43,-1
 669.8125 49.2685546875 561.572265625 -1.6669921875 440.186523438 -1.6669921875 c 0,46,-1
 366.259765625 -1.6669921875 212.758789062 0 140.559570312 0 c 0,49,-1
 54 0 l 1,1,-1
487.078125 198.264648438 m 0,50,-1
 487.078125 305.607421875 399.413085938 357.693359375 316.153320312 358.4765625 c 1,53,-1
 302.3828125 356.291992188 l 1,54,-1
 302.017578125 70.9873046875 l 2,55,-1
 302.844726562 53.154296875 309.609375 43.6103515625 317.875 43.443359375 c 1,58,-1
 334.9453125 43.0048828125 321.627929688 42.314453125 338.635742188 42.314453125 c 0,61,-1
 431.043945312 42.314453125 487.078125 116.40625 487.078125 198.264648438 c 0,50,-1
320.245117188 403.122070312 m 0,64,-1
 380.770507812 403.122070312 453.991210938 463.391601562 453.991210938 548.590820312 c 0,67,-1
 453.991210938 628.049804688 391.888671875 685.923828125 331.790039062 685.923828125 c 0,70,-1
 315.622070312 685.923828125 310.983398438 683.6640625 310.067382812 683.627929688 c 0,73,-1
 300.388671875 683.241210938 300.102539062 672.118164062 299.20703125 664.064453125 c 1,76,-1
 300.494140625 519.555664062 l 0,77,-1
 300.92578125 404.177734375 l 1,78,-1
 315.130859375 403.750976562 307.272460938 403.122070312 320.245117188 403.122070312 c 0,64,-1
EndSplineSet
EndChar

StartChar: C
Encoding: 67 67 49
GlifName: C_
Width: 799
VWidth: 0
Flags: W
HStem: -10 56<388.938 566.511> 690.77 51.2314<381.663 570.066>
VStem: 45 203<225.082 487.1> 725.579 31.1055<452.365 510.394>
LayerCount: 2
Fore
SplineSet
473.3515625 742.000976562 m 0
 615.34375 742.000976562 676.116210938 657.255859375 701 657.255859375 c 0
 720.168945312 657.255859375 721.916992188 683.427734375 737.506835938 683.427734375 c 0
 744.176757812 683.427734375 753.845703125 676.545898438 753.999023438 665.139648438 c 0
 756.684570312 463.795898438 l 1
 756.333984375 458.896484375 748.397460938 452.322265625 742.036132812 452.322265625 c 0
 737.416015625 452.322265625 727.576171875 454.2265625 725.579101562 462.323242188 c 0
 701.114257812 561.456054688 631.583007812 690.76953125 458.883789062 690.76953125 c 0
 319.526367188 690.76953125 248 509.981445312 248 384.646484375 c 0
 248 102.612304688 396.673828125 46 469.984375 46 c 0
 625.329101562 46 712.795898438 183.2265625 719.366210938 198.103515625 c 1
 767.598632812 182.6640625 l 0
 767.032226562 181.059570312 693.920898438 -10 424.000976562 -10 c 0
 254.80859375 -10 45 53.6748046875 45 352.255859375 c 0
 45 552.173828125 173.037109375 742.000976562 473.3515625 742.000976562 c 0
EndSplineSet
EndChar

StartChar: E
Encoding: 69 69 50
GlifName: E_
Width: 627
VWidth: 0
Flags: W
HStem: 0 37<47 81.4991 302.161 482.35> 375 40<295.492 447.178> 693 37<47 96.195 320.974 443.503>
VStem: 99 199<40.2871 372.046 417.357 689.844> 460 21<315 351.431 434.86 474> 522 33<567 617.319> 556 34<109.685 163>
LayerCount: 2
Fore
SplineSet
47 697 m 1
 47 697 43 704 43 713 c 0
 43 721 47 730 47 730 c 1
 117 730 219 730 297 730 c 2
 537 730 l 1
 555 565 l 1
 522 567 l 1
 509 629 488 663 424 682 c 0
 391 692 399 693 369 693 c 0
 348 693 341 692 320 690 c 0
 305 688 298 669 298 662 c 0
 294 419 l 1
 326 417 347 415 378 415 c 0
 416 415 401 416 432 421 c 1
 452 427 458 450 460 474 c 1
 481 474 l 1
 481 315 l 1
 460 315 l 1
 456 339 451 363 428 369 c 1
 396 374 411 375 376 375 c 0
 344 375 323 372 294 370 c 1
 298 73 l 1
 298 63 304 42 321 40 c 0
 340 38 351 37 369 37 c 0
 435 37 417 38 461 48 c 0
 523 63 543 101 556 163 c 1
 590 165 l 1
 571 0 l 1
 47 0 l 1
 47 0 43 8 43 17 c 0
 43 25 47 35 47 35 c 1
 60 35 71.32421875 35.99609375 82 40 c 0
 98 46 99 60 99 70 c 0
 101 87 101 249 101 410 c 0
 101 535.963867188 99 626.866210938 99 652 c 1
 99 662 l 0
 99 671 92 692 76 695 c 0
 66 697 58 697 47 697 c 1
EndSplineSet
EndChar

StartChar: F
Encoding: 70 70 51
GlifName: F_
Width: 677
VWidth: 0
Flags: W
HStem: 0 34<68 95.6383 334.35 367> 355 37<315.321 476.533> 691.333 39<68 118.333 317.665 508.706>
VStem: 119.258 197.566<38.5529 353.067 396.159 661.759 661.857 687.596> 491.073 21.0479<295.025 330.367 415.706 454.521> 580.23 33.7324<567.662 619.76>
LayerCount: 2
Fore
SplineSet
367 0 m 1
 68 0 l 1
 68 0 64 8.248046875 64 17 c 0
 64 25 68 34 68 34 c 1
 75.91015625 34.3125 l 2
 84.0146484375 34.6787109375 88.5361328125 35.09765625 95.9853515625 36.5771484375 c 0
 112.149414062 39.7861328125 119.248046875 58.03125 119.2578125 67.41015625 c 0
 119.2578125 67.732421875 l 1
 119.2890625 68.0537109375 l 0
 120.969726562 85.3701171875 121.266601562 239.23046875 121.266601562 395.419921875 c 0
 121.266601562 526.375976562 120.241210938 661.857421875 120.241210938 661.857421875 c 2
 120.241210938 671.568359375 112.215820312 691.456054688 95.98046875 694.684570312 c 0
 84.87890625 696.892578125 80.7607421875 696.887695312 68 697 c 1
 68 697 64 704.248046875 64 713 c 0
 64 721 68 730 68 730 c 1
 595.201171875 730.333007812 l 1
 613.962890625 565.829101562 l 1
 580.23046875 567.662109375 l 1
 567.478515625 628.21875 546.823242188 665.387695312 484.958984375 680.340820312 c 0
 442.733398438 690.411132812 434.342773438 690.990234375 371.731445312 691.333007812 c 1
 350.9453125 691.333007812 360.586914062 690.393554688 339.578125 688.064453125 c 0
 323.176757812 686.247070312 316.69921875 675.540039062 316.69921875 665.387695312 c 1
 313.86328125 400.40234375 l 1
 345.2734375 395.223632812 357.15234375 392 387.946289062 392 c 0
 426.397460938 392 439.107421875 393.880859375 462.985351562 401.587890625 c 1
 482.119140625 406.140625 489.9375 430.885742188 491.32421875 454.520507812 c 1
 512.12109375 454.520507812 l 1
 512.12109375 295.025390625 l 1
 491.073242188 295.025390625 l 1
 486.897460938 318.278320312 481.229492188 343.314453125 458.532226562 348.610351562 c 1
 430.366210938 353.612304688 419.999023438 355 383.966796875 355 c 0
 351.350585938 355 339.30078125 353.35546875 311.564453125 350.041992188 c 1
 311.197265625 314.635742188 l 1
 316.82421875 71.4345703125 l 0
 316.942382812 62.4736328125 319.715820312 42.931640625 333.87890625 38.326171875 c 0
 344.002929688 35.0341796875 349.118164062 34.849609375 360.13671875 34.294921875 c 2
 367 34 l 1
 367 34 370 25.751953125 370 17 c 0
 370 9 367 0 367 0 c 1
370 17 m 1048
EndSplineSet
EndChar

StartChar: G
Encoding: 71 71 52
GlifName: G_
Width: 845
VWidth: 0
Flags: W
HStem: -10.0078 58.0078<378.29 540.66> 276 33<555 602.832 761.178 808> 688.77 53.2314<372.14 554.422>
VStem: 55 193<217.706 490.165> 611.058 140.942<117.056 271.861> 714.579 32.6025<451.997 511.197>
LayerCount: 2
Fore
SplineSet
555 276 m 5xf8
 555 276 552 284 552 292 c 4
 552 300.751953125 555 309 555 309 c 5
 808 309 l 5
 808 309 811 300.751953125 811 292 c 4
 811 284 808 276 808 276 c 5
 796.995117188 275.385742188 787.516601562 275.090820312 777.869140625 273.178710938 c 4
 761.830078125 269.999023438 755.922851562 249.900390625 755.60546875 240.165039062 c 6
 752 168.668945312 l 5xf8
 752 142.39453125 742.411132812 133.822265625 727.73046875 113.349609375 c 4
 688.251953125 58.298828125 601.2421875 -10.0078125 449.255859375 -10.0078125 c 4
 293.397460938 -10.0078125 55 52.60546875 55 352.255859375 c 0
 55 552.173828125 173.037109375 742.000976562 462.46484375 742.000976562 c 4
 613.970703125 742.000976562 664.736328125 658.255859375 690 658.255859375 c 4
 708.58984375 658.255859375 711.877929688 684.903320312 729 684.903320312 c 4
 735.9453125 684.903320312 744.134765625 675.331054688 744.374023438 665.631835938 c 5
 747.181640625 466.458984375 l 5
 746.724609375 459.561523438 737.700195312 451.991210938 731.048828125 451.991210938 c 4
 726.216796875 451.991210938 716.576171875 455.2265625 714.579101562 463.323242188 c 4xf4
 690.114257812 562.456054688 605.153320312 688.76953125 455.046875 688.76953125 c 4
 294.338867188 688.76953125 248 509.981445312 248 384.646484375 c 4
 248 92.7783203125 390.137695312 48 465.345703125 48 c 4
 547.092773438 48 611.057617188 117.681640625 611.057617188 171.828125 c 5
 608.48828125 240.504882812 l 6
 608.317382812 250.064453125 602.143554688 270.1484375 585.5625 273.322265625 c 4
 575.62890625 275.223632812 565.836914062 276.51953125 555 276 c 5xf8
552 292 m 1052
811 292 m 1052
EndSplineSet
EndChar

StartChar: K
Encoding: 75 75 53
GlifName: K_
Width: 730
VWidth: 0
Flags: W
HStem: 0 33<39 81.9744 332.264 339.397 449.264 474.467 684.086 723.264> 698 32<40.3916 81.2195 295.684 340 421 461.401 595.682 642>
VStem: 91.2637 197<39.657 312.69 460.321 691.185>
LayerCount: 2
Fore
SplineSet
723.263671875 33 m 1
 723.263671875 33 727.391601562 26.056640625 727.391601562 17.3046875 c 0
 727.391601562 9.3046875 724 0 724 0 c 1
 449 0 l 1
 449 0 444.391601562 8.552734375 444.391601562 17.3046875 c 0
 444.391601562 25.3046875 449.263671875 33 449.263671875 33 c 1
 470.923828125 33 476.139648438 47.5068359375 476.139648438 60.451171875 c 0
 476.139648438 69.5927734375 467.423828125 85.11328125 457.461914062 99 c 0
 379.263671875 208 313.637695312 290.649414062 298 313 c 1
 290.970703125 306.260742188 294.255859375 308.21875 287.317382812 304.856445312 c 1
 288.263671875 70.072265625 l 2
 288.465820312 50.6611328125 309.458984375 34.2490234375 332.263671875 33 c 2
 339.397460938 32.609375 l 1
 339.397460938 32.609375 343.391601562 26.056640625 343.391601562 17.3046875 c 0
 343.391601562 9.3046875 340 0 340 0 c 1
 39 0 l 1
 39 0 34.3916015625 8.552734375 34.3916015625 17.3046875 c 0
 34.3916015625 25.3046875 39 33 39 33 c 1
 46.263671875 33 l 2
 67.578125 33 91.263671875 50.86328125 91.263671875 69.521484375 c 0
 93.0986328125 185.290039062 93.4267578125 286.764648438 93.4267578125 402.221679688 c 3
 93.4267578125 493.435546875 92.5 570.336914062 91.263671875 661.4296875 c 0
 91.0234375 679.1640625 70 697 46.263671875 698 c 2
 40.3916015625 698.3046875 l 1
 40.3916015625 698.3046875 36.3916015625 705.552734375 36.3916015625 714.3046875 c 0
 36.3916015625 722.3046875 39 730 39 730 c 1
 340 730 l 1
 340 730 344.391601562 723.056640625 344.391601562 714.3046875 c 0
 344.391601562 706.3046875 340.397460938 698.3046875 340.397460938 698.3046875 c 1
 333.263671875 698 l 2
 309 697 288.681640625 685.293945312 288.263671875 661.952148438 c 2
 284.404296875 460.321289062 l 1
 299.883789062 467.572265625 300.693359375 465.256835938 323 495 c 1
 446.692382812 641.23828125 l 0
 461.04296875 660.098632812 465.243164062 669.512695312 465.243164062 674.751953125 c 0
 465.243164062 685.799804688 438.608398438 697.6953125 427.872070312 697.6953125 c 2
 421 698 l 1
 421 698 416.391601562 704.552734375 416.391601562 713.3046875 c 0
 416.391601562 721.3046875 421 730 421 730 c 1
 642 730 l 1
 642 730 646.391601562 722.056640625 646.391601562 713.3046875 c 0
 646.391601562 705.3046875 642 698 642 698 c 1
 629.866210938 697.6953125 l 2
 598.602539062 696.6953125 592.848632812 675.793945312 572.880859375 653.501953125 c 2
 405 437 l 1
 420.33984375 414.854492188 l 1
 427.4609375 406.69140625 l 0
 524.884765625 270.537109375 627.198242188 123.084960938 670.940429688 63.68359375 c 1
 684.263671875 46 704 33 714.263671875 33 c 2
 723.263671875 33 l 1
EndSplineSet
EndChar

StartChar: Y
Encoding: 89 89 55
GlifName: Y_
Width: 802
VWidth: 0
Flags: W
HStem: 0 33.3828<252 258.964 505.418 552.98> 697 33<54 60.9102 320.499 361.392 569 609.894 714.243 757.98>
VStem: 303.71 196.917<39.7249 393.006>
LayerCount: 2
Fore
SplineSet
552.98046875 33 m 1
 552.98046875 33 556.391601562 26.056640625 556.391601562 17.3046875 c 0
 556.391601562 9.3046875 553 0 553 0 c 1
 252 0 l 1
 252 0 247.391601562 8.552734375 247.391601562 17.3046875 c 0
 247.391601562 25.3046875 252 33 252 33 c 1
 258.963867188 33.3828125 l 2
 283 35 303.709960938 50.19921875 303.709960938 68.9951171875 c 0
 304.967773438 139.228515625 305.811523438 191.126953125 305.811523438 259.03125 c 3
 305.811523438 300.251953125 305.9609375 343.719726562 306.083984375 382.946289062 c 1
 220.188476562 507.120117188 148.473632812 613.557617188 108.212890625 667.241210938 c 0
 94.859375 685.044921875 76.7265625 695.258789062 60.91015625 696.470703125 c 2
 54 697 l 1
 54 697 49.3916015625 705.552734375 49.3916015625 714.3046875 c 0
 49.3916015625 722.3046875 54 730 54 730 c 1
 362.98046875 730 l 1
 362.98046875 730 361.391601562 723.056640625 361.391601562 714.3046875 c 0
 361.391601562 706.3046875 363 697 363 697 c 1
 356.592773438 696.907226562 l 2
 340.990234375 696.681640625 315.822265625 683.219726562 315.822265625 670.557617188 c 0
 315.822265625 665.491210938 317.635742188 658.502929688 326.651367188 645.008789062 c 0
 457.440429688 466.90234375 l 1
 594.674804688 639.278320312 l 0
 608.684570312 658.418945312 612.836914062 667.828125 612.836914062 674.008789062 c 0
 612.836914062 683.953125 590.01171875 696.5078125 576.206054688 696.831054688 c 2
 569 697 l 1
 569 697 564.391601562 705.552734375 564.391601562 714.3046875 c 0
 564.391601562 722.3046875 569 730 569 730 c 1
 757.98046875 730 l 1
 757.98046875 730 761.391601562 723.056640625 761.391601562 714.3046875 c 0
 761.391601562 706.3046875 758 697 758 697 c 1
 750.590820312 697.393554688 l 0
 727.13671875 697.088867188 710.051757812 678.291992188 702.70703125 667.8828125 c 1
 497.614257812 393.005859375 l 1
 498.3984375 346.58203125 498.645507812 303.551757812 498.645507812 258.049804688 c 0
 498.645507812 190.790039062 499.32421875 137.291015625 500.626953125 69.5205078125 c 0
 500.626953125 49.1796875 513 34 537.692382812 33.3828125 c 2
 552.98046875 33 l 1
EndSplineSet
EndChar

StartChar: Z
Encoding: 90 90 56
GlifName: Z_
Width: 760
VWidth: 0
Flags: W
HStem: 0 46<301.895 561.793> 687.333 43<218.854 473.236>
LayerCount: 2
Fore
SplineSet
693.938476562 696.515625 m 0
 693.938476562 687.561523438 691.083007812 671.21484375 684.42578125 661.97265625 c 2
 300.228515625 52.283203125 l 1
 335.875976562 47.9912109375 365.750976562 46 407.227539062 46 c 0
 452.75 46 464.462890625 46.384765625 516.22265625 53.13671875 c 0
 602.283203125 64.3623046875 630 146 641.05859375 176.720703125 c 1
 674.243164062 178.443359375 l 1
 623.8046875 0 l 1
 86.8876953125 0 l 0
 79.1328125 0 54.0146484375 8.1259765625 54.0146484375 29.505859375 c 0
 54.0146484375 37.2177734375 57.1044921875 50.326171875 61.0888671875 55.9931640625 c 1
 473.236328125 683.662109375 l 1
 444.481445312 684.897460938 412.208007812 687.333007812 366.3828125 687.333007812 c 1
 304.875 687.020507812 297.333007812 685.87109375 255.442382812 677.291015625 c 0
 187.545898438 663.216796875 160.104492188 631.043945312 146.709960938 572.751953125 c 0
 145.5390625 567.654296875 l 1
 113.044921875 565.774414062 l 1
 146.091796875 725.021484375 l 1
 146.139648438 725.194335938 l 0
 148.49609375 733.734375 157.28125 734.543945312 162 734.543945312 c 0
 173.170898438 734.543945312 187.936523438 730 192.875 730 c 0
 376.560546875 730.333007812 l 0
 686.7421875 730.333007812 l 1
 688.443359375 725.786132812 l 0
 688.555664062 725.4921875 693.938476562 710.43359375 693.938476562 696.515625 c 0
EndSplineSet
EndChar

StartChar: zero
Encoding: 48 48 57
GlifName: zero
Width: 550
VWidth: 0
Flags: W
HStem: -7 69.4004<240.067 311.933> 572 68<240.167 311.933>
VStem: 30 158<173.745 459.654> 364 158<173.745 459.653>
LayerCount: 2
Fore
SplineSet
276 572 m 0
 224.513671875 572 188 468.006835938 188 316.200195312 c 0
 188 164.39453125 224.512695312 62.400390625 276 62.400390625 c 0
 327.486328125 62.400390625 364 164.393554688 364 316.200195312 c 0
 364 468.005859375 327.487304688 572 276 572 c 0
276 -7 m 0
 124.682617188 -7 30 130.491210938 30 317 c 0
 30 503.508789062 125.682617188 640 276 640 c 0
 427.317382812 640 522 503.508789062 522 317 c 0
 522 130.491210938 427.317382812 -7 276 -7 c 0
EndSplineSet
EndChar

StartChar: one
Encoding: 49 49 58
GlifName: one
Width: 550
VWidth: 0
Flags: W
HStem: 0 34<176 210.677 379.206 414> 624.135 20G<356.736 365.038>
VStem: 212 166<34.7282 526.982>
LayerCount: 2
Fore
SplineSet
407 34 m 0
 414 34 l 1
 414 0 l 1
 176 0 l 1
 176 34 l 1
 183 34 l 0
 202.911132812 34 212 46.9912109375 212 57.685546875 c 0
 212 486.581054688 l 0
 212 504.983398438 211.072265625 526.998046875 200 526.998046875 c 0
 188.611328125 526.998046875 177.416015625 521.307617188 171 519.013671875 c 1
 171 561.999023438 l 1
 208.16796875 576.131835938 310.458007812 612.979492188 342.14453125 637.041992188 c 0
 345.713867188 639.752929688 353.47265625 644.134765625 360 644.134765625 c 0
 370.076171875 644.134765625 378 638.288085938 378 627.381835938 c 0
 378 57.6875 l 0
 378 46.1611328125 387.760742188 34 407 34 c 0
EndSplineSet
EndChar

StartChar: two
Encoding: 50 50 59
GlifName: two
Width: 550
VWidth: 0
Flags: W
HStem: 0 68<252.124 457.037> 507.993 21G<106.178 145.242> 587 55<193.854 317.108>
VStem: 341.031 155.969<418.054 562.087> 472.318 31.2471<96.7302 116.908>
LayerCount: 2
Fore
SplineSet
128.987304688 507.993164062 m 5xf0
 101.088867188 532.455078125 l 5
 104.015625 537.725585938 144.040039062 642 286.538085938 642 c 4
 423.443359375 642 497 583.770507812 497 501.294921875 c 4xf0
 497 440.81640625 489.765625 385.754882812 409.978515625 279.56640625 c 4
 345.366210938 193.57421875 285.384765625 106.73828125 252.124023438 68 c 5
 390 68 l 4
 438.076171875 68 463.375976562 86.47265625 472.318359375 115.087890625 c 4
 474.094726562 120.771484375 l 5
 503.565429688 115.704101562 l 5xe8
 460.87890625 0 l 5
 51 0 l 5
 51 42.529296875 l 5
 153.8125 162.497070312 217.958007812 265.564453125 274.038085938 343.899414062 c 4
 310.169921875 394.369140625 341.03125 450.81640625 341.03125 491.283203125 c 4
 341.03125 546.405273438 316.056640625 587 262.904296875 587 c 4
 214.16796875 587 161.497070312 548.891601562 128.987304688 507.993164062 c 5xf0
EndSplineSet
EndChar

StartChar: hyphen
Encoding: 45 45 60
GlifName: hyphen
Width: 423
VWidth: 0
Flags: W
HStem: 245.59 104.142<77.7227 368.343>
VStem: 55.2051 317.368<245.807 349.523>
LayerCount: 2
Fore
SplineSet
76.5439453125 245.982421875 m 6
 63.40234375 250.364257812 55.205078125 277.046875 55.205078125 299.75390625 c 4
 55.205078125 321.413085938 63.505859375 349.731445312 78.962890625 349.731445312 c 0
 351 349.731445312 l 3
 367.033203125 349.731445312 372.573242188 317.376953125 372.573242188 297.568359375 c 7
 372.573242188 279.28515625 366.837890625 245.58984375 351 245.58984375 c 4
 77.72265625 245.58984375 l 5
 76.5439453125 245.982421875 l 6
EndSplineSet
EndChar

StartChar: backslash
Encoding: 92 92 61
GlifName: backslash
Width: 468
VWidth: 0
Flags: W
LayerCount: 2
Fore
SplineSet
398.390625 -102.213867188 m 2
 388.543945312 -107.319335938 327.219726562 -110.052734375 316 -110.052734375 c 0
 291.509765625 -110.052734375 280.129882812 -94.162109375 275.297851562 -59.482421875 c 1
 270.124023438 -42.8505859375 123.668945312 427.55078125 36.40234375 673.66015625 c 0
 36 674.795898438 l 1
 36 676 l 0
 36 693.1640625 88.115234375 703.255859375 104 703.255859375 c 0
 118.606445312 703.255859375 155.180664062 695.747070312 173.465820312 681.525390625 c 1
 175.908203125 677.888671875 l 1
 247.877929688 420.998046875 320.8125 185.209960938 421.75 -93.6171875 c 0
 423.838867188 -99.388671875 l 1
 398.390625 -102.213867188 l 2
EndSplineSet
EndChar

StartChar: parenleft
Encoding: 40 40 62
GlifName: parenleft
Width: 342
VWidth: 0
Flags: W
VStem: 60 122<186.411 490.666>
LayerCount: 2
Fore
SplineSet
293.77734375 747.046875 m 6
 266.96484375 707.860351562 182 645.889648438 182 330 c 4
 182 35.3779296875 266.922851562 -27.7646484375 295 -69.880859375 c 5
 295 -126.71875 l 5
 283.166992188 -115.064453125 60 50.2900390625 60 331 c 4
 60 642.025390625 282.9453125 783.58984375 295 793.779296875 c 5
 295 748.833984375 l 5
 293.77734375 747.046875 l 6
EndSplineSet
Validated: 1
EndChar

StartChar: parenright
Encoding: 41 41 63
GlifName: parenright
Width: 340
VWidth: 0
Flags: W
VStem: 169 122<186.371 485.839>
LayerCount: 2
Fore
SplineSet
56 749.833984375 m 5
 56 793.779296875 l 5
 68.3017578125 783.381835938 291 642.290039062 291 331 c 4
 291 50.63671875 67.5810546875 -115.313476562 56 -126.71875 c 5
 56 -71.880859375 l 5
 84.0810546875 -29.759765625 169 35.3720703125 169 330 c 4
 169 647.889648438 84.111328125 708.749023438 56 749.833984375 c 5
EndSplineSet
Validated: 1
EndChar

StartChar: three
Encoding: 51 51 64
GlifName: three
Width: 550
VWidth: 0
Flags: W
HStem: -7 36<159.719 274.588> 506.22 21G<58.7822 101.926> 584 56<166.932 324.091>
VStem: 279.667 174.333<486.239 573.161> 342 164<112.404 252.267>
LayerCount: 2
Fore
SplineSet
84.880859375 506.219726562 m 5xf0
 54.9208984375 529.178710938 l 5
 57.4169921875 532.786132812 131.060546875 640 267.611328125 640 c 4
 378.853515625 640 454 599.883789062 454 537.223632812 c 4xf0
 454 477.987304688 359.09765625 424.744140625 297.717773438 379.701171875 c 5
 393.733398438 370.653320312 506 297.072265625 506 197.573242188 c 4
 506 62.1875 379.069335938 -7 223.72265625 -7 c 4
 146.58984375 -7 46.73828125 12.1240234375 46.73828125 62.3125 c 4
 46.73828125 75.5849609375 56.896484375 96.578125 73.9775390625 96.578125 c 4
 86.71484375 96.578125 106.671875 86.49609375 117.221679688 78.583984375 c 5
 136.33203125 64.0234375 170.913085938 29 213.72265625 29 c 4
 292.53515625 29 342 102.293945312 342 173.434570312 c 4xe8
 342 270.153320312 271.987304688 311 207.888671875 311 c 4
 169.025390625 311 137.8203125 280.890625 124 280.890625 c 4
 114.93359375 280.890625 104.185546875 285.99609375 104.185546875 295.615234375 c 4
 104.185546875 302.897460938 115.916015625 313.5625 115.975585938 313.608398438 c 5
 120.296875 317.743164062 279.666992188 443.221679688 279.666992188 515.6875 c 4
 279.666992188 562.21875 264.25390625 584 215.666992188 584 c 4
 162.31640625 584 118.971679688 550.346679688 84.880859375 506.219726562 c 5xf0
EndSplineSet
EndChar

StartChar: four
Encoding: 52 52 65
GlifName: four
Width: 550
VWidth: 0
Flags: W
HStem: 0 21G<286.789 425.63> 271 61.9365<156.593 277.777 435.5 505.229> 622 20G<400.72 413.527>
VStem: 277.195 156.305<0 271 333.006 489.425>
LayerCount: 2
Fore
SplineSet
277.77734375 332.0546875 m 5
 277.77734375 489.424804688 l 5
 227.936523438 423.546875 202.516601562 385.08984375 156.592773438 332.936523438 c 5
 209.489257812 332.541992188 248.67578125 332.401367188 277.77734375 332.0546875 c 5
43.1474609375 301.0390625 m 5
 134.969726562 413.8046875 303 636.333007812 310.841796875 638 c 4
 323.654296875 640.72265625 394.26171875 642 407.177734375 642 c 4
 419.875976562 642 435.5 634.694335938 435.5 617.388671875 c 4
 435.5 333.005859375 l 5
 474.560546875 333.728515625 484.041992188 336.553710938 509.895507812 342.227539062 c 5
 507.224609375 331.224609375 505.5 308.387695312 505.5 299.42578125 c 4
 505.5 288.159179688 507.16796875 279.428710938 508.399414062 271 c 5
 433.5 271 l 5
 433.5 14.6220703125 l 4
 433.5 9.1298828125 430.760742188 0 420.5 0 c 4
 291.5 0 l 4
 282.078125 0 277.1953125 6.701171875 277.1953125 12.6728515625 c 4
 277.77734375 271 l 5
 51.5 271 l 4
 45.0888671875 271 37.0146484375 276.118164062 37.0146484375 285.25 c 4
 37.0146484375 290.935546875 39.4189453125 296.611328125 43.1474609375 301.0390625 c 5
EndSplineSet
EndChar

StartChar: semicolon
Encoding: 59 59 66
GlifName: semicolon
Width: 259
VWidth: 0
Flags: W
HStem: -107.767 36.3799<31.2168 76.2175> 275 188.725<70.6408 193.514>
VStem: 35.4922 193.172<25.9535 133.979 311.105 427.619>
LayerCount: 2
Fore
SplineSet
34.3564453125 77.1611328125 m 0
 34.3564453125 126.248046875 80.91796875 171.109375 133.106445312 171.109375 c 0
 187.440429688 171.109375 229.458984375 125.491210938 229.458984375 81.7099609375 c 0
 229.458984375 80.193359375 l 2
 229.458984375 -61.4599609375 158.28515625 -107.766601562 31.216796875 -107.766601562 c 1
 8.1884765625 -71.38671875 l 1
 41.931640625 -71.38671875 99.9228515625 -59.7275390625 99.9228515625 -21.365234375 c 0
 99.9228515625 -16.20703125 97.3623046875 -11.2080078125 90.5234375 -4.7216796875 c 1
 64.7822265625 18.318359375 34.3564453125 29.2841796875 34.3564453125 77.1611328125 c 0
132.077148438 275 m 0
 78.736328125 275 35.4921875 317.249023438 35.4921875 369.361328125 c 0
 35.4921875 421.474609375 78.7353515625 463.724609375 132.077148438 463.724609375 c 0
 185.41796875 463.724609375 228.6640625 421.474609375 228.6640625 369.361328125 c 0
 228.6640625 317.249023438 185.41796875 275 132.077148438 275 c 0
EndSplineSet
EndChar

StartChar: colon
Encoding: 58 58 67
GlifName: colon
Width: 259
VWidth: 0
Flags: W
HStem: -18 188.725<70.6408 193.514> 275 188.725<70.6408 193.514>
VStem: 35.4922 193.172<18.1047 134.619 311.105 427.619>
LayerCount: 2
Fore
SplineSet
132.077148438 275 m 4
 78.736328125 275 35.4921875 317.249023438 35.4921875 369.361328125 c 4
 35.4921875 421.474609375 78.7353515625 463.724609375 132.077148438 463.724609375 c 4
 185.41796875 463.724609375 228.6640625 421.474609375 228.6640625 369.361328125 c 4
 228.6640625 317.249023438 185.41796875 275 132.077148438 275 c 4
132.077148438 -18 m 0
 78.736328125 -18 35.4921875 24.2490234375 35.4921875 76.361328125 c 0
 35.4921875 128.474609375 78.7353515625 170.724609375 132.077148438 170.724609375 c 0
 185.41796875 170.724609375 228.6640625 128.474609375 228.6640625 76.361328125 c 0
 228.6640625 24.2490234375 185.41796875 -18 132.077148438 -18 c 0
EndSplineSet
EndChar

StartChar: five
Encoding: 53 53 68
GlifName: five
Width: 550
VWidth: 0
Flags: W
HStem: -5 48<119.023 284.063> 312 108<163.291 299.475> 539.466 71.5342<185.766 455.254>
VStem: 346.286 162<121.789 262.601>
LayerCount: 2
Fore
SplineSet
450.286132812 617.5859375 m 4
 456.502929688 617.5859375 469.107421875 615.684570312 469.107421875 604.443359375 c 4
 469.107421875 595.456054688 452.918945312 554.444335938 447.147460938 539.465820312 c 5
 185.765625 539.465820312 l 5
 148.7109375 391.991210938 l 5
 193.3515625 413.0390625 226.884765625 420 271.833984375 420 c 4
 391.741210938 420 508.286132812 356.05078125 508.286132812 210.3671875 c 4
 508.286132812 79.5341796875 389.40625 -5 235.063476562 -5 c 4
 166.528320312 -5 120.344726562 3 69.310546875 55.0751953125 c 5
 65.5146484375 58.87109375 62.1025390625 66.8046875 62.1025390625 71 c 4
 62.1025390625 81.5224609375 70.529296875 87.6015625 79.419921875 87.6015625 c 4
 84.2314453125 87.6015625 89.1787109375 85.8212890625 93 82 c 4
 122.463867188 51.615234375 176.412109375 43 217.412109375 43 c 4
 306.1171875 43 346.286132812 134.108398438 346.286132812 190.368164062 c 4
 346.286132812 248.545898438 310.93359375 312 226.412109375 312 c 4
 175.84375 312 98.134765625 289.598632812 41 254.03125 c 5
 124.7578125 611 l 5
 388.286132812 611 l 6
 411.366210938 611 432.57421875 617.5859375 450.286132812 617.5859375 c 4
EndSplineSet
EndChar

StartChar: equal
Encoding: 61 61 69
GlifName: equal
Width: 421
VWidth: 0
Flags: W
HStem: 179 94<86.8643 353.8> 320 94<86.8643 353.8>
VStem: 67 290<179.006 273 320.006 414>
LayerCount: 2
Fore
SplineSet
85.7861328125 320.359375 m 2
 73.7568359375 324.369140625 67 347.216796875 67 368 c 0
 67 387.826171875 73.8525390625 414 88 414 c 0
 337 414 l 0
 351.67578125 414 357 384.130859375 357 366 c 0
 357 349.265625 351.497070312 320 337 320 c 0
 86.8642578125 320 l 1
 85.7861328125 320.359375 l 2
85.7861328125 179.359375 m 2
 73.7568359375 183.369140625 67 206.216796875 67 227 c 0
 67 246.826171875 73.8525390625 273 88 273 c 0
 337 273 l 0
 351.67578125 273 357 243.130859375 357 225 c 0
 357 208.265625 351.497070312 179 337 179 c 0
 86.8642578125 179 l 1
 85.7861328125 179.359375 l 2
EndSplineSet
EndChar

StartChar: asterisk
Encoding: 42 42 70
GlifName: asterisk
Width: 476
VWidth: 0
Flags: W
VStem: 198.956 79.6875<293.592 428.377> 204.576 68.4512<270.492 391.581 556.549 715.827>
LayerCount: 2
Fore
SplineSet
228.3203125 716.310546875 m 2x80
 246.568359375 716.310546875 l 0
 259.590820312 716.310546875 270.110351562 705.633789062 270.110351562 692.965820312 c 1
 275.735351562 556.548828125 l 1
 398.318359375 618.544921875 l 0
 402.111328125 620.463867188 405.59765625 621.126953125 408.84765625 621.126953125 c 0
 417.296875 621.126953125 425.188476562 617.765625 430.415039062 610.981445312 c 0
 434.696289062 605.423828125 438.223632812 593.747070312 438.223632812 589.0390625 c 0
 438.223632812 580.079101562 432.69921875 572.9921875 426.168945312 568.637695312 c 0
 313.291992188 493.856445312 l 1
 426.168945312 419.07421875 l 0
 431.5703125 415.49609375 438.223632812 409.068359375 438.223632812 398.673828125 c 0
 438.223632812 392.009765625 433.88671875 383.283203125 432.7421875 380.9921875 c 1
 430.794921875 377.26953125 l 1
 426.293945312 370.517578125 419.930664062 363.87109375 410.205078125 363.87109375 c 0
 406.241210938 363.87109375 403.12109375 364.69140625 399.635742188 366.474609375 c 0
 278.643554688 428.376953125 l 1x80
 273.02734375 293.591796875 l 1
 273.02734375 279.608398438 259.983398438 270.249023438 247.92578125 270.249023438 c 0
 229.677734375 270.249023438 l 0
 217.619140625 270.249023438 204.576171875 279.608398438 204.576171875 293.591796875 c 1x40
 198.956054688 429.78515625 l 1
 76.5771484375 366.3046875 l 0
 72.1171875 364.022460938 67.4072265625 363.701171875 64.4462890625 363.701171875 c 0
 53.6875 363.701171875 48.111328125 372.26171875 45.6962890625 375.552734375 c 0
 42.671875 379.677734375 38.0234375 390.193359375 38.0234375 395.9609375 c 0
 38.0234375 404.137695312 43.5712890625 412.7265625 47.25390625 415.53515625 c 1
 162.8046875 491.142578125 l 1
 47.3310546875 567.16796875 l 1
 39.126953125 572.170898438 36.3291015625 581.5078125 36.3291015625 588.936523438 c 0
 36.3291015625 604.37109375 52.0830078125 621.126953125 64.4814453125 621.126953125 c 0
 67.4248046875 621.126953125 72.078125 620.790039062 76.548828125 618.556640625 c 1
 199.153320312 556.548828125 l 1
 204.77734375 692.965820312 l 1
 204.77734375 703.900390625 214.400390625 716.310546875 228.3203125 716.310546875 c 2x80
EndSplineSet
Validated: 1
EndChar

StartChar: numbersign
Encoding: 35 35 71
GlifName: numbersign
Width: 735
VWidth: 0
Flags: W
HStem: 217 79<62.469 186.119 303.881 371.119 488.881 628.034> 476 79<113.469 248.119 365.894 433.119 550.894 678.344>
VStem: 140 97.9932<3 51.4589> 325 97.9932<3 51.4589>
LayerCount: 2
Fore
SplineSet
326 737.333007812 m 2
 388 737.333007812 l 0
 393.337890625 737.333007812 405 733.122070312 405 721 c 0
 405 717.166015625 l 1
 365.893554688 555 l 1
 452.490234375 555 l 1
 492.196289062 719.64453125 l 1
 492.196289062 719.64453125 502.549804688 737.333007812 511 737.333007812 c 0
 573 737.333007812 l 0
 578.337890625 737.333007812 590 733.122070312 590 721 c 0
 590 717.166015625 l 1
 550.893554688 555 l 1
 675 555 l 0
 680.724609375 555 692 552.31640625 692 541 c 0
 692 526.309554478 681.220763276 506.901798527 676.640625 492.869140625 c 0
 674.23828125 485.662109375 667.875 476 657 476 c 0
 531.517578125 476 l 1
 488.880859375 296 l 1
 624 296 l 0
 629.724609375 296 641 293.31640625 641 282 c 0
 641 264.576861838 630.72016649 247.03965196 625.66015625 231.84375 c 0
 622.815429688 223.311523438 615.34765625 217 606 217 c 0
 469.517578125 217 l 1
 422.993164062 22.140625 l 1
 422.21875 11.955078125 414.014648438 3 405 3 c 0
 341 3 l 0
 331.373046875 3 325 13.373046875 325 23 c 0
 325 23.8291015625 l 1
 371.119140625 217 l 1
 284.517578125 217 l 1
 237.993164062 22.140625 l 1
 237.21875 11.955078125 229.014648438 3 220 3 c 0
 156 3 l 0
 146.373046875 3 140 13.373046875 140 23 c 0
 140 23.8291015625 l 1
 186.119140625 217 l 1
 67 217 l 0
 59.9921875 217 50 221.4453125 50 232 c 0
 50 233.135742188 50.462890625 236.571289062 51.9892578125 240.30078125 c 1
 64.3291015625 281.122070312 l 1
 67.193359375 289.717773438 74.6494140625 296 84 296 c 0
 205.482421875 296 l 1
 248.119140625 476 l 1
 118 476 l 0
 110.9921875 476 101 480.4453125 101 491 c 0
 101 492.229492188 101.360351562 495.358398438 103.053710938 499.590820312 c 1
 115.329101562 540.125 l 1
 118.193359375 548.715820312 125.649414062 555 135 555 c 0
 267.490234375 555 l 1
 307.196289062 719.64453125 l 1
 307.196289062 719.64453125 317.549804688 737.333007812 326 737.333007812 c 2
346.517578125 476 m 1
 303.880859375 296 l 1
 390.482421875 296 l 1
 433.119140625 476 l 1
 346.517578125 476 l 1
EndSplineSet
Validated: 1
EndChar

StartChar: six
Encoding: 54 54 72
GlifName: six
Width: 550
VWidth: 0
Flags: W
HStem: -8 44<260.705 348.251> 332.37 66.9648<276.922 400.185> 617.875 20G<436.601 452.089>
VStem: 22 163<142.904 372.76> 384 147<107.531 284.62>
LayerCount: 2
Fore
SplineSet
459.1875 604.46484375 m 4
 459.1875 597.263671875 449.125976562 589.928710938 438.80859375 587.127929688 c 4
 404.296875 578.466796875 351.05078125 560.18359375 300.897460938 523.624023438 c 4
 215.956054688 461.705078125 185 373.544921875 185 259.75390625 c 4
 185 159.934570312 237.028320312 36 307.24609375 36 c 4
 351.712890625 36 384 95.2373046875 384 195.278320312 c 4
 384 291.334960938 331.28515625 332.370117188 303.619140625 332.370117188 c 4
 279.227539062 332.370117188 264.645507812 326.545898438 245.014648438 306.584960938 c 5
 240.13671875 301.677734375 234.927734375 299.859375 230.705078125 299.859375 c 4
 221.015625 299.859375 218.895507812 313.147460938 218.895507812 318.254882812 c 4
 218.895507812 322.516601562 220.215820312 326.79296875 222.83203125 330.717773438 c 5
 243.224609375 357.525390625 292.717773438 399.334960938 351.31640625 399.334960938 c 4
 449.052734375 399.334960938 531 363.8671875 531 207.3671875 c 4
 531 84.8271484375 446.161132812 -8 312.17578125 -8 c 4
 159.903320312 -8 22 64.6552734375 22 252.34765625 c 4
 22 439.750976562 151.833984375 514.100585938 226.31640625 561.297851562 c 4
 283.6796875 597.647460938 385.629882812 625.892578125 436.600585938 635.858398438 c 4
 449.581054688 637.875 l 5
 452.088867188 633.453125 l 4
 452.182617188 633.291992188 459.1875 614.9375 459.1875 604.46484375 c 4
EndSplineSet
EndChar

StartChar: nine
Encoding: 57 57 73
GlifName: nine
Width: 550
VWidth: 0
Flags: W
HStem: 234 72.2666<162.463 294.743> 597 44<231.417 326.462>
VStem: 30 160<340.195 529.553> 380 144<261.653 507.967>
LayerCount: 2
Fore
SplineSet
110.181640625 14.2021484375 m 4
 110.181640625 22.236328125 114.295898438 40.43359375 124.467773438 43.7490234375 c 4
 159.094726562 55.0341796875 208.315429688 81.484375 263.755859375 120.977539062 c 5
 368.638671875 192.6875 380 251.771484375 380 392.178710938 c 4
 380 560.061523438 326.505859375 597 263.954101562 597 c 4
 234.375 597 190 536.327148438 190 457.396484375 c 4
 190 384.254882812 208.274414062 306.266601562 254.114257812 306.266601562 c 4
 280.26171875 306.266601562 306 313 314.004882812 321.510742188 c 4
 315.259765625 322.778320312 l 5
 319.426757812 327.006835938 323.831054688 329.931640625 328.963867188 329.931640625 c 4
 334.727539062 329.931640625 343.647460938 325.146484375 343.647460938 318.381835938 c 4
 343.647460938 312.79296875 340.864257812 299.604492188 337 294 c 4
 310.653320312 255.79296875 258.43359375 234 219.701171875 234 c 4
 105.994140625 234 30 299.489257812 30 445.46484375 c 4
 30 559.444335938 136.249023438 641 256.034179688 641 c 4
 409.302734375 641 524 583.359375 524 379.581054688 c 4
 524 200.604492188 406.711914062 139.270507812 331.720703125 81.9853515625 c 5
 271.16796875 38.0869140625 180.797851562 4.677734375 127.61328125 -8.6328125 c 4
 129.31640625 -10.1953125 l 5
 126.362304688 -4.3896484375 110.181640625 6.7919921875 110.181640625 14.2021484375 c 4
EndSplineSet
EndChar

StartChar: exclam
Encoding: 33 33 74
GlifName: exclam
Width: 316
VWidth: 0
Flags: W
HStem: -18 188.725<100.641 223.514> 205.712 545.722<108.963 218.227>
VStem: 65.4922 193.172<18.1047 134.619> 76.5068 172<554.102 729.663>
LayerCount: 2
Fore
SplineSet
162.077148438 -18 m 0xe0
 108.736328125 -18 65.4921875 24.2490234375 65.4921875 76.361328125 c 0
 65.4921875 128.474609375 108.735351562 170.724609375 162.077148438 170.724609375 c 0
 215.41796875 170.724609375 258.6640625 128.474609375 258.6640625 76.361328125 c 0
 258.6640625 24.2490234375 215.41796875 -18 162.077148438 -18 c 0xe0
248.506835938 689.865234375 m 1xd0
 227.5 243.684570312 l 1
 226.639648438 227.037109375 192.951171875 206.1171875 164.168945312 205.712890625 c 0
 164.006835938 205.708984375 l 1
 163.84375 205.711914062 l 0
 134.37109375 206.1015625 100.4921875 226.541015625 99.515625 243.650390625 c 1
 76.5068359375 689.850585938 l 1
 76.5068359375 723.15234375 117.623046875 751.43359375 162.928710938 751.43359375 c 0
 208.620117188 751.43359375 248.506835938 722.65234375 248.506835938 689.865234375 c 1xd0
EndSplineSet
EndChar

StartChar: percent
Encoding: 37 37 75
GlifName: percent
Width: 984
VWidth: 0
Flags: W
HStem: -16 42<721.135 774.228> 249 42<218.546 271.863> 342 42<721.132 774.226> 607 42<218.544 271.86>
VStem: 52 137<349.864 548.14> 302.443 137.91<349.883 548.113> 551.621 138.936<86.3621 281.641> 804 137<84.8711 283.126>
LayerCount: 2
Fore
SplineSet
245.181640625 607 m 0
 213.393554688 607 189 542.018554688 189 449 c 0
 189 355.999023438 213.405273438 291 245.181640625 291 c 0
 275.944335938 291 302.443359375 356.032226562 302.443359375 449 c 0
 302.443359375 541.952148438 275.93359375 607 245.181640625 607 c 0
245.181640625 249 m 0
 136.63671875 249 52 322.0859375 52 449 c 0
 52 575.9140625 136.63671875 649 245.181640625 649 c 0
 354.90625 649 440.353515625 575.858398438 440.353515625 449 c 0
 440.353515625 322.141601562 354.90625 249 245.181640625 249 c 0
747.818359375 342 m 0
 717.055664062 342 690.556640625 276.967773438 690.556640625 184 c 0
 690.556640625 91.0478515625 717.06640625 26 747.818359375 26 c 0
 778.581054688 26 804 91.0322265625 804 184 c 0
 804 276.952148438 778.571289062 342 747.818359375 342 c 0
747.818359375 -16 m 0
 638.133789062 -16 551.62109375 57.0859375 551.62109375 184 c 0
 551.62109375 310.9140625 638.133789062 384 747.818359375 384 c 0
 856.36328125 384 941 310.9140625 941 184 c 0
 941 57.0859375 856.36328125 -16 747.818359375 -16 c 0
704.081054688 717.216796875 m 1
 756 694 l 2
 760.489257812 691.419921875 764.866210938 686.88671875 764.866210938 680.33203125 c 0
 762.58203125 671.174804688 l 1
 317.536132812 -64.708984375 l 1
 314.428710938 -69.7607421875 308.99609375 -70.8271484375 305.203125 -70.8271484375 c 0
 295.798828125 -70.8271484375 249.689453125 -51.435546875 243.354492188 -48.126953125 c 0
 238.181640625 -45.15234375 235.103515625 -39.90234375 235.103515625 -34.392578125 c 0
 235.103515625 -31.056640625 236.1875 -28.10546875 237.586914062 -25.423828125 c 0
 681.706054688 710.705078125 l 1
 684.600585938 715.329101562 689.626953125 719.123046875 696.08984375 719.123046875 c 0
 699.93359375 719.123046875 704.081054688 717.216796875 704.081054688 717.216796875 c 1
EndSplineSet
EndChar

StartChar: seven
Encoding: 55 55 76
GlifName: seven
Width: 550
VWidth: 0
Flags: W
HStem: 0 21G<71.6201 251.762> 544 78<70.4876 330.423>
VStem: 71.6201 166.165<0 83.9676>
LayerCount: 2
Fore
SplineSet
330.422851562 544 m 1
 93.7607421875 544 l 2
 77.9677734375 544 72.2587890625 532.4296875 70.3974609375 528 c 1
 64.7607421875 528 l 0
 57.236328125 528 55.88671875 534.9765625 55.88671875 534.9765625 c 0
 56.0849609375 541.694335938 l 2
 59.2431640625 558.608398438 63.9384765625 591.762695312 67.26171875 607.599609375 c 0
 68.837890625 615.110351562 70.1318359375 622 79.7607421875 622 c 0
 487.760742188 622 l 2
 500.178710938 622 504.750976562 619.139648438 504.750976562 614.4609375 c 0
 504.750976562 610.694335938 501.73046875 604.899414062 498.932617188 601.092773438 c 1
 494.599609375 594.58984375 l 2
 371.370117188 409.294921875 265.739257812 169.026367188 237.78515625 0 c 1
 71.6201171875 0 l 1
 97.255859375 164.938476562 218.294921875 393.515625 330.422851562 544 c 1
EndSplineSet
EndChar

StartChar: eight
Encoding: 56 56 77
GlifName: eight
Width: 550
VWidth: 0
Flags: W
HStem: -8 43<234.102 330.175> 604 39<243.462 326.095>
VStem: 38 158.096<79.2768 224.543> 70 149.613<460.486 570.037> 346.931 137.069<460.208 573.594> 364.269 151.731<77.5405 202.45>
LayerCount: 2
Fore
SplineSet
196.095703125 148.314453125 m 0xe4
 196.095703125 83.1015625 235.41015625 35 286.272460938 35 c 0
 335.603515625 35 364.268554688 96.8125 364.268554688 142.018554688 c 0
 364.268554688 191.739257812 310.30859375 249.9375 263.504882812 280.764648438 c 1
 218.578125 239.145507812 196.095703125 195.185546875 196.095703125 148.314453125 c 0xe4
219.61328125 515.71484375 m 0xd8
 219.61328125 479.623046875 247.493164062 442.298828125 284.861328125 420.970703125 c 1
 312.545898438 442.298828125 346.930664062 476.48046875 346.930664062 517.573242188 c 0
 346.930664062 576.75 321.751953125 604 280.272460938 604 c 0
 238.485351562 604 219.61328125 556.043945312 219.61328125 515.71484375 c 0xd8
484 507.779296875 m 0
 484 441.196289062 395.373046875 402.047851562 349.515625 366.467773438 c 1
 433.28515625 306.94921875 516 257.122070312 516 146.673828125 c 0
 516 56.2744140625 418.197265625 -8 279.181640625 -8 c 0
 159.981445312 -8 38 41.0087890625 38 149.610351562 c 0xe4
 38 238.719726562 112.25 280.470703125 190.244140625 340.186523438 c 1
 132.349609375 385.061523438 70 419.857421875 70 509.737304688 c 0
 70 563.458984375 123.381835938 643 280.272460938 643 c 0
 389.46875 643 484 597.563476562 484 507.779296875 c 0
EndSplineSet
EndChar

StartChar: question
Encoding: 63 63 78
GlifName: question
Width: 512
VWidth: 0
Flags: W
HStem: -11.585 157.799<179.962 291.398> 682 60.333<190.458 292.384>
VStem: 41.8008 126.47<583.065 659.195> 154.922 161.518<14.2648 120.364> 316 150.444<508.861 641.519>
LayerCount: 2
Fore
SplineSet
235.6796875 -11.5849609375 m 4xd0
 191.079101562 -11.5849609375 154.921875 23.7412109375 154.921875 67.3134765625 c 4
 154.921875 110.887695312 191.079101562 146.213867188 235.6796875 146.213867188 c 4
 280.279296875 146.213867188 316.439453125 110.887695312 316.439453125 67.3134765625 c 4
 316.439453125 23.7412109375 280.279296875 -11.5849609375 235.6796875 -11.5849609375 c 4xd0
183.041992188 219.23828125 m 2
 177.967773438 265.600585938 168.118164062 340.268554688 168.1171875 340.275390625 c 0
 168.080078125 340.63671875 l 1
 168.080078125 341 l 0
 168.080078125 395.13671875 218.200195312 433.912109375 254.3125 465.19921875 c 0
 302 506.514648438 316 535.983398438 316 593 c 0
 316 654.891601562 279.794921875 682 239.444335938 682 c 0
 199.109375 682 172.424804688 645.072265625 168.270507812 626.448242188 c 0
 162.259765625 599.504882812 137.418945312 559 105.444335938 559 c 0
 71.3251953125 559 41.80078125 591.640625 41.80078125 625 c 0
 41.80078125 704.3984375 165.646484375 742.333007812 243.444335938 742.333007812 c 0
 331.029296875 742.333007812 466.444335938 682.974609375 466.444335938 569 c 0xe8
 466.444335938 509.756835938 437.760742188 468.549804688 383.279296875 426.4609375 c 0
 347.44140625 398.774414062 298.677734375 360.309570312 297.98828125 348.588867188 c 1
 297.98828125 348.588867188 286 232.576171875 286 220 c 0
 286 213 l 1
 183.724609375 213 l 1
 183.041992188 219.23828125 l 2
EndSplineSet
EndChar

StartChar: quotesingle
Encoding: 39 39 79
GlifName: quotesingle
Width: 177
VWidth: 0
Flags: W
HStem: 494 233.962<23.8846 108.402>
VStem: 4.23828 125.193<612.311 717.841>
LayerCount: 2
Fore
SplineSet
57.890625 727.961914062 m 2
 74.203125 727.961914062 l 0
 107.391601562 727.961914062 129.431640625 707.40625 129.431640625 679.869140625 c 0
 129.431640625 677.620117188 128.830078125 671.247070312 127.669921875 667.51953125 c 1
 108.861328125 515.17578125 l 1
 108.861328125 515.17578125 97.345703125 494 82.0908203125 494 c 0
 50 494 l 0
 34.0166015625 494 24.31640625 502.717773438 22.98046875 517.19921875 c 1
 4.23828125 669.010742188 l 1
 4.23828125 675.969726562 l 0
 4.23828125 702.788085938 26.1748046875 727.961914062 57.890625 727.961914062 c 2
EndSplineSet
EndChar

StartChar: quotedbl
Encoding: 34 34 80
GlifName: quotedbl
Width: 384
VWidth: 0
Flags: W
HStem: 494 233.962<68.8846 153.402 236.385 320.902>
VStem: 49.2383 125.193<612.311 717.841> 216.738 125.193<612.311 717.841>
LayerCount: 2
Fore
SplineSet
270.390625 727.961914062 m 2
 286.703125 727.961914062 l 0
 319.891601562 727.961914062 341.931640625 707.40625 341.931640625 679.869140625 c 0
 341.931640625 677.620117188 341.330078125 671.247070312 340.169921875 667.51953125 c 1
 321.361328125 515.17578125 l 1
 321.361328125 515.17578125 309.845703125 494 294.590820312 494 c 0
 262.5 494 l 0
 246.516601562 494 236.81640625 502.717773438 235.48046875 517.19921875 c 1
 216.73828125 669.010742188 l 1
 216.73828125 675.969726562 l 0
 216.73828125 702.788085938 238.674804688 727.961914062 270.390625 727.961914062 c 2
102.890625 727.961914062 m 6
 119.203125 727.961914062 l 4
 152.391601562 727.961914062 174.431640625 707.40625 174.431640625 679.869140625 c 4
 174.431640625 677.620117188 173.830078125 671.247070312 172.669921875 667.51953125 c 5
 153.861328125 515.17578125 l 5
 153.861328125 515.17578125 142.345703125 494 127.090820312 494 c 4
 95 494 l 4
 79.0166015625 494 69.31640625 502.717773438 67.98046875 517.19921875 c 5
 49.23828125 669.010742188 l 5
 49.23828125 675.969726562 l 4
 49.23828125 702.788085938 71.1748046875 727.961914062 102.890625 727.961914062 c 6
EndSplineSet
EndChar

StartChar: underscore
Encoding: 95 95 81
GlifName: underscore
Width: 449
VWidth: 0
Flags: W
HStem: -8 94<66.845 380.03>
VStem: 63 320.74<-8 86>
LayerCount: 2
Fore
SplineSet
82.75 -8 m 2
 68.1708984375 -8 63 23.9111328125 63 37 c 0
 63 50.0888671875 68.1708984375 86 82.75 86 c 0
 364.75 86 l 0
 378.729492188 86 383.740234375 50.708984375 383.740234375 38 c 0
 383.740234375 25.3212890625 379.619140625 -8 364.75 -8 c 0
 82.75 -8 l 2
EndSplineSet
EndChar

StartChar: bracketleft
Encoding: 91 91 82
GlifName: bracketleft
Width: 361
VWidth: 0
Flags: W
HStem: -128 54<215 313.36> 735 54<215 313.36>
VStem: 77 138<-74 735>
LayerCount: 2
Fore
SplineSet
215 735 m 5
 215 -74 l 5
 298 -74 l 4
 311.694335938 -74 313.62890625 -91.34765625 313.62890625 -100.284179688 c 4
 313.62890625 -109.485351562 311.779296875 -128 298 -128 c 4
 103 -128 l 0
 86.6279296875 -128 77 -117.958007812 77 -101 c 0
 77 761 l 0
 77 778.852539062 88.6328125 789 107 789 c 0
 298 789 l 4
 311.694335938 789 313.62890625 771.65234375 313.62890625 762.715820312 c 4
 313.62890625 753.514648438 311.779296875 735 298 735 c 4
 215 735 l 5
EndSplineSet
EndChar

StartChar: bracketright
Encoding: 93 93 83
GlifName: bracketright
Width: 361
VWidth: 0
Flags: W
HStem: -128 54<46.6326 145> 735 54<46.6326 145>
VStem: 145 138<-74 735>
LayerCount: 2
Fore
SplineSet
145 735 m 1
 62 735 l 0
 48.220703125 735 46.37109375 752.514648438 46.37109375 761.715820312 c 0
 46.37109375 770.65234375 48.3056640625 789 62 789 c 0
 253 789 l 4
 271.3671875 789 283 778.852539062 283 761 c 4
 283 -101 l 4
 283 -117.958007812 273.372070312 -128 257 -128 c 4
 62 -128 l 0
 48.220703125 -128 46.37109375 -110.485351562 46.37109375 -101.284179688 c 0
 46.37109375 -92.34765625 48.3056640625 -74 62 -74 c 0
 145 -74 l 1
 145 735 l 1
EndSplineSet
EndChar

StartChar: bar
Encoding: 124 124 84
GlifName: bar
Width: 260
VWidth: 0
Flags: W
HStem: 732.376 20G<126.445 137.312>
VStem: 67 127<-57.455 745.707>
LayerCount: 2
Fore
SplineSet
194 -42 m 2
 194 -58.125 141.40625 -64.498046875 130 -64.498046875 c 0
 118.682617188 -64.498046875 67 -57.7822265625 67 -42 c 0
 67 731 l 0
 67 746.85546875 120.889648438 752.375976562 132 752.375976562 c 0
 142.624023438 752.375976562 194 746.375 194 731 c 0
 194 -42 l 2
EndSplineSet
EndChar

StartChar: asciitilde
Encoding: 126 126 85
GlifName: asciitilde
Width: 510
VWidth: 0
Flags: W
HStem: 204.362 115.625<273.191 385.267> 279.54 114.947<108.391 216.353>
LayerCount: 2
Fore
SplineSet
162 394.487304688 m 0x40
 245.0859375 394.487304688 261.467773438 319.987304688 338 319.987304688 c 0
 393.951171875 319.987304688 429.365234375 364.37890625 446 364.37890625 c 0
 453.178710938 364.37890625 471.186523438 362.212890625 471.186523438 352 c 0
 471.186523438 312.26953125 397.826171875 204.362304688 328 204.362304688 c 4x80
 244.40625 204.362304688 228.961914062 279.540039062 157 279.540039062 c 4
 113.56640625 279.540039062 80.4267578125 243.85546875 54 243.85546875 c 0
 43.91796875 243.85546875 28.84765625 251.241210938 28.84765625 261 c 0
 28.84765625 284.51953125 96.689453125 394.487304688 162 394.487304688 c 0x40
EndSplineSet
EndChar

StartChar: dieresis
Encoding: 168 168 86
GlifName: dieresis
Width: 467
VWidth: 0
Flags: W
HStem: 618.071 145.202<58.1781 158.902 311.178 411.902>
VStem: 37.3164 142.446<639.336 742.008> 290.316 142.446<639.336 742.008>
LayerCount: 2
Fore
SplineSet
290.31640625 690.670898438 m 4
 290.31640625 730.767578125 322.206054688 763.2734375 361.541015625 763.2734375 c 4
 400.874023438 763.2734375 432.762695312 730.767578125 432.762695312 690.670898438 c 4
 432.762695312 650.577148438 400.874023438 618.071289062 361.541015625 618.071289062 c 4
 322.206054688 618.071289062 290.31640625 650.577148438 290.31640625 690.670898438 c 4
37.31640625 690.670898438 m 4
 37.31640625 730.767578125 69.2060546875 763.2734375 108.541015625 763.2734375 c 4
 147.874023438 763.2734375 179.762695312 730.767578125 179.762695312 690.670898438 c 4
 179.762695312 650.577148438 147.874023438 618.071289062 108.541015625 618.071289062 c 4
 69.2060546875 618.071289062 37.31640625 650.577148438 37.31640625 690.670898438 c 4
EndSplineSet
EndChar

StartChar: grave
Encoding: 96 96 93
GlifName: grave
Width: 321
VWidth: 0
Flags: W
HStem: 524.651 258.665
VStem: 31.9707 262.042
LayerCount: 2
Fore
SplineSet
263.810546875 528.19140625 m 2
 202.932617188 567.359375 68.00390625 651.76953125 49.3701171875 669.59375 c 0
 37.5439453125 680.905273438 31.970703125 695.72265625 31.970703125 710.29296875 c 0
 31.970703125 749.211914062 62.3642578125 783.31640625 101.577148438 783.31640625 c 0
 116.803710938 783.31640625 132.276367188 777.971679688 144.088867188 766.674804688 c 0
 162.780273438 748.796875 248.491210938 610.881835938 290.166015625 553.567382812 c 0
 294.012695312 548.27734375 l 1
 269.313476562 524.651367188 l 1
 263.810546875 528.19140625 l 2
EndSplineSet
Validated: 1
EndChar

StartChar: acute
Encoding: 180 180 94
GlifName: acute
Width: 281
VWidth: 0
Flags: W
HStem: 525.976 227.928
VStem: 29.3779 227.993
LayerCount: 2
Fore
SplineSet
52.8427734375 525.975585938 m 1
 29.3779296875 549.440429688 l 1
 32.720703125 554.247070312 l 0
 68.9345703125 606.314453125 149.252929688 723.54296875 165.491210938 739.780273438 c 0
 175.549804688 749.838867188 190.725585938 753.903320312 203.870117188 753.903320312 c 0
 217.013671875 753.903320312 231.188476562 747.838867188 241.247070312 737.780273438 c 0
 251.306640625 727.721679688 257.37109375 713.546875 257.37109375 700.40234375 c 0
 257.37109375 687.2578125 254.306640625 673.083007812 244.247070312 663.022460938 c 0
 228.046875 646.823242188 110.536132812 564.78125 57.625 529.19140625 c 0
 52.8427734375 525.975585938 l 1
EndSplineSet
EndChar

StartChar: less
Encoding: 60 60 114
GlifName: less
Width: 488
VWidth: 0
Flags: W
LayerCount: 2
Fore
SplineSet
194.208007812 324 m 1
 438 186.04296875 l 5
 438 61.984375 l 1
 36 289.921875 l 1
 36 354.078125 l 1
 438 582.015625 l 1
 438 461.95703125 l 1
 194.208007812 324 l 1
EndSplineSet
EndChar

StartChar: greater
Encoding: 62 62 115
GlifName: greater
Width: 504
VWidth: 0
Flags: W
LayerCount: 2
Fore
SplineSet
297.791992188 324 m 1
 54 461.95703125 l 1
 54 582.015625 l 1
 456 354.078125 l 1
 456 289.921875 l 1
 54 61.984375 l 1
 54 186.04296875 l 5
 297.791992188 324 l 1
EndSplineSet
EndChar

StartChar: asciicircum
Encoding: 94 94 116
GlifName: asciicircum
Width: 537
VWidth: 0
Flags: W
HStem: 552.116 233.337
LayerCount: 2
Fore
SplineSet
461.387695312 584.474609375 m 2
 456.897460938 571.577148438 440.900390625 555.666992188 429.931640625 552.116210938 c 0
 426.590820312 551.03515625 l 1
 265 642.416992188 l 5
 103.422851562 551.043945312 l 1
 100.092773438 552.108398438 l 0
 87.544921875 556.119140625 69.80078125 577.990234375 66.48046875 589.895507812 c 0
 65.3828125 593.834960938 l 1
 265 785.453125 l 1
 464.831054688 593.62109375 l 1
 461.387695312 584.474609375 l 2
EndSplineSet
EndChar

StartChar: divide
Encoding: 247 247 137
GlifName: divide
Width: 427
VWidth: 0
Flags: W
HStem: 57.0898 142.446<156.515 259.187> 244 108<65.8643 366.753> 395 142.446<156.515 259.187>
VStem: 135.25 145.202<77.9508 178.674 415.861 516.585>
LayerCount: 2
Fore
SplineSet
207.849609375 199.536132812 m 4
 247.946289062 199.536132812 280.452148438 167.646484375 280.452148438 128.311523438 c 4
 280.452148438 88.978515625 247.946289062 57.08984375 207.849609375 57.08984375 c 4
 167.755859375 57.08984375 135.25 88.978515625 135.25 128.311523438 c 4
 135.25 167.646484375 167.755859375 199.536132812 207.849609375 199.536132812 c 4
207.849609375 537.446289062 m 0
 247.946289062 537.446289062 280.452148438 505.556640625 280.452148438 466.221679688 c 0
 280.452148438 426.888671875 247.946289062 395 207.849609375 395 c 0
 167.755859375 395 135.25 426.888671875 135.25 466.221679688 c 0
 135.25 505.556640625 167.755859375 537.446289062 207.849609375 537.446289062 c 0
65.8642578125 244 m 1
 64.7861328125 244.359375 l 2
 52.7568359375 248.369140625 48 278.216796875 48 299 c 0
 48 318.826171875 52.8525390625 352 67 352 c 0
 354 352 l 0
 366.67578125 352 370 314.130859375 370 296 c 3
 370 279.265625 366.497070312 244 354 244 c 0
 65.8642578125 244 l 1
EndSplineSet
EndChar

StartChar: dollar
Encoding: 36 36 142
GlifName: dollar
Width: 613
VWidth: 0
Flags: W
HStem: 22.2539 70.793<329.138 377.177> 564.803 54.4385<270.084 309.556>
VStem: 100.485 148.392<436.121 530.983> 402.305 146.979<119.382 238.437>
LayerCount: 2
Fore
SplineSet
351.958984375 259.723632812 m 1
 343.794921875 188.086914062 334.575195312 143.239257812 329.137695312 93.046875 c 1
 375.833984375 97.9228515625 402.3046875 129.741210938 402.3046875 178.95703125 c 0
 402.3046875 223.731445312 381.458984375 244.326171875 351.958984375 259.723632812 c 1
393.240234375 649.137695312 m 0
 391.396484375 635.106445312 389.590820312 621.482421875 387.48828125 606.059570312 c 1
 448.577148438 598.876953125 515.9609375 576.252929688 515.9609375 553.978515625 c 0
 515.9609375 543.501953125 495.563476562 485.313476562 474.948242188 485.313476562 c 0
 454.373046875 485.313476562 430.211914062 537.302734375 386 555 c 1
 377.971679688 494.204101562 372.821289062 452.364257812 365 387 c 1
 446.420898438 340.1640625 549.283203125 294.061523438 549.283203125 211.975585938 c 4
 549.283203125 60.9033203125 419.984243486 27.881546152 317.930664062 22.25390625 c 1
 314.051757812 -13.3564453125 313.665039062 -22.4482421875 313.205078125 -26.7705078125 c 1
 302.926757812 -42.5595703125 287.947265625 -46.9423828125 273.259765625 -46.9423828125 c 0
 262.334960938 -46.9423828125 251.37109375 -44.2734375 243.848632812 -38.046875 c 0
 240.8515625 -35.56640625 l 1
 241.405273438 -31.9287109375 l 0
 244.721679688 -10.12109375 247.13671875 6.41796875 250.06640625 28.646484375 c 1
 171.1640625 46.7490234375 102.559570312 102.65234375 102.559570312 137.25390625 c 0
 102.559570312 159.010742188 131.610351562 215.787109375 150.216796875 215.787109375 c 0
 167.647460938 215.787109375 196.005859375 138.5859375 257 108 c 1
 268.103515625 195.287109375 274.059570312 226.180664062 282.361328125 296.921875 c 1
 210.703125 336.012695312 100.485351562 378.454101562 100.485351562 461.9296875 c 0
 100.485351562 554.974609375 200.328125 611.010742188 318.6953125 619.241210938 c 1
 320.203125 637.60546875 321.400390625 652.622070312 322.75 670 c 0
 322.7734375 670 l 1
 322.830078125 670 l 0
 325.356445312 673.526367188 346.481445312 674.556640625 357.399414062 674.556640625 c 0
 373.088867188 674.556640625 392.25 664.998046875 393.28125 650.493164062 c 0
 393.329101562 649.813476562 l 1
 393.240234375 649.137695312 l 0
293.822265625 421.481445312 m 1
 299.452148438 474.6953125 304.981445312 511.741210938 309.555664062 564.802734375 c 1
 265.807617188 561.751953125 248.876953125 519.977539062 248.876953125 490.553710938 c 0
 248.876953125 457.114257812 264.53125 433.924804688 293.822265625 421.481445312 c 1
EndSplineSet
EndChar

StartChar: cent
Encoding: 162 162 143
GlifName: cent
Width: 545
VWidth: 0
Flags: W
HStem: 111 78.243<313.385 380.578>
VStem: 59.3438 144.322<246.328 421.182>
LayerCount: 2
Fore
SplineSet
433.763671875 220.010742188 m 1
 453.502929688 194.61328125 l 1
 449.299804688 190.432617188 l 2
 406.484375 147.838867188 366.547851562 112.353515625 310 111 c 1
 301.875 9.400390625 l 1
 247.032022836 9.400390625 l 2
 247.021349558 9.2669280072 247.01067528 9.13346446617 247 9 c 2
 227 9 l 1
 235.563516736 120.698044378 l 1
 147.383939091 143.883348844 59.34375 221.022106007 59.34375 333 c 0
 59.34375 458.645746376 164.251437495 519.568203925 266.726435129 527.170892987 c 1
 273 609 l 1
 293 609 l 2
 292.989264958 608.866534568 292.978531015 608.733071027 292.967798167 608.599609375 c 2
 347.010742188 608.599609375 l 1
 340.619140625 523.740234375 l 1
 381.705078125 513.844726562 469.889648438 480.111328125 469.889648438 441.334960938 c 0
 469.889648438 422.295898438 419.692382812 397.227539062 402.477539062 397.227539062 c 0
 357.073242188 397.227539062 357.166992188 447.5234375 337.615234375 465 c 1
 312.75390625 191.404296875 l 1
 326.239390059 190.288930773 338.673338997 189.242982786 350.576014287 189.242982786 c 0
 377.105669877 189.242982786 400.996003777 194.439162226 428.0078125 215.64453125 c 2
 433.763671875 220.010742188 l 1
262.743746178 475.222776234 m 1
 236.192380539 463.42821689 203.666015625 426.747348406 203.666015625 350.986328125 c 0
 203.666015625 278.709350107 216.609121141 249.935122138 243.369863081 222.519953231 c 1
 262.743746178 475.222776234 l 1
EndSplineSet
EndChar

StartChar: cedilla
Encoding: 184 184 145
GlifName: cedilla
Width: 530
VWidth: 0
Flags: W
HStem: -169.981 47.4219<214.863 295.599>
VStem: 297.749 73.9863<-119.618 -59.7699>
LayerCount: 2
Fore
SplineSet
284.7265625 41.03515625 m 5
 348.55859375 41.1640625 l 5
 315.796875 -22.591796875 l 5
 353.045898438 -28.2216796875 371.735351562 -55.59375 371.735351562 -93.638671875 c 4
 371.735351562 -148.204101562 312.21875 -169.981445312 277 -169.981445312 c 4
 236.458984375 -169.981445312 206.076171875 -150.560546875 188.973632812 -129.162109375 c 4
 185.528320312 -124.850585938 l 5
 206.670898438 -92.140625 l 5
 213.375 -99.3955078125 l 4
 228.631835938 -115.905273438 247.936523438 -122.559570312 263.049804688 -122.559570312 c 4
 282.682617188 -122.559570312 297.749023438 -107.771484375 297.749023438 -92.828125 c 4
 297.749023438 -74.8740234375 282.977539062 -57.50390625 265.860351562 -57.50390625 c 4
 254.994140625 -57.50390625 241.98046875 -63.6953125 236.486328125 -67.3583984375 c 4
 222.250976562 -61.8837890625 l 5
 284.7265625 41.03515625 l 5
EndSplineSet
EndChar

StartChar: braceleft
Encoding: 123 123 147
GlifName: braceleft
Width: 352
VWidth: 0
Flags: W
HStem: -126.934 32.0635<272.307 320.573> 766.33 32.0635<272.307 320.573>
VStem: 112.159 133.795<-68.3883 232.633 438.827 739.848> 132.799 130.619<-6.16313 288.64 382.72 677.623>
LayerCount: 2
Fore
SplineSet
312.634765625 766.330078125 m 6xe0
 283.94921875 766.330078125 245.954101562 744.859375 245.954101562 682.1640625 c 4xe0
 245.954101562 616.86328125 263.41796875 487.837890625 263.41796875 438.684570312 c 4
 263.41796875 384.780273438 245.543945312 350.814453125 214.209960938 335.73046875 c 5
 246.559570312 320.15625 263.41796875 285.987304688 263.41796875 232.775390625 c 4xd0
 263.41796875 183.619140625 245.954101562 54.599609375 245.954101562 -10.7041015625 c 4
 245.954101562 -73.4013671875 283.950195312 -94.8701171875 312.634765625 -94.8701171875 c 4
 320.573242188 -94.8701171875 l 5
 320.573242188 -126.93359375 l 5
 312.634765625 -126.93359375 l 4
 272.459960938 -126.93359375 112.159179688 -118.086914062 112.159179688 -9.201171875 c 4xe0
 112.159179688 86.62890625 132.798828125 154.567382812 132.798828125 238.788085938 c 4
 132.798828125 309.67578125 52.3115234375 302.499023438 52.3115234375 336.266601562 c 4
 52.3115234375 368.166015625 132.798828125 362.645507812 132.798828125 432.671875 c 4xd0
 132.798828125 516.895507812 112.159179688 584.828125 112.159179688 680.661132812 c 4
 112.159179688 789.547851562 272.459960938 798.393554688 312.634765625 798.393554688 c 4
 320.573242188 798.393554688 l 5
 320.573242188 766.330078125 l 5
 312.634765625 766.330078125 l 6xe0
EndSplineSet
EndChar

StartChar: braceright
Encoding: 125 125 148
GlifName: braceright
Width: 327
VWidth: 0
Flags: W
HStem: -126.934 32.0635<30.9492 82.9412> 766.33 32.0635<30.9492 82.9412>
VStem: 88.1045 130.619<-6.16313 288.118 383.687 677.623> 105.568 133.795<-67.6394 232.633 438.827 739.1>
LayerCount: 2
Fore
SplineSet
30.94921875 766.330078125 m 1xd0
 30.94921875 798.393554688 l 1
 38.88671875 798.393554688 l 0
 69.0615234375 798.393554688 239.36328125 789.546875 239.36328125 680.661132812 c 0xd0
 239.36328125 584.831054688 218.723632812 516.892578125 218.723632812 432.671875 c 0
 218.723632812 362.6328125 299.250976562 368.157226562 299.250976562 336.266601562 c 0
 299.250976562 302.506835938 218.723632812 309.690429688 218.723632812 238.788085938 c 0xe0
 218.723632812 154.564453125 239.36328125 86.6318359375 239.36328125 -9.201171875 c 0
 239.36328125 -118.087890625 69.0615234375 -126.93359375 38.88671875 -126.93359375 c 0
 30.94921875 -126.93359375 l 1
 30.94921875 -94.8701171875 l 1
 38.88671875 -94.8701171875 l 0
 77.572265625 -94.8701171875 105.568359375 -73.3994140625 105.568359375 -10.7041015625 c 0xd0
 105.568359375 54.5966796875 88.1044921875 183.622070312 88.1044921875 232.775390625 c 0
 88.1044921875 286.6796875 105.977539062 320.645507812 137.3125 335.73046875 c 1
 104.961914062 351.303710938 88.1044921875 385.47265625 88.1044921875 438.684570312 c 0xe0
 88.1044921875 487.840820312 105.568359375 616.860351562 105.568359375 682.1640625 c 0
 105.568359375 744.861328125 77.5712890625 766.330078125 38.88671875 766.330078125 c 0
 30.94921875 766.330078125 l 1xd0
EndSplineSet
EndChar

StartChar: ampersand
Encoding: 38 38 149
GlifName: ampersand
Width: 882
VWidth: 0
Flags: W
HStem: -23 52<694.062 807.619> -17 95.9795<234.528 370.281> 330.605 33.3945<570.396 605.318 716.434 760> 696 46<276.239 354.87>
VStem: 32 167.26<116.957 248.133> 101 155.05<530.856 647.211> 370.8 137.2<549.31 664.153>
LayerCount: 2
Fore
SplineSet
303.615234375 490.666015625 m 1x36
 357.549804688 544.21484375 370.799804688 590.5390625 370.799804688 625.450195312 c 0
 370.799804688 665.237304688 349.635742188 696 313 696 c 0
 272.842773438 696 256.049804688 646.461914062 256.049804688 612.700195312 c 0
 256.049804688 577.58984375 269.364257812 533.729492188 303.615234375 490.666015625 c 1x36
541 254 m 1
 563 273 552.24609375 264.783203125 575.436523438 286.30859375 c 0
 587.963867188 297.936523438 605.328125 310.129882812 605.328125 318.915039062 c 0
 605.328125 325.080078125 591.094726562 330.419921875 577.280273438 330.604492188 c 2
 570.396484375 330.696289062 l 1
 570.301757812 363.998046875 l 1
 760 364 l 1
 760 330.68359375 l 1
 753.079101562 330.60546875 l 2
 741.08203125 330.470703125 732.680664062 324.149414062 724.791015625 319.760742188 c 0
 711.196289062 312.198242188 667.27734375 278.377929688 654.950195312 266.049804688 c 0
 632.368164062 243.46875 599.046875 220.038085938 582.627929688 196.28515625 c 1
 624.235351562 134.87109375 686.840820312 29 739 29 c 0
 806.373046875 29 826.477539062 63.5927734375 833.958984375 76.3818359375 c 1
 849.624023438 60.353515625 l 1
 836.724609375 21.4794921875 809.470703125 -23 731 -23 c 0xb6
 627.610351562 -23 583.919921875 5.5009765625 541.17578125 56.1171875 c 0
 534.798828125 63.66796875 509.021484375 92.6328125 503.19140625 100.956054688 c 1
 454.887695312 27.328125 410.372070312 -17 303 -17 c 0
 152.317382812 -17 32 58.2099609375 32 175 c 0x7a
 32 283.524414062 165.491210938 349.509765625 232 394 c 1
 181.032226562 445.2265625 101 482.844726562 101 567 c 0
 101 665.40625 188.834960938 742 305 742 c 0
 464.204101562 742 508 650.911132812 508 595 c 0
 508 514.220703125 465 460 406.00390625 395.940429688 c 1
 436.522460938 366.717773438 429.852539062 374.046875 455.950195312 347.950195312 c 0
 509.884765625 294.014648438 516.0625 284.073242188 541 254 c 1
297.818359375 329.052734375 m 1
 254.299804688 294.040039062 199.259765625 256.015625 199.259765625 199.440429688 c 0
 199.259765625 135.624023438 223.884765625 78.9794921875 297.728515625 78.9794921875 c 0x7a
 353.48828125 78.9794921875 403.137695312 113.869140625 441.377929688 167.712890625 c 1
 415.163085938 202.20703125 391.331054688 235.361328125 350.263671875 277.553710938 c 0
 328.349609375 300.067382812 330.057617188 298.708007812 297.818359375 329.052734375 c 1
EndSplineSet
EndChar

StartChar: ae
Encoding: 230 230 150
GlifName: ae
Width: 870
VWidth: 0
Flags: W
HStem: -10 51.2998<191.981 317.571 556.147 715.089> 463.076 48.6055<515.623 659.277> 471.803 39.8477<223.135 308.841>
VStem: 32.9199 135.556<62.2376 172.681> 342.146 133.785<112.12 263.269 342.232 423.694>
LayerCount: 2
Fore
SplineSet
812.064453125 365.178710938 m 6xd8
 701.428710938 336.233398438 590.596679688 315.588867188 477.453125 282.942382812 c 1
 476.326171875 277.217773438 475.930664062 270.088867188 475.930664062 257.919921875 c 0
 475.930664062 202.633789062 476.07421875 143.725585938 491.831054688 119.587890625 c 0
 527.59375 64.7958984375 579.264648438 46.3154296875 639.720703125 46.3154296875 c 3
 683.606445312 46.3154296875 756.00390625 72.6181640625 810.798828125 113.081054688 c 2
 816.5546875 117.33203125 l 1
 835.8203125 98.79296875 l 1
 831.618164062 94.7236328125 l 2
 767.243987552 32.3840572791 711.716796875 -10 609.571289062 -10 c 0
 539.918945312 -10 477.141601562 -1.1708984375 434.868164062 47.7421875 c 1
 378.126953125 2.578125 305.248046875 -10 233.173828125 -10 c 0
 86.578125 -10 32.919921875 32.4375 32.919921875 94.9755859375 c 0
 32.919921875 159.3359375 62.5654296875 192.668945312 108.852539062 220.874023438 c 0
 185.7890625 267.508789062 251.569335938 288.110351562 343.328125 315.998046875 c 1
 343.611328125 331.125 343.587890625 341.791015625 344.056640625 355.891601562 c 0
 343.255859375 371.748046875 342.310546875 387.203125 342.149414062 395.38671875 c 0
 341.50390625 428.223632812 300.1875 471.802734375 267.518554688 471.802734375 c 0
 200 471.802734375 199.71875 376.203125 120.672851562 376.203125 c 0
 101.458007812 376.203125 75.9521484375 394.622070312 75.9521484375 416.35546875 c 0
 75.9521484375 421.173828125 77.8251953125 428.260742188 82.2578125 433.154296875 c 0
 139.123046875 495.931640625 183.034179688 511.650390625 279.415039062 511.650390625 c 0xb8
 357.244140625 511.650390625 421.314453125 476.388671875 444.532226562 441.364257812 c 1
 489.155273438 489.526367188 540.606445312 511.681640625 618.049804688 511.681640625 c 0
 730.919921875 511.681640625 818.13671875 435.25 818.13671875 371.896484375 c 6
 818.13671875 366.768554688 l 5
 812.064453125 365.178710938 l 6xd8
471.790039062 342.232421875 m 1
 536.411132812 359.86328125 623.50390625 384.99609375 687.33984375 406.416015625 c 1
 672.473632812 441.008789062 636.676757812 463.076171875 589.515625 463.076171875 c 0xd8
 538.9609375 463.076171875 474.565429688 440.595703125 471.790039062 342.232421875 c 1
342.145507812 81.474609375 m 1
 340.5234375 112.362304688 340.232421875 136.940429688 340.232421875 193.064453125 c 0
 340.232421875 210.540039062 341.6484375 246.166015625 342.479492188 263.2734375 c 1
 291.268554688 247.809570312 260.73046875 235.8671875 237.295898438 221.6875 c 0
 193.665039062 195.288085938 168.475585938 163.4765625 168.475585938 117.115234375 c 0
 168.475585938 69.0390625 200.629882812 41.2998046875 251.671875 41.2998046875 c 0
 281.399414062 41.2998046875 324.998046875 62.7890625 342.145507812 81.474609375 c 1
EndSplineSet
Validated: 1
EndChar

StartChar: germandbls
Encoding: 223 223 151
GlifName: germandbls
Width: 786
VWidth: 0
Flags: W
HStem: -9 50<456.836 566.352> 0 31<59 82.625 332.373 353> 691 44<338.77 434.94>
VStem: 113 191<35.5655 64 64.0909 509.906 510 602.377> 345 156<392.259 485.51> 451 146<568.835 675.223> 588 160<79.3359 183.894>
LayerCount: 2
Fore
SplineSet
111 510 m 1x74
 111 627 210 735 396 735 c 0
 498 735 597 709 597 635 c 0x74
 597 552 501 508 501 452 c 0
 501 399 528 383 608 324 c 0
 682 270 748 235 748 153 c 0
 748 72 682 -9 506 -9 c 0
 398 -9 378.548297612 33.1775535824 362 58 c 0
 360 61 356 69 356 77 c 3
 356 96 382 155 404 155 c 0
 412 155 416.244140625 150.217773438 419 146 c 0
 435.743164062 120.375 438 41 501 41 c 0
 554 41 588 64 588 127 c 3
 588 192 509 238 450 279 c 0
 387 322 345 363 345 417 c 3xba
 345 465 368 493 400 523 c 0
 431 552 451 585 451 619 c 0
 451 653 433 691 392 691 c 3
 315 691 304 606 304 511 c 2
 304 64 l 0
 307 51 312 37 332 33 c 0
 340 32 345 31 353 31 c 1
 353 0 l 1
 59 0 l 1
 59 31 l 1
 67 31 75 32 83 33 c 0
 102 37 111 51 111 64 c 0
 111 64 113 189 113 261 c 0
 113 265 113 268 113 270 c 0
 113 381 111 510 111 510 c 1x74
EndSplineSet
EndChar

StartChar: uniFB02
Encoding: 64258 64258 152
GlifName: uniF_B_02
Width: 689
VWidth: 0
Flags: W
HStem: 0 32.7627<40.8809 73.8007 259.244 292.004 407 439.614 620.357 653.123> 448.57 56.084<30.3311 77.1045 256.303 374.29> 721.104 45.085<279.581 388.235>
VStem: 77.0928 173.124<36.3612 452.249 504.654 646.272> 443.227 173.728<34.1742 656.501>
LayerCount: 2
Fore
SplineSet
616.954101562 57.8564453125 m 6
 619.341796875 46.0966796875 630.740234375 33.2158203125 646.215820312 33.015625 c 6
 653.123046875 32.92578125 l 5
 653.123046875 0 l 5
 407 0 l 5
 407 32.8798828125 l 5
 413.907226562 32.9697265625 l 6
 429.602539062 33.169921875 441.026367188 46.6796875 443.2265625 58.076171875 c 6
 443.2265625 609.100585938 l 5
 420 674 388.03125 721.103515625 328.694335938 721.103515625 c 4
 274.6015625 721.103515625 250.216796875 676.162109375 250.216796875 585.43359375 c 6
 250.71875 504.654296875 l 5
 339.596679688 504.654296875 l 6
 362.313476562 504.654296875 376.928710938 499.587890625 376.928710938 485.530273438 c 4
 376.928710938 478.765625 371.12890625 453.9140625 368.444335938 448.5703125 c 5
 362.682617188 448.5703125 l 6
 356.415039062 448.5703125 303.076171875 451.99609375 256.302734375 452.385742188 c 5
 255.833007812 57.48046875 l 6
 258.221679688 45.798828125 269.670898438 32.962890625 285.095703125 32.7626953125 c 6
 292.00390625 32.673828125 l 5
 292.00390625 0 l 5
 40.880859375 0 l 5
 40.880859375 32.66796875 l 5
 47.7880859375 32.7568359375 l 6
 63.43359375 32.95703125 74.9130859375 46.423828125 77.107421875 57.7568359375 c 6
 77.107421875 452.249023438 l 5
 40.7880859375 451.396484375 37.0341796875 449.260742188 22 447.1015625 c 5
 30.3310546875 500.703125 l 5
 77.1044921875 500.703125 l 5
 77.099609375 512.75390625 77.0927734375 543.11328125 77.0927734375 556 c 4
 77.0927734375 704.11328125 214.974609375 766.188476562 339.24609375 766.188476562 c 4
 377.96484375 766.188476562 420.736328125 760.158203125 457.399414062 740.375 c 5
 599.307617188 768.4609375 l 6
 601.010742188 768.915039062 602.620117188 769.081054688 604 769.081054688 c 4
 616.767578125 769.081054688 617.01171875 751.661132812 617.048828125 741.84375 c 6
 616.954101562 57.8564453125 l 6
EndSplineSet
LCarets2: 1 0
Ligature2: "'liga' fl" f l
EndChar

StartChar: uniFB00
Encoding: 64256 64256 153
GlifName: uniF_B_00
Width: 839
VWidth: 0
Flags: W
HStem: 0 32.7627<49.8809 82.8007 268.244 301.004 393.881 426.801 612.244 645.004> 452.386 52.2686<39.3311 86.1045 265.303 430.104 609.303 728.174> 703.104 45.085<295.777 409.093> 721.104 45.085<632.016 714.313>
VStem: 86.0928 173.124<36.3612 452.249 504.654 628.272> 430.093 173.124<36.3612 451.574 504.654 637.711>
LayerCount: 2
Fore
SplineSet
692.24609375 766.188476562 m 4xdc
 755.682617188 766.188476562 820 750 860.506835938 683.662109375 c 4
 863.2421875 679.182617188 866.280273438 669.145507812 866.280273438 664.142578125 c 4
 866.280273438 639.611328125 835.1953125 608.627929688 795.756835938 608.627929688 c 4
 707.78515625 608.627929688 743.370117188 721.103515625 681.694335938 721.103515625 c 4xdc
 627.6015625 721.103515625 603.216796875 676.162109375 603.216796875 585.43359375 c 6
 603.71875 504.654296875 l 5
 692.596679688 504.654296875 l 6
 715.313476562 504.654296875 729.928710938 499.587890625 729.928710938 485.530273438 c 4
 729.928710938 478.765625 724.12890625 453.9140625 721.444335938 448.5703125 c 5
 715.682617188 448.5703125 l 6
 709.415039062 448.5703125 656.076171875 451.99609375 609.302734375 452.385742188 c 5
 608.833007812 57.48046875 l 6
 611.221679688 45.798828125 622.670898438 32.962890625 638.095703125 32.7626953125 c 6
 645.00390625 32.673828125 l 5
 645.00390625 0 l 5
 393.880859375 0 l 5
 393.880859375 32.66796875 l 5
 400.788085938 32.7568359375 l 6
 416.43359375 32.95703125 427.913085938 46.423828125 430.107421875 57.7568359375 c 6
 430.107421875 451.57421875 l 5
 417.616210938 451.616210938 309.564453125 452.016601562 265.302734375 452.385742188 c 5
 264.833007812 57.48046875 l 6
 267.221679688 45.798828125 278.670898438 32.962890625 294.095703125 32.7626953125 c 6
 301.00390625 32.673828125 l 5
 301.00390625 0 l 5
 49.880859375 0 l 5
 49.880859375 32.66796875 l 5
 56.7880859375 32.7568359375 l 6
 72.43359375 32.95703125 83.9130859375 46.423828125 86.107421875 57.7568359375 c 6
 86.107421875 452.249023438 l 5
 49.7880859375 451.396484375 46.0341796875 449.260742188 31 447.1015625 c 5
 39.3310546875 500.703125 l 5
 86.1044921875 500.703125 l 5
 86.099609375 512.75390625 86.0927734375 525.11328125 86.0927734375 538 c 4
 86.0927734375 686.11328125 223.974609375 748.188476562 368.24609375 748.188476562 c 4xec
 411.611328125 748.188476562 475.387695312 740.623046875 511.688476562 714.64453125 c 5
 562.040039062 750.064453125 628.91015625 766.188476562 692.24609375 766.188476562 c 4xdc
447.243164062 638.833984375 m 5
 429.776367188 672.734375 385.801757812 703.103515625 357.694335938 703.103515625 c 4xec
 293.6015625 703.103515625 259.216796875 658.162109375 259.216796875 567.43359375 c 6
 259.71875 504.654296875 l 5
 430.103515625 504.654296875 l 5
 430.098632812 518.4296875 430.092773438 544.352539062 430.092773438 556 c 4
 430.092773438 587.403320312 436.291015625 614.938476562 447.243164062 638.833984375 c 5
EndSplineSet
LCarets2: 1 -1
Ligature2: "'liga' ff" f f
EndChar

StartChar: uniFB01
Encoding: 64257 64257 154
GlifName: uniF_B_01
Width: 670
VWidth: 0
Flags: W
HStem: 0 32.7627<49.8809 82.8007 268.244 301.004 401 433.923 614.346 647.101> 447.102 53.6016<39.3311 86.1045> 462.873 41.7812<265.303 436.821> 723.104 43.085<296.122 409.409>
VStem: 86.0928 173.124<36.3612 452.249 504.654 641.099> 432.548 157.732<613.668 699.619> 437.229 173.704<33.9694 462.656>
LayerCount: 2
Fore
SplineSet
376.24609375 766.188476562 m 4xda
 449.682617188 766.188476562 544 757 584.506835938 690.662109375 c 4
 587.2421875 686.182617188 590.280273438 669.145507812 590.280273438 664.142578125 c 4
 590.280273438 622.611328125 562.1953125 591.627929688 513.756835938 591.627929688 c 4
 473.89453125 591.627929688 440 614 432.547851562 651 c 4xdc
 424.64453125 690.23828125 409.766601562 723.103515625 348.694335938 723.103515625 c 4
 294.6015625 723.103515625 259.216796875 676.162109375 259.216796875 585.43359375 c 6
 259.71875 504.654296875 l 5
 468.172851562 504.654296875 l 5
 593.1875 523.674804688 l 6
 594.912109375 524.162109375 596.559570312 524.352539062 598 524.352539062 c 4
 610.767578125 524.352539062 610.989257812 510.244140625 611.02734375 500.733398438 c 6
 610.932617188 57.4765625 l 6
 613.32421875 45.806640625 624.776367188 32.966796875 640.193359375 32.76953125 c 6
 647.100585938 32.6806640625 l 5
 647.100585938 0 l 5
 401 0 l 5
 401 32.6796875 l 5
 407.907226562 32.7685546875 l 6
 423.561523438 32.96875 435.034179688 46.4365234375 437.228515625 57.78125 c 6
 437.228515625 435.723632812 l 6
 437.228515625 450.66015625 431.583007812 459.340820312 421.892578125 462.823242188 c 4
 416.084960938 462.838867188 410.209960938 462.856445312 404.319335938 462.873046875 c 6xba
 403.409179688 462.61328125 l 5
 403.409179688 462.875976562 l 5
 352.977539062 463.024414062 286.537109375 463.208984375 265.302734375 463.385742188 c 5
 264.833007812 57.48046875 l 6
 267.221679688 45.798828125 278.670898438 32.962890625 294.095703125 32.7626953125 c 6
 301.00390625 32.673828125 l 5
 301.00390625 0 l 5
 49.880859375 0 l 5
 49.880859375 32.66796875 l 5
 56.7880859375 32.7568359375 l 6
 72.43359375 32.95703125 83.9130859375 46.423828125 86.107421875 57.7568359375 c 6
 86.107421875 452.249023438 l 5
 49.7880859375 451.396484375 46.0341796875 449.260742188 31 447.1015625 c 5
 39.3310546875 500.703125 l 5
 86.1044921875 500.703125 l 5
 86.099609375 512.75390625 86.0927734375 543.11328125 86.0927734375 556 c 4
 86.0927734375 704.11328125 235.974609375 766.188476562 376.24609375 766.188476562 c 4xda
EndSplineSet
LCarets2: 1 0
Ligature2: "'liga' fi" f i
EndChar

StartChar: uniFB03
Encoding: 64259 64259 155
GlifName: uniF_B_03
Width: 1025
VWidth: 0
Flags: W
HStem: 0 32.7627<45.0381 77.9579 263.401 296.161 389.038 421.958 607.401 640.161 740.157 773.08 953.503 986.258> 452.386 52.2686<34.4883 81.2617 260.46 425.261> 462.873 41.7812<604.46 775.978> 703.104 45.085<290.934 404.409> 730.104 36.085<631.387 741.096>
VStem: 81.25 173.124<36.3612 452.249 504.654 628.272> 425.25 173.124<36.3612 451.574 504.654 637.711> 771.705 157.732<613.668 705.186> 776.386 173.704<33.9694 462.656>
LayerCount: 2
Fore
SplineSet
442.400390625 638.833984375 m 1xc6
 424.93359375 672.734375 380.958984375 703.103515625 352.8515625 703.103515625 c 0
 288.758789062 703.103515625 254.374023438 658.162109375 254.374023438 567.43359375 c 2
 254.875976562 504.654296875 l 1xb6
 425.260742188 504.654296875 l 1
 425.255859375 518.4296875 425.25 544.352539062 425.25 556 c 0
 425.25 587.403320312 431.448242188 614.938476562 442.400390625 638.833984375 c 1xc6
715.403320312 766.188476562 m 0x8e80
 788.83984375 766.188476562 883.157226562 757 923.6640625 690.662109375 c 0
 926.399414062 686.182617188 929.4375 669.145507812 929.4375 664.142578125 c 0
 929.4375 622.611328125 901.352539062 591.627929688 852.9140625 591.627929688 c 0
 813.051757812 591.627929688 779.157226562 614 771.705078125 651 c 0x8f
 763.801757812 690.23828125 748.923828125 730.103515625 687.8515625 730.103515625 c 0
 609.758789062 730.103515625 598.374023438 676.162109375 598.374023438 585.43359375 c 2
 598.875976562 504.654296875 l 1
 807.330078125 504.654296875 l 1
 932.344726562 523.674804688 l 2
 934.069335938 524.162109375 935.716796875 524.352539062 937.157226562 524.352539062 c 0
 949.924804688 524.352539062 950.146484375 510.244140625 950.184570312 500.733398438 c 2
 950.08984375 57.4765625 l 2
 952.481445312 45.806640625 963.93359375 32.966796875 979.350585938 32.76953125 c 2
 986.2578125 32.6806640625 l 1
 986.2578125 0 l 1
 740.157226562 0 l 1
 740.157226562 32.6796875 l 1
 747.064453125 32.7685546875 l 2
 762.71875 32.96875 774.19140625 46.4365234375 776.385742188 57.78125 c 2
 776.385742188 435.723632812 l 2
 776.385742188 450.66015625 770.740234375 459.340820312 761.049804688 462.823242188 c 0
 755.2421875 462.838867188 749.3671875 462.856445312 743.4765625 462.873046875 c 2xae80
 742.56640625 462.61328125 l 1
 742.56640625 462.875976562 l 1
 692.134765625 463.024414062 625.694335938 463.208984375 604.459960938 463.385742188 c 1
 603.990234375 57.48046875 l 2
 606.37890625 45.798828125 617.828125 32.962890625 633.252929688 32.7626953125 c 2
 640.161132812 32.673828125 l 1
 640.161132812 0 l 1
 389.038085938 0 l 1
 389.038085938 32.66796875 l 1
 395.9453125 32.7568359375 l 2
 411.590820312 32.95703125 423.0703125 46.423828125 425.264648438 57.7568359375 c 2
 425.264648438 451.57421875 l 1
 412.7734375 451.616210938 304.721679688 452.016601562 260.459960938 452.385742188 c 1
 259.990234375 57.48046875 l 2
 262.37890625 45.798828125 273.828125 32.962890625 289.252929688 32.7626953125 c 2
 296.161132812 32.673828125 l 1
 296.161132812 0 l 1
 45.0380859375 0 l 1
 45.0380859375 32.66796875 l 1
 51.9453125 32.7568359375 l 2
 67.5908203125 32.95703125 79.0703125 46.423828125 81.2646484375 57.7568359375 c 2
 81.2646484375 452.249023438 l 1
 44.9453125 451.396484375 41.19140625 449.260742188 26.1572265625 447.1015625 c 1
 34.48828125 500.703125 l 1
 81.26171875 500.703125 l 1
 81.2568359375 512.75390625 81.25 525.11328125 81.25 538 c 0
 81.25 686.11328125 219.131835938 748.188476562 363.403320312 748.188476562 c 0xd680
 406.702148438 748.188476562 472.344726562 736.658203125 508.6796875 710.762695312 c 1
 564.622070312 748.888671875 641.3515625 766.188476562 715.403320312 766.188476562 c 0x8e80
EndSplineSet
LCarets2: 2 0 0
Ligature2: "'liga' ffi" f f i
EndChar

StartChar: uniFB04
Encoding: 64260 64260 156
GlifName: uniF_B_04
Width: 1053
VWidth: 0
Flags: W
HStem: 0 32.7627<49.8809 82.8007 268.244 301.004 393.881 426.801 612.244 645.004 760 792.614 973.357 1006.12> 452.386 52.2686<39.3311 86.1045 265.303 430.104 609.303 728.174> 703.104 45.085<295.777 409.093> 721.104 45.085<631.937 740.704>
VStem: 86.0928 173.124<36.3612 452.249 504.654 628.272> 430.093 173.124<36.3612 451.574 504.654 637.711> 796.227 173.728<34.1742 656.369>
LayerCount: 2
Fore
SplineSet
681.694335938 721.103515625 m 0xde
 627.6015625 721.103515625 602.653320312 676.158203125 603.216796875 585.43359375 c 2
 603.71875 504.654296875 l 1
 692.596679688 504.654296875 l 2
 715.313476562 504.654296875 729.928710938 499.587890625 729.928710938 485.530273438 c 0
 729.928710938 478.765625 724.12890625 453.9140625 721.444335938 448.5703125 c 1
 715.682617188 448.5703125 l 2
 709.415039062 448.5703125 656.076171875 451.99609375 609.302734375 452.385742188 c 1
 608.833007812 57.48046875 l 2
 611.221679688 45.798828125 622.670898438 32.962890625 638.095703125 32.7626953125 c 2
 645.00390625 32.673828125 l 1
 645.00390625 0 l 1
 393.880859375 0 l 1
 393.880859375 32.66796875 l 1
 400.788085938 32.7568359375 l 2
 416.43359375 32.95703125 427.913085938 46.423828125 430.107421875 57.7568359375 c 2
 430.107421875 451.57421875 l 1
 417.616210938 451.616210938 309.564453125 452.016601562 265.302734375 452.385742188 c 1
 264.833007812 57.48046875 l 2
 267.221679688 45.798828125 278.670898438 32.962890625 294.095703125 32.7626953125 c 2
 301.00390625 32.673828125 l 1
 301.00390625 0 l 1
 49.880859375 0 l 1
 49.880859375 32.66796875 l 1
 56.7880859375 32.7568359375 l 2
 72.43359375 32.95703125 83.9130859375 46.423828125 86.107421875 57.7568359375 c 2
 86.107421875 452.249023438 l 1
 49.7880859375 451.396484375 46.0341796875 449.260742188 31 447.1015625 c 1
 39.3310546875 500.703125 l 1
 86.1044921875 500.703125 l 1
 86.099609375 512.75390625 86.0927734375 525.11328125 86.0927734375 538 c 0
 86.0927734375 686.11328125 223.974609375 748.188476562 368.24609375 748.188476562 c 0xee
 411.611328125 748.188476562 475.387695312 740.623046875 511.688476562 714.64453125 c 1
 562.040039062 750.064453125 628.91015625 766.188476562 692.24609375 766.188476562 c 0
 730.96484375 766.188476562 773.736328125 760.158203125 810.399414062 740.375 c 1
 952.307617188 768.4609375 l 2
 954.010742188 768.915039062 955.620117188 769.081054688 957 769.081054688 c 0
 969.767578125 769.081054688 970.01171875 751.661132812 970.048828125 741.84375 c 2
 969.954101562 57.8564453125 l 2
 972.341796875 46.0966796875 983.740234375 33.2158203125 999.215820312 33.015625 c 2
 1006.12304688 32.92578125 l 1
 1006.12304688 0 l 1
 760 0 l 1
 760 32.8798828125 l 1
 766.907226562 32.9697265625 l 2
 782.602539062 33.169921875 794.026367188 46.6796875 796.2265625 58.076171875 c 2
 796.2265625 609.100585938 l 5
 776 668 741.03125 721.103515625 681.694335938 721.103515625 c 0xde
447.243164062 638.833984375 m 1
 429.776367188 672.734375 385.801757812 703.103515625 357.694335938 703.103515625 c 0
 293.6015625 703.103515625 259.216796875 658.162109375 259.216796875 567.43359375 c 2
 259.71875 504.654296875 l 1
 430.103515625 504.654296875 l 1
 430.098632812 518.4296875 430.092773438 544.352539062 430.092773438 556 c 0
 430.092773438 587.403320312 436.291015625 614.938476562 447.243164062 638.833984375 c 1
EndSplineSet
LCarets2: 2 0 0
Ligature2: "'liga' ffl" f f l
EndChar

StartChar: uni02B9
Encoding: 697 697 157
GlifName: uni02B_9
Width: 187
VWidth: 0
Flags: W
HStem: 494 180<69.8242 117.959>
VStem: 58 72<559.812 671.317>
LayerCount: 2
Fore
SplineSet
92 674 m 2
 96 674 l 0
 117.575665284 674 130 656.615152816 130 636 c 0
 130 628.644983318 l 1
 117.964081861 510.291788285 l 1
 117.964081861 510.291788285 110.666056561 494 101 494 c 0
 87 494 l 0
 76.8708782569 494 70.7236642676 500.706748291 69.8775991694 511.848591486 c 1
 58 628.644983318 l 1
 58 634 l 0
 58 654.631474702 71.9012019561 674 92 674 c 2
EndSplineSet
Validated: 1
EndChar

StartChar: uni02BA
Encoding: 698 698 158
GlifName: uni02B_A_
Width: 304
VWidth: 0
Flags: W
HStem: 494 180<69.8242 117.959 185.824 233.959>
VStem: 58 73<559.812 671.198> 174 73<559.812 671.198>
LayerCount: 2
Fore
SplineSet
208 674 m 2
 212 674 l 0
 233.032518313 674 247 658.184604933 247 637 c 0
 247 635.269145265 246.619151267 630.366243306 245.883382856 627.498248073 c 1
 233.964081861 510.291788285 l 1
 233.964081861 510.291788285 226.666056561 494 217 494 c 0
 203 494 l 0
 192.870878257 494 186.723664268 500.706748291 185.877599169 511.848591486 c 1
 174 628.644983318 l 1
 174 634 l 0
 174 654.631474702 187.901201956 674 208 674 c 2
92 674 m 2
 96 674 l 0
 117.032518313 674 131 658.184604933 131 637 c 0
 131 635.269145265 130.619151267 630.366243306 129.883382856 627.498248073 c 1
 117.964081861 510.291788285 l 1
 117.964081861 510.291788285 110.666056561 494 101 494 c 0
 87 494 l 0
 76.8708782569 494 70.7236642676 500.706748291 69.8775991694 511.848591486 c 1
 58 628.644983318 l 1
 58 634 l 0
 58 654.631474702 71.9012019561 674 92 674 c 2
EndSplineSet
Validated: 1
EndChar

StartChar: quotedblleft
Encoding: 8220 8220 159
GlifName: quotedblleft
Width: 514
VWidth: 0
Flags: W
HStem: 513.306 320.979
VStem: 32.5645 103.078<607.6 723.776> 277.564 103.078<607.6 723.776>
LayerCount: 2
Fore
SplineSet
465.037109375 601.103515625 m 0
 465.037109375 553.8671875 422.729492188 513.305664062 369.643554688 513.305664062 c 0
 304.208007812 513.305664062 277.564453125 574.06640625 277.564453125 641.133789062 c 0
 277.564453125 734.758789062 345.180664062 784.807617188 423.396484375 827.296875 c 2
 436.260742188 834.28515625 l 1
 444.680664062 781.594726562 l 1
 438.151367188 778.119140625 l 2
 405.791015625 760.893554688 380.642578125 741.299804688 380.642578125 707.71484375 c 0
 380.642578125 700.479492188 381.809570312 692.594726562 384.323242188 683.9453125 c 0
 389.266601562 666.932617188 465.037109375 671.672851562 465.037109375 601.103515625 c 0
220.037109375 601.103515625 m 0
 220.037109375 553.8671875 177.729492188 513.305664062 124.643554688 513.305664062 c 0
 59.2080078125 513.305664062 32.564453125 574.06640625 32.564453125 641.133789062 c 0
 32.564453125 734.758789062 100.180664062 784.807617188 178.396484375 827.296875 c 2
 191.260742188 834.28515625 l 1
 199.680664062 781.594726562 l 1
 193.151367188 778.119140625 l 2
 160.791015625 760.893554688 135.642578125 741.299804688 135.642578125 707.71484375 c 0
 135.642578125 700.479492188 136.809570312 692.594726562 139.323242188 683.9453125 c 0
 144.266601562 666.932617188 220.037109375 671.672851562 220.037109375 601.103515625 c 0
EndSplineSet
EndChar

StartChar: second
Encoding: 8243 8243 160
GlifName: second
Width: 304
VWidth: 0
Flags: W
HStem: 501 166<75.875 111.771 191.875 227.771>
VStem: 65 59<560.167 666.305> 181 59<560.167 666.305>
LayerCount: 2
Fore
SplineSet
208 667 m 6
 212 667 l 6
 229 667 240 655 240 637 c 4
 240 635 240 632 239 629 c 6
 227 511 l 6
 227 505 223 501 217 501 c 6
 203 501 l 6
 197 501 193 505 193 511 c 6
 181 629 l 6
 181 631 181 633 181 634 c 4
 181 652 193 667 208 667 c 6
92 667 m 6
 96 667 l 6
 113 667 124 655 124 637 c 4
 124 635 124 632 123 629 c 6
 111 511 l 6
 111 505 107 501 101 501 c 6
 87 501 l 6
 81 501 77 505 77 511 c 6
 65 629 l 6
 65 631 65 633 65 634 c 4
 65 652 77 667 92 667 c 6
EndSplineSet
Validated: 1
EndChar

StartChar: quotedblright
Encoding: 8221 8221 161
GlifName: quotedblright
Width: 548
VWidth: 0
Flags: W
HStem: 452.371 320.979
VStem: 141.006 103.078<562.881 679.056> 401.006 103.078<562.881 679.056>
LayerCount: 2
Fore
SplineSet
316.611328125 685.552734375 m 0
 316.611328125 732.7890625 358.918945312 773.350585938 412.004882812 773.350585938 c 0
 477.440429688 773.350585938 504.083984375 712.58984375 504.083984375 645.522460938 c 0
 504.083984375 551.897460938 436.467773438 501.848632812 358.251953125 459.359375 c 2
 345.387695312 452.37109375 l 1
 336.967773438 505.061523438 l 1
 343.497070312 508.537109375 l 2
 375.857421875 525.762695312 401.005859375 545.356445312 401.005859375 578.94140625 c 0
 401.005859375 586.176757812 399.838867188 594.061523438 397.325195312 602.7109375 c 0
 392.381835938 619.723632812 316.611328125 614.983398438 316.611328125 685.552734375 c 0
56.611328125 685.552734375 m 0
 56.611328125 732.7890625 98.9189453125 773.350585938 152.004882812 773.350585938 c 0
 217.440429688 773.350585938 244.083984375 712.58984375 244.083984375 645.522460938 c 0
 244.083984375 551.897460938 176.467773438 501.848632812 98.251953125 459.359375 c 2
 85.3876953125 452.37109375 l 1
 76.9677734375 505.061523438 l 1
 83.4970703125 508.537109375 l 2
 115.857421875 525.762695312 141.005859375 545.356445312 141.005859375 578.94140625 c 0
 141.005859375 586.176757812 139.838867188 594.061523438 137.325195312 602.7109375 c 0
 132.381835938 619.723632812 56.611328125 614.983398438 56.611328125 685.552734375 c 0
EndSplineSet
EndChar

StartChar: minute
Encoding: 8242 8242 162
GlifName: minute
Width: 187
VWidth: 0
Flags: W
HStem: 501 166<75.875 112.014>
VStem: 65 58<560.167 666.32>
LayerCount: 2
Fore
SplineSet
92 667 m 2
 96 667 l 2
 113 667 123 654 123 636 c 0
 123 634 123 631 123 629 c 2
 111 511 l 2
 111 505 107 501 101 501 c 2
 87 501 l 2
 81 501 77 505 77 511 c 2
 65 629 l 2
 65 631 65 633 65 634 c 0
 65 652 77 667 92 667 c 2
EndSplineSet
Validated: 1
EndChar

StartChar: quoteleft
Encoding: 8216 8216 163
GlifName: quoteleft
Width: 266
VWidth: 0
Flags: W
HStem: 513.306 320.979
VStem: 32.5645 103.078<607.6 723.776>
LayerCount: 2
Fore
SplineSet
220.037109375 601.103515625 m 4
 220.037109375 553.8671875 177.729492188 513.305664062 124.643554688 513.305664062 c 4
 59.2080078125 513.305664062 32.564453125 574.06640625 32.564453125 641.133789062 c 4
 32.564453125 734.758789062 100.180664062 784.807617188 178.396484375 827.296875 c 6
 191.260742188 834.28515625 l 5
 199.680664062 781.594726562 l 5
 193.151367188 778.119140625 l 6
 160.791015625 760.893554688 135.642578125 741.299804688 135.642578125 707.71484375 c 4
 135.642578125 700.479492188 136.809570312 692.594726562 139.323242188 683.9453125 c 4
 144.266601562 666.932617188 220.037109375 671.672851562 220.037109375 601.103515625 c 4
EndSplineSet
EndChar

StartChar: quoteright
Encoding: 8217 8217 164
GlifName: quoteright
Width: 300
VWidth: 0
Flags: W
HStem: 447.234 320.979
VStem: 151.064 103.078<557.744 673.919>
LayerCount: 2
Fore
SplineSet
66.669921875 680.416015625 m 4
 66.669921875 727.65234375 108.977539062 768.213867188 162.063476562 768.213867188 c 4
 227.499023438 768.213867188 254.142578125 707.453125 254.142578125 640.385742188 c 4
 254.142578125 546.760742188 186.526367188 496.711914062 108.310546875 454.22265625 c 6
 95.4462890625 447.234375 l 5
 87.0263671875 499.924804688 l 5
 93.5556640625 503.400390625 l 6
 125.916015625 520.625976562 151.064453125 540.219726562 151.064453125 573.8046875 c 4
 151.064453125 581.040039062 149.897460938 588.924804688 147.383789062 597.57421875 c 4
 142.440429688 614.586914062 66.669921875 609.846679688 66.669921875 680.416015625 c 4
EndSplineSet
EndChar

StartChar: emdash
Encoding: 8212 8212 165
GlifName: emdash
Width: 697
VWidth: 0
Flags: W
HStem: 276 44<68.0352 616.947>
LayerCount: 2
Fore
SplineSet
77 276 m 5
 71 278 68 289 68 300 c 4
 68 311 71 320 77 320 c 5
 611 320 l 5
 615 320 617 307 617 295 c 4
 617 285 616 276 611 276 c 5
 77 276 l 5
EndSplineSet
Validated: 1
EndChar

StartChar: endash
Encoding: 8211 8211 166
GlifName: endash
Width: 515
VWidth: 0
Flags: W
HStem: 276 44<68.0352 445.947>
LayerCount: 2
Fore
SplineSet
77 276 m 1
 71 278 68 289 68 300 c 0
 68 311 71 320 77 320 c 1
 440 320 l 1
 444 320 446 307 446 295 c 0
 446 285 445 276 440 276 c 1
 77 276 l 1
EndSplineSet
Validated: 1
EndChar

StartChar: uni2010
Encoding: 8208 8208 167
GlifName: uni2010
Width: 403
VWidth: 0
Flags: W
HStem: 276 44<68 336>
VStem: 68 268<276 320>
LayerCount: 2
Fore
SplineSet
68 276 m 5
 68 320 l 5
 336 320 l 5
 336 276 l 5
 68 276 l 5
EndSplineSet
Validated: 1
EndChar

StartChar: uni2015
Encoding: 8213 8213 172
GlifName: uni2015
Width: 2000
VWidth: 0
Flags: W
HStem: 276 44<68 1933>
LayerCount: 2
Fore
SplineSet
68 276 m 1
 68 320 l 1
 1933 320 l 1
 1933 276 l 1
 68 276 l 1
EndSplineSet
Validated: 1
EndChar

StartChar: figuredash
Encoding: 8210 8210 173
GlifName: figuredash
Width: 539
VWidth: 0
Flags: W
HStem: 276 44<68 472>
LayerCount: 2
Fore
SplineSet
68 276 m 1
 68 320 l 1
 472 320 l 1
 472 276 l 1
 68 276 l 1
EndSplineSet
Validated: 1
EndChar

StartChar: uni2011
Encoding: 8209 8209 174
GlifName: uni2011
Width: 403
VWidth: 0
Flags: W
HStem: 276 44<68 336>
VStem: 68 268<276 320>
LayerCount: 2
Fore
SplineSet
68 276 m 1
 68 320 l 1
 336 320 l 1
 336 276 l 1
 68 276 l 1
EndSplineSet
Validated: 1
EndChar

StartChar: uni2034
Encoding: 8244 8244 175
GlifName: uni2034
Width: 427
VWidth: 0
Flags: W
HStem: 501 166<75.875 111.771 191.875 227.771 307.875 343.771>
VStem: 65 59<560.167 666.305> 181 59<560.167 666.305> 297 59<560.167 666.305>
CounterMasks: 1 70
LayerCount: 2
Fore
SplineSet
324 667 m 2
 328 667 l 2
 345 667 356 655 356 637 c 0
 356 635 356 632 355 629 c 2
 343 511 l 2
 343 505 339 501 333 501 c 2
 319 501 l 2
 313 501 309 505 309 511 c 2
 297 629 l 2
 297 631 297 633 297 634 c 0
 297 652 309 667 324 667 c 2
208 667 m 2
 212 667 l 2
 229 667 240 655 240 637 c 0
 240 635 240 632 239 629 c 2
 227 511 l 2
 227 505 223 501 217 501 c 2
 203 501 l 2
 197 501 193 505 193 511 c 2
 181 629 l 2
 181 631 181 633 181 634 c 0
 181 652 193 667 208 667 c 2
92 667 m 2
 96 667 l 2
 113 667 124 655 124 637 c 0
 124 635 124 632 123 629 c 2
 111 511 l 2
 111 505 107 501 101 501 c 2
 87 501 l 2
 81 501 77 505 77 511 c 2
 65 629 l 2
 65 631 65 633 65 634 c 0
 65 652 77 667 92 667 c 2
EndSplineSet
Validated: 1
EndChar

StartChar: uni2016
Encoding: 8214 8214 176
GlifName: uni2016
Width: 293
VWidth: 0
Flags: W
VStem: 63 44<-110.873 737.95> 180 44<-110.873 737.95>
LayerCount: 2
Fore
SplineSet
180 728 m 5
 182 734 193 738 204 738 c 4
 215 738 224 738 224 732 c 5
 224 -102 l 5
 224 -106 211 -111 199 -111 c 4
 189 -111 180 -111 180 -106 c 5
 180 728 l 5
63 728 m 1
 65 734 76 738 87 738 c 0
 98 738 107 738 107 732 c 1
 107 -102 l 1
 107 -106 94 -111 82 -111 c 0
 72 -111 63 -111 63 -106 c 1
 63 728 l 1
EndSplineSet
Validated: 1
EndChar

StartChar: guillemotleft
Encoding: 171 171 180
GlifName: guillemotleft
Width: 570
VWidth: 0
Flags: W
LayerCount: 2
Fore
SplineSet
260 342 m 4
 260 351.913085938 269.353515625 357.235351562 269.353515625 357.235351562 c 4
 349.870117188 428.694335938 398.604492188 463.637695312 448.666015625 522.533203125 c 4
 448.849609375 522.749023438 l 5
 449.049804688 522.950195312 l 4
 452.008789062 525.909179688 456.087890625 526 457 526 c 4
 465.079101562 526 503 508.921875 503 499 c 4
 503 497.138671875 502.743164062 493.833984375 501.260742188 490.869140625 c 4
 501.091796875 490.532226562 l 5
 500.888671875 490.21484375 l 4
 465.822265625 435.66796875 441.541015625 393.323242188 383.784179688 343.045898438 c 5
 443.00390625 292.279296875 465.732421875 249.47265625 500.888671875 194.78515625 c 4
 501.091796875 194.467773438 l 5
 501.260742188 194.130859375 l 4
 502.743164062 191.166015625 503 187.861328125 503 186 c 4
 503 176.078125 465.079101562 159 457 159 c 4
 456.087890625 159 452.008789062 159.090820312 449.049804688 162.049804688 c 4
 448.849609375 162.250976562 l 5
 448.666015625 162.466796875 l 4
 398.612304688 221.354492188 349.853515625 256.321289062 269.366210938 327.752929688 c 5
 269.366210938 327.752929688 260 332.39453125 260 342 c 4
52 342 m 4
 52 351.913085938 61.353515625 357.235351562 61.353515625 357.235351562 c 4
 141.870117188 428.694335938 190.604492188 463.637695312 240.666015625 522.533203125 c 4
 240.849609375 522.749023438 l 5
 241.049804688 522.950195312 l 4
 244.008789062 525.909179688 248.087890625 526 249 526 c 4
 257.079101562 526 295 508.921875 295 499 c 4
 295 497.138671875 294.743164062 493.833984375 293.260742188 490.869140625 c 4
 293.091796875 490.532226562 l 5
 292.888671875 490.21484375 l 4
 257.822265625 435.66796875 233.541015625 393.323242188 175.784179688 343.045898438 c 5
 235.00390625 292.279296875 257.732421875 249.47265625 292.888671875 194.78515625 c 4
 293.091796875 194.467773438 l 5
 293.260742188 194.130859375 l 4
 294.743164062 191.166015625 295 187.861328125 295 186 c 4
 295 176.078125 257.079101562 159 249 159 c 4
 248.087890625 159 244.008789062 159.090820312 241.049804688 162.049804688 c 4
 240.849609375 162.250976562 l 5
 240.666015625 162.466796875 l 4
 190.612304688 221.354492188 141.853515625 256.321289062 61.3662109375 327.752929688 c 5
 61.3662109375 327.752929688 52 332.39453125 52 342 c 4
EndSplineSet
EndChar

StartChar: guillemotright
Encoding: 187 187 181
GlifName: guillemotright
Width: 541
VWidth: 0
Flags: W
LayerCount: 2
Fore
SplineSet
278 342 m 0
 278 332.39453125 268.633789062 327.752929688 268.633789062 327.752929688 c 1
 188.147460938 256.321289062 139.387695312 221.353515625 89.333984375 162.466796875 c 0
 89.150390625 162.250976562 l 1
 88.9501953125 162.049804688 l 0
 85.9912109375 159.090820312 81.912109375 159 81 159 c 0
 72.9208984375 159 35 176.078125 35 186 c 0
 35 187.861328125 35.2568359375 191.166015625 36.7392578125 194.130859375 c 0
 36.908203125 194.467773438 l 1
 37.111328125 194.78515625 l 0
 72.12109375 249.244140625 96.5029296875 293.5703125 154.215820312 343.045898438 c 1
 94.9482421875 394.638671875 72.3359375 435.420898438 37.111328125 490.21484375 c 0
 36.908203125 490.532226562 l 1
 36.7392578125 490.869140625 l 0
 35.2568359375 493.833984375 35 497.138671875 35 499 c 0
 35 508.921875 72.9208984375 526 81 526 c 0
 81.912109375 526 85.9912109375 525.909179688 88.9501953125 522.950195312 c 0
 89.150390625 522.749023438 l 1
 89.333984375 522.533203125 l 0
 139.388671875 463.645507812 188.146484375 428.678710938 268.633789062 357.247070312 c 0
 268.633789062 357.247070312 278 351.901367188 278 342 c 0
486 342 m 0
 486 332.39453125 476.633789062 327.752929688 476.633789062 327.752929688 c 1
 396.147460938 256.321289062 347.387695312 221.353515625 297.333984375 162.466796875 c 0
 297.150390625 162.250976562 l 1
 296.950195312 162.049804688 l 0
 293.991210938 159.090820312 289.912109375 159 289 159 c 0
 280.920898438 159 243 176.078125 243 186 c 0
 243 187.861328125 243.256835938 191.166015625 244.739257812 194.130859375 c 0
 244.908203125 194.467773438 l 1
 245.111328125 194.78515625 l 0
 280.12109375 249.244140625 304.502929688 293.5703125 362.215820312 343.045898438 c 1
 302.948242188 394.638671875 280.3359375 435.420898438 245.111328125 490.21484375 c 0
 244.908203125 490.532226562 l 1
 244.739257812 490.869140625 l 0
 243.256835938 493.833984375 243 497.138671875 243 499 c 0
 243 508.921875 280.920898438 526 289 526 c 0
 289.912109375 526 293.991210938 525.909179688 296.950195312 522.950195312 c 0
 297.150390625 522.749023438 l 1
 297.333984375 522.533203125 l 0
 347.388671875 463.645507812 396.146484375 428.678710938 476.633789062 357.247070312 c 0
 476.633789062 357.247070312 486 351.901367188 486 342 c 0
EndSplineSet
EndChar

StartChar: registered
Encoding: 174 174 182
GlifName: registered
Width: 617
VWidth: 0
Flags: W
HStem: 84.5439 58.2031<225.834 412.882> 196.36 16.1504<176.492 193.646 298.715 316.375> 343.478 21.583<289.699 302.104> 496.21 17.5205<182.373 194.344 290.612 330.753> 566.253 52.5625<230.16 405.024>
VStem: 38.1953 64.8691<260.718 437.56> 201.831 87.0254<226.494 343.812 365.061 493.463> 359.765 93.9307<379.532 479.056> 520.936 60.2295<256.717 444.282>
LayerCount: 2
Fore
SplineSet
38.1953125 349.146484375 m 0
 38.1953125 499.7109375 168.873046875 618.815429688 318.759765625 618.815429688 c 0
 469.123046875 618.815429688 581.165039062 499.0390625 581.165039062 349.146484375 c 0
 581.165039062 199.189453125 470.796875 84.5439453125 320.57421875 84.5439453125 c 0
 170.928710938 84.5439453125 38.1953125 198.383789062 38.1953125 349.146484375 c 0
175.985351562 508.107421875 m 1
 131.685546875 467.625 103.064453125 410.176757812 103.064453125 349.063476562 c 0
 103.064453125 288.380859375 129.802734375 237.330078125 169.985351562 200.790039062 c 1
 173.985351562 212.510742188 l 1
 182.985351562 212.510742188 l 2
 186.139648438 212.510742188 190.038085938 213.018554688 193.823242188 215.005859375 c 0
 200.180664062 218.34375 201.905273438 226.311523438 201.905273438 227.280273438 c 0
 201.905273438 234.560546875 201.831054688 330.134765625 201.831054688 401.435546875 c 0
 201.831054688 439.493164062 201.905273438 466.8828125 201.905273438 475.76953125 c 0
 201.905273438 480.616210938 199.248046875 490.997070312 194.520507812 493.58984375 c 0
 190.775390625 495.643554688 185.041015625 496.209960938 180.985351562 496.209960938 c 2
 175.985351562 496.209960938 l 1
 175.985351562 508.107421875 l 1
182.373046875 513.73046875 m 1
 195.9453125 513.73046875 l 2
 226.610351562 513.73046875 281.061523438 514.540039062 311.955078125 514.540039062 c 0
 393.979492188 514.540039062 453.6953125 487.797851562 453.6953125 424.919921875 c 0
 453.6953125 381.09375 422.477539062 352.947265625 387.852539062 342.921875 c 1
 426.051757812 294.755859375 441.456054688 241.926757812 460.486328125 220.61328125 c 0
 464.341796875 215.986328125 466.940429688 214.568359375 469.239257812 214.032226562 c 0
 474.783203125 213.432617188 l 0
 500.358398438 248.442382812 520.935546875 300.369140625 520.935546875 349.063476562 c 0
 520.935546875 465.317382812 435.71875 566.252929688 320.73046875 566.252929688 c 0
 269.693359375 566.252929688 220.810546875 546.135742188 182.373046875 513.73046875 c 1
288.856445312 365.060546875 m 2
 294.655273438 365.060546875 l 2
 333.2578125 365.060546875 359.764648438 388.4140625 359.764648438 437.110351562 c 0
 359.764648438 467.825195312 336.439453125 495.780273438 304.764648438 495.780273438 c 0
 301.368164062 495.780273438 297.424804688 496.166015625 292.849609375 496.166015625 c 0
 290.795898438 496.166015625 290.803710938 496.137695312 290.612304688 496.134765625 c 0
 290.115234375 476.526367188 288.9140625 417.729492188 288.9140625 379.879882812 c 0
 288.9140625 374.642578125 288.877929688 369.030273438 288.856445312 365.060546875 c 2
176.4921875 196.360351562 m 1
 216.0390625 162.959960938 267.853515625 142.747070312 322.475585938 142.747070312 c 0
 377.310546875 142.747070312 424.552734375 163.415039062 458.916015625 196.360351562 c 1
 399.974609375 196.360351562 l 2
 374.447265625 196.360351562 359.758789062 227.625976562 356.145507812 231.239257812 c 2
 355.856445312 231.52734375 l 1
 302.106445312 343.653320312 l 2
 302.106445312 343.653320312 298.849609375 343.477539062 295.275390625 343.477539062 c 0
 293.071289062 343.477539062 291.6796875 343.6875 289.69921875 343.811523438 c 2
 290.455078125 226.494140625 l 1
 290.455078125 226.494140625 292 218.375976562 298.537109375 215.005859375 c 0
 302.336914062 213.046875 306.220703125 212.510742188 309.375 212.510742188 c 2
 316.375 212.510742188 l 1
 316.375 196.360351562 l 1
 176.4921875 196.360351562 l 1
EndSplineSet
EndChar

StartChar: copyright
Encoding: 169 169 183
GlifName: copyright
Width: 621
VWidth: 0
Flags: W
HStem: 39.8672 52.4971<227.967 409.497> 145.269 33.6953<292.679 398.266> 477.563 20.0713<290.741 342.815> 548.883 50.25<226.367 407.895>
VStem: 27.0049 61.4209<228.402 410.924> 142.917 95.7344<239.479 422.321> 530.068 60.9268<220.164 419.91>
LayerCount: 2
Fore
SplineSet
438.463867188 227.4375 m 1
 457.502929688 203.6171875 l 1
 417.853515625 164.856445312 403.245117188 145.268554688 308.46875 145.268554688 c 0
 222.643554688 145.268554688 142.916992188 193.53515625 142.916992188 331.076171875 c 0
 142.916992188 394.4140625 168.4375 497.634765625 318.974609375 497.634765625 c 0
 359.29296875 497.634765625 412.147460938 485.515625 450.901367188 441.563476562 c 0
 453.350585938 438.784179688 455.295898438 435.53515625 455.295898438 431.686523438 c 0
 455.295898438 416.213867188 422.427734375 392.92578125 409.790039062 392.92578125 c 0
 354.336914062 392.92578125 370.708984375 477.563476562 318.157226562 477.563476562 c 0
 274.9453125 477.563476562 238.651367188 417.389648438 238.651367188 339.706054688 c 0
 238.651367188 278.247070312 266.169921875 178.963867188 339.702148438 178.963867188 c 0
 369.078125 178.963867188 401.732421875 190.16796875 438.463867188 227.4375 c 1
88.42578125 320.163085938 m 0
 88.42578125 198.487304688 197.68359375 92.3642578125 320.290039062 92.3642578125 c 0
 442.267578125 92.3642578125 530.068359375 197.598632812 530.068359375 320.163085938 c 0
 530.068359375 442.676757812 440.444335938 548.8828125 318.450195312 548.8828125 c 0
 195.931640625 548.8828125 88.42578125 441.935546875 88.42578125 320.163085938 c 0
27.0048828125 319.02734375 m 0
 27.0048828125 475.39453125 162.736328125 599.1328125 318.450195312 599.1328125 c 0
 474.623046875 599.1328125 590.995117188 474.748046875 590.995117188 319.02734375 c 0
 590.995117188 163.352539062 476.52734375 39.8671875 320.33984375 39.8671875 c 0
 164.704101562 39.8671875 27.0048828125 162.577148438 27.0048828125 319.02734375 c 0
EndSplineSet
Validated: 1
EndChar

StartChar: degree
Encoding: 176 176 185
GlifName: degree
Width: 206
VWidth: 0
Flags: W
HStem: 483.176 59.5488<70.7275 131.38> 613.035 55.7168<70.488 131.732>
VStem: 9.26172 57.9141<546.39 609.682> 134.824 57.2363<545.477 610.531>
LayerCount: 2
Fore
SplineSet
67.17578125 578.879882812 m 0
 67.17578125 560.940429688 82.291015625 542.724609375 102.331054688 542.724609375 c 0
 118.557617188 542.724609375 134.82421875 558.127929688 134.82421875 577.879882812 c 0
 134.82421875 595.985351562 120.205078125 613.03515625 102.331054688 613.03515625 c 0
 83.49609375 613.03515625 67.17578125 598.135742188 67.17578125 578.879882812 c 0
9.26171875 573.575195312 m 0
 9.26171875 622.194335938 48.005859375 668.751953125 98.0791015625 668.751953125 c 0
 147.510742188 668.751953125 192.060546875 624.198242188 192.060546875 574.76953125 c 0
 192.060546875 525.323242188 148.932617188 483.17578125 99.6689453125 483.17578125 c 0
 50.375 483.17578125 9.26171875 524.28125 9.26171875 573.575195312 c 0
EndSplineSet
Validated: 1
EndChar

